%TF.GenerationSoftware,KiCad,Pcbnew,9.0.3*%
%TF.CreationDate,2026-03-05T18:50:04-06:00*%
%TF.ProjectId,Food_Dispenser_Control,466f6f64-5f44-4697-9370-656e7365725f,rev?*%
%TF.SameCoordinates,Original*%
%TF.FileFunction,Copper,L2,Bot*%
%TF.FilePolarity,Positive*%
%FSLAX46Y46*%
G04 Gerber Fmt 4.6, Leading zero omitted, Abs format (unit mm)*
G04 Created by KiCad (PCBNEW 9.0.3) date 2026-03-05 18:50:04*
%MOMM*%
%LPD*%
G01*
G04 APERTURE LIST*
G04 Aperture macros list*
%AMRoundRect*
0 Rectangle with rounded corners*
0 $1 Rounding radius*
0 $2 $3 $4 $5 $6 $7 $8 $9 X,Y pos of 4 corners*
0 Add a 4 corners polygon primitive as box body*
4,1,4,$2,$3,$4,$5,$6,$7,$8,$9,$2,$3,0*
0 Add four circle primitives for the rounded corners*
1,1,$1+$1,$2,$3*
1,1,$1+$1,$4,$5*
1,1,$1+$1,$6,$7*
1,1,$1+$1,$8,$9*
0 Add four rect primitives between the rounded corners*
20,1,$1+$1,$2,$3,$4,$5,0*
20,1,$1+$1,$4,$5,$6,$7,0*
20,1,$1+$1,$6,$7,$8,$9,0*
20,1,$1+$1,$8,$9,$2,$3,0*%
G04 Aperture macros list end*
%TA.AperFunction,HeatsinkPad*%
%ADD10O,1.000000X2.100000*%
%TD*%
%TA.AperFunction,HeatsinkPad*%
%ADD11O,1.000000X1.800000*%
%TD*%
%TA.AperFunction,ComponentPad*%
%ADD12C,2.000000*%
%TD*%
%TA.AperFunction,ComponentPad*%
%ADD13RoundRect,0.250000X0.777817X0.000000X0.000000X0.777817X-0.777817X0.000000X0.000000X-0.777817X0*%
%TD*%
%TA.AperFunction,ComponentPad*%
%ADD14C,1.600000*%
%TD*%
%TA.AperFunction,ComponentPad*%
%ADD15RoundRect,0.250000X1.050000X1.050000X-1.050000X1.050000X-1.050000X-1.050000X1.050000X-1.050000X0*%
%TD*%
%TA.AperFunction,ComponentPad*%
%ADD16C,2.600000*%
%TD*%
%TA.AperFunction,ComponentPad*%
%ADD17RoundRect,0.250000X1.050000X-1.050000X1.050000X1.050000X-1.050000X1.050000X-1.050000X-1.050000X0*%
%TD*%
%TA.AperFunction,ComponentPad*%
%ADD18RoundRect,0.250000X-1.050000X1.050000X-1.050000X-1.050000X1.050000X-1.050000X1.050000X1.050000X0*%
%TD*%
%TA.AperFunction,ComponentPad*%
%ADD19RoundRect,0.250000X-1.050000X-1.050000X1.050000X-1.050000X1.050000X1.050000X-1.050000X1.050000X0*%
%TD*%
%TA.AperFunction,ViaPad*%
%ADD20C,0.600000*%
%TD*%
%TA.AperFunction,ViaPad*%
%ADD21C,1.200000*%
%TD*%
%TA.AperFunction,Conductor*%
%ADD22C,0.200000*%
%TD*%
%TA.AperFunction,Conductor*%
%ADD23C,1.000000*%
%TD*%
G04 APERTURE END LIST*
D10*
%TO.P,J2,S1,SHIELD*%
%TO.N,GND*%
X151680000Y-150890000D03*
D11*
X151680000Y-155070000D03*
D10*
X160320000Y-150890000D03*
D11*
X160320000Y-155070000D03*
%TD*%
D12*
%TO.P,SW1,2,2*%
%TO.N,Net-(U9-GPIO0{slash}BOOT)*%
X169000000Y-96500000D03*
X162500000Y-96500000D03*
%TO.P,SW1,1,1*%
%TO.N,GND*%
X169000000Y-92000000D03*
X162500000Y-92000000D03*
%TD*%
%TO.P,SW2,2,2*%
%TO.N,GND*%
X128209999Y-121995000D03*
X134710000Y-121994999D03*
%TO.P,SW2,1,1*%
%TO.N,Net-(U9-EN)*%
X128210000Y-126495000D03*
X134710000Y-126495000D03*
%TD*%
D13*
%TO.P,SW3,1,A*%
%TO.N,/VBAT*%
X145210000Y-140685542D03*
D14*
%TO.P,SW3,2,B*%
%TO.N,/VBAT_SYS*%
X139821846Y-135297388D03*
%TD*%
D12*
%TO.P,SW6,1,1*%
%TO.N,/Sleep*%
X128000000Y-100000000D03*
X134500000Y-100000000D03*
%TO.P,SW6,2,2*%
%TO.N,GND*%
X128000000Y-104500001D03*
X134500001Y-104500000D03*
%TD*%
D15*
%TO.P,J10,1,Pin_1*%
%TO.N,/GPIO1_1*%
X131000000Y-62500000D03*
D16*
%TO.P,J10,2,Pin_2*%
%TO.N,/GPIO1_2*%
X126000000Y-62500000D03*
%TO.P,J10,3,Pin_3*%
%TO.N,/GPIO1_3*%
X121000000Y-62500000D03*
%TD*%
D17*
%TO.P,J9,1,Pin_1*%
%TO.N,/AOUT1_3*%
X196000000Y-111000000D03*
D16*
%TO.P,J9,2,Pin_2*%
%TO.N,/AOUT2_3*%
X196000000Y-106000000D03*
%TO.P,J9,3,Pin_3*%
%TO.N,/BOUT2_3*%
X196000000Y-101000000D03*
%TO.P,J9,4,Pin_4*%
%TO.N,/BOUT1_3*%
X196000000Y-96000000D03*
%TD*%
D17*
%TO.P,J8,1,Pin_1*%
%TO.N,/AOUT1_2*%
X196000000Y-133000000D03*
D16*
%TO.P,J8,2,Pin_2*%
%TO.N,/AOUT2_2*%
X196000000Y-128000000D03*
%TO.P,J8,3,Pin_3*%
%TO.N,/BOUT2_2*%
X196000000Y-123000000D03*
%TO.P,J8,4,Pin_4*%
%TO.N,/BOUT1_2*%
X196000000Y-118000000D03*
%TD*%
D18*
%TO.P,J7,1,Pin_1*%
%TO.N,+3.3V*%
X106000000Y-80000000D03*
D16*
%TO.P,J7,2,Pin_2*%
%TO.N,/INA-*%
X106000000Y-85000000D03*
%TO.P,J7,3,Pin_3*%
%TO.N,/INA+*%
X106000000Y-90000000D03*
%TO.P,J7,4,Pin_4*%
%TO.N,GND*%
X106000000Y-95000000D03*
%TD*%
D15*
%TO.P,J4,1,Pin_1*%
%TO.N,+3.3V*%
X169000000Y-63000000D03*
D16*
%TO.P,J4,2,Pin_2*%
%TO.N,/SDA*%
X164000000Y-63000000D03*
%TO.P,J4,3,Pin_3*%
%TO.N,/SCL*%
X159000000Y-63000000D03*
%TO.P,J4,4,Pin_4*%
%TO.N,/XSHUT1*%
X154000000Y-63000000D03*
%TO.P,J4,5,Pin_5*%
%TO.N,/XSHUT2*%
X148999999Y-63000000D03*
%TO.P,J4,6,Pin_6*%
%TO.N,/XSHUT3*%
X143999999Y-63000000D03*
%TO.P,J4,7,Pin_7*%
%TO.N,GND*%
X139000001Y-63000000D03*
%TD*%
D19*
%TO.P,J3,1,Pin_1*%
%TO.N,GND*%
X141710000Y-152667500D03*
D16*
%TO.P,J3,2,Pin_2*%
%TO.N,Net-(J3-Pin_2)*%
X146710000Y-152667500D03*
%TD*%
D17*
%TO.P,J1,1,Pin_1*%
%TO.N,/AOUT1*%
X196000000Y-155000000D03*
D16*
%TO.P,J1,2,Pin_2*%
%TO.N,/AOUT2*%
X196000000Y-150000000D03*
%TO.P,J1,3,Pin_3*%
%TO.N,/BOUT2*%
X196000000Y-145000000D03*
%TO.P,J1,4,Pin_4*%
%TO.N,/BOUT1*%
X196000000Y-140000000D03*
%TD*%
D20*
%TO.N,GND*%
X144500000Y-135000000D03*
X123000000Y-85000000D03*
X176000000Y-92500000D03*
X187000000Y-96500000D03*
X168500000Y-118500000D03*
X167500000Y-118500000D03*
X175500000Y-112000000D03*
X152000000Y-148500000D03*
X178000000Y-137000000D03*
X134500000Y-68500000D03*
X132000000Y-71000000D03*
X138000000Y-72000000D03*
X139000000Y-78000000D03*
X144000000Y-78000000D03*
X149000000Y-83000000D03*
X144000000Y-83000000D03*
X149000000Y-88000000D03*
X171500000Y-104500000D03*
X165000000Y-103500000D03*
X166500000Y-104500000D03*
X188000000Y-123000000D03*
X184500000Y-123000000D03*
X188000000Y-121000000D03*
X185000000Y-121000000D03*
X112500000Y-94000000D03*
X152500000Y-80000000D03*
X152000000Y-77500000D03*
X149000000Y-77500000D03*
X153000000Y-75000000D03*
X150000000Y-75000000D03*
X147000000Y-75000000D03*
X151000000Y-72500000D03*
X148000000Y-72500000D03*
X145000000Y-72500000D03*
X149000000Y-70000000D03*
X145500000Y-70000000D03*
X142500000Y-70000000D03*
X187500000Y-105000000D03*
X187500000Y-103000000D03*
X184500000Y-105000000D03*
X184500000Y-103000000D03*
X175000000Y-106500000D03*
X175000000Y-104000000D03*
X173049265Y-119950735D03*
%TO.N,/PWMB*%
X175000000Y-118500000D03*
%TO.N,/DIRB*%
X174000000Y-119500000D03*
%TO.N,/DIRA*%
X173000000Y-121500000D03*
%TO.N,/PWMA*%
X172000000Y-122500000D03*
%TO.N,GND*%
X184000000Y-125000000D03*
X188000000Y-133000000D03*
X188000000Y-135500000D03*
X183500000Y-144000000D03*
X188000000Y-139500000D03*
X183500000Y-139500000D03*
X189500000Y-141500000D03*
X189000000Y-146000000D03*
X186500000Y-143500000D03*
X184000000Y-141500000D03*
X161500000Y-151000000D03*
X155500000Y-140000000D03*
X155000000Y-144500000D03*
X138500000Y-134000000D03*
X134500000Y-132500000D03*
X137000000Y-122000000D03*
X140000000Y-122000000D03*
X143000000Y-123000000D03*
X141000000Y-125000000D03*
X138000000Y-127500000D03*
X151000000Y-127500000D03*
X151000000Y-125000000D03*
X150000000Y-129500000D03*
X144000000Y-127500000D03*
X147500000Y-129500000D03*
X145000000Y-131500000D03*
X142500000Y-131500000D03*
X139500000Y-131000000D03*
X141500000Y-132500000D03*
X148500000Y-138500000D03*
X150500000Y-135000000D03*
X182000000Y-108000000D03*
X181000000Y-109500000D03*
X181000000Y-112000000D03*
X181000000Y-114500000D03*
X179000000Y-112000000D03*
X179000000Y-114500000D03*
X178000000Y-117000000D03*
X176500000Y-117500000D03*
X168500000Y-101000000D03*
X164500000Y-101000000D03*
X170000000Y-99500000D03*
X166500000Y-99500000D03*
X163000000Y-99500000D03*
X179500000Y-98000000D03*
X175000000Y-101000000D03*
X178000000Y-108000000D03*
X176000000Y-108500000D03*
X169000000Y-107000000D03*
X171000000Y-107000000D03*
X170000000Y-111000000D03*
X167000000Y-113500000D03*
X168500000Y-115000000D03*
X166000000Y-115000000D03*
X171000000Y-124000000D03*
X171000000Y-127500000D03*
X171000000Y-130500000D03*
X174000000Y-139500000D03*
X171000000Y-137000000D03*
X171000000Y-134500000D03*
X150500000Y-142500000D03*
X148500000Y-142500000D03*
X150000000Y-141000000D03*
X151500000Y-139500000D03*
X158500000Y-137500000D03*
X161000000Y-134500000D03*
X158000000Y-134500000D03*
X167000000Y-129000000D03*
X164000000Y-131000000D03*
X160000000Y-131000000D03*
X162500000Y-129000000D03*
X164500000Y-127500000D03*
X164000000Y-125000000D03*
X162000000Y-126000000D03*
X160000000Y-127500000D03*
X158000000Y-129500000D03*
X113500000Y-89500000D03*
X113500000Y-87500000D03*
X113500000Y-85500000D03*
X116000000Y-88000000D03*
X116000000Y-90000000D03*
X116000000Y-92000000D03*
X123000000Y-93000000D03*
X120500000Y-92500000D03*
X120500000Y-90500000D03*
X120500000Y-88500000D03*
X126000000Y-87500000D03*
X126000000Y-89000000D03*
X126000000Y-91000000D03*
X120000000Y-99500000D03*
X121000000Y-97500000D03*
X124000000Y-97500000D03*
X127000000Y-97500000D03*
X130500000Y-97500000D03*
X134500000Y-97500000D03*
X137000000Y-95500000D03*
X139500000Y-98500000D03*
X142500000Y-100500000D03*
%TO.N,/VBAT*%
X157500000Y-139000000D03*
X152500000Y-141000000D03*
D21*
%TO.N,+3.3V*%
X173500000Y-100000000D03*
X157000000Y-123000000D03*
X164000000Y-122500000D03*
D20*
X118500000Y-92500000D03*
X118500000Y-97500000D03*
%TO.N,/VBAT_SYS*%
X181000000Y-97000000D03*
D21*
X180000000Y-117000000D03*
X179000000Y-127500000D03*
D20*
%TO.N,/PWMA*%
X172000000Y-125500000D03*
%TO.N,/DIRA*%
X173000000Y-125500000D03*
%TO.N,/DIRB*%
X174000000Y-125500000D03*
%TO.N,/PWMB*%
X175000000Y-125500000D03*
%TO.N,/PWMA*%
X171500000Y-109090000D03*
X171500000Y-110500000D03*
%TO.N,/DIRA*%
X172000000Y-106500000D03*
X172399994Y-110500000D03*
%TO.N,/DIRB*%
X173000000Y-104000000D03*
X173199997Y-110500000D03*
%TO.N,/PWMB*%
X174000000Y-110500000D03*
X172500000Y-102400000D03*
D21*
%TO.N,/VBAT_SYS*%
X144000000Y-133000000D03*
%TD*%
D22*
%TO.N,/VBAT*%
X154500000Y-139000000D02*
X152500000Y-141000000D01*
X157500000Y-139000000D02*
X154500000Y-139000000D01*
D23*
%TO.N,+3.3V*%
X173484372Y-100000000D02*
X173500000Y-100000000D01*
X164000000Y-109484372D02*
X173484372Y-100000000D01*
X164000000Y-122500000D02*
X164000000Y-109484372D01*
X163500000Y-123000000D02*
X164000000Y-122500000D01*
X157000000Y-123000000D02*
X163500000Y-123000000D01*
X118500000Y-97500000D02*
X118500000Y-92500000D01*
%TO.N,/VBAT_SYS*%
X180000000Y-99500000D02*
X180000000Y-117000000D01*
X181000000Y-98500000D02*
X180000000Y-99500000D01*
X181000000Y-97000000D02*
X181000000Y-98500000D01*
X179000000Y-118000000D02*
X180000000Y-117000000D01*
X179000000Y-127500000D02*
X179000000Y-118000000D01*
X173500000Y-133000000D02*
X179000000Y-127500000D01*
X160500000Y-133000000D02*
X173500000Y-133000000D01*
D22*
%TO.N,/PWMA*%
X171500000Y-110500000D02*
X171500000Y-109090000D01*
%TO.N,/DIRA*%
X172399994Y-110500000D02*
X172399994Y-106899994D01*
X172399994Y-106899994D02*
X172000000Y-106500000D01*
%TO.N,/DIRB*%
X173199997Y-104199997D02*
X173000000Y-104000000D01*
X173199997Y-110500000D02*
X173199997Y-104199997D01*
%TO.N,/PWMB*%
X174000000Y-103900000D02*
X172500000Y-102400000D01*
X174000000Y-110500000D02*
X174000000Y-103900000D01*
D23*
%TO.N,/VBAT_SYS*%
X144000000Y-133000000D02*
X160500000Y-133000000D01*
D22*
%TO.N,/PWMA*%
X172000000Y-125500000D02*
X172000000Y-122500000D01*
%TO.N,/DIRA*%
X173000000Y-125500000D02*
X173000000Y-121500000D01*
%TO.N,/DIRB*%
X174000000Y-125500000D02*
X174000000Y-119500000D01*
%TO.N,/PWMB*%
X175000000Y-125500000D02*
X175000000Y-118500000D01*
%TD*%
%TA.AperFunction,Conductor*%
%TO.N,GND*%
G36*
X200442539Y-58520185D02*
G01*
X200488294Y-58572989D01*
X200499500Y-58624500D01*
X200499500Y-157375500D01*
X200479815Y-157442539D01*
X200427011Y-157488294D01*
X200375500Y-157499500D01*
X101624500Y-157499500D01*
X101557461Y-157479815D01*
X101511706Y-157427011D01*
X101500500Y-157375500D01*
X101500500Y-152881995D01*
X104199500Y-152881995D01*
X104199500Y-153118004D01*
X104199501Y-153118020D01*
X104227471Y-153330477D01*
X104230307Y-153352014D01*
X104238336Y-153381979D01*
X104291394Y-153579993D01*
X104381714Y-153798045D01*
X104381719Y-153798056D01*
X104440572Y-153899991D01*
X104499727Y-154002450D01*
X104499729Y-154002453D01*
X104499730Y-154002454D01*
X104643406Y-154189697D01*
X104643412Y-154189704D01*
X104810295Y-154356587D01*
X104810302Y-154356593D01*
X104835731Y-154376105D01*
X104997550Y-154500273D01*
X105120926Y-154571504D01*
X105201943Y-154618280D01*
X105201948Y-154618282D01*
X105201951Y-154618284D01*
X105420007Y-154708606D01*
X105647986Y-154769693D01*
X105881989Y-154800500D01*
X105881996Y-154800500D01*
X106118004Y-154800500D01*
X106118011Y-154800500D01*
X106352014Y-154769693D01*
X106579993Y-154708606D01*
X106798049Y-154618284D01*
X106879074Y-154571504D01*
X150680000Y-154571504D01*
X150680000Y-154820000D01*
X151380000Y-154820000D01*
X151380000Y-155320000D01*
X150680000Y-155320000D01*
X150680000Y-155568495D01*
X150718427Y-155761681D01*
X150718430Y-155761693D01*
X150793807Y-155943671D01*
X150793814Y-155943684D01*
X150903248Y-156107462D01*
X150903251Y-156107466D01*
X151042533Y-156246748D01*
X151042537Y-156246751D01*
X151206315Y-156356185D01*
X151206328Y-156356192D01*
X151388308Y-156431569D01*
X151430000Y-156439862D01*
X151430000Y-155636988D01*
X151439940Y-155654205D01*
X151495795Y-155710060D01*
X151564204Y-155749556D01*
X151640504Y-155770000D01*
X151719496Y-155770000D01*
X151795796Y-155749556D01*
X151864205Y-155710060D01*
X151920060Y-155654205D01*
X151930000Y-155636988D01*
X151930000Y-156439862D01*
X151971690Y-156431569D01*
X151971692Y-156431569D01*
X152153671Y-156356192D01*
X152153684Y-156356185D01*
X152317462Y-156246751D01*
X152317466Y-156246748D01*
X152456748Y-156107466D01*
X152456751Y-156107462D01*
X152566185Y-155943684D01*
X152566192Y-155943671D01*
X152641569Y-155761693D01*
X152641572Y-155761681D01*
X152679999Y-155568495D01*
X152680000Y-155568492D01*
X152680000Y-155320000D01*
X151980000Y-155320000D01*
X151980000Y-154820000D01*
X152680000Y-154820000D01*
X152680000Y-154571508D01*
X152679999Y-154571504D01*
X159320000Y-154571504D01*
X159320000Y-154820000D01*
X160020000Y-154820000D01*
X160020000Y-155320000D01*
X159320000Y-155320000D01*
X159320000Y-155568495D01*
X159358427Y-155761681D01*
X159358430Y-155761693D01*
X159433807Y-155943671D01*
X159433814Y-155943684D01*
X159543248Y-156107462D01*
X159543251Y-156107466D01*
X159682533Y-156246748D01*
X159682537Y-156246751D01*
X159846315Y-156356185D01*
X159846328Y-156356192D01*
X160028308Y-156431569D01*
X160070000Y-156439862D01*
X160070000Y-155636988D01*
X160079940Y-155654205D01*
X160135795Y-155710060D01*
X160204204Y-155749556D01*
X160280504Y-155770000D01*
X160359496Y-155770000D01*
X160435796Y-155749556D01*
X160504205Y-155710060D01*
X160560060Y-155654205D01*
X160570000Y-155636988D01*
X160570000Y-156439862D01*
X160611690Y-156431569D01*
X160611692Y-156431569D01*
X160793671Y-156356192D01*
X160793684Y-156356185D01*
X160957462Y-156246751D01*
X160957466Y-156246748D01*
X161096748Y-156107466D01*
X161096751Y-156107462D01*
X161206185Y-155943684D01*
X161206192Y-155943671D01*
X161281569Y-155761693D01*
X161281572Y-155761681D01*
X161319999Y-155568495D01*
X161320000Y-155568492D01*
X161320000Y-155320000D01*
X160620000Y-155320000D01*
X160620000Y-154820000D01*
X161320000Y-154820000D01*
X161320000Y-154571508D01*
X161319999Y-154571504D01*
X161281572Y-154378318D01*
X161281569Y-154378306D01*
X161206192Y-154196328D01*
X161206185Y-154196315D01*
X161096751Y-154032537D01*
X161096748Y-154032533D01*
X160957466Y-153893251D01*
X160957462Y-153893248D01*
X160793684Y-153783814D01*
X160793671Y-153783807D01*
X160611691Y-153708429D01*
X160611683Y-153708427D01*
X160570000Y-153700135D01*
X160570000Y-154503011D01*
X160560060Y-154485795D01*
X160504205Y-154429940D01*
X160435796Y-154390444D01*
X160359496Y-154370000D01*
X160280504Y-154370000D01*
X160204204Y-154390444D01*
X160135795Y-154429940D01*
X160079940Y-154485795D01*
X160070000Y-154503011D01*
X160070000Y-153700136D01*
X160069999Y-153700135D01*
X160028316Y-153708427D01*
X160028308Y-153708429D01*
X159846328Y-153783807D01*
X159846315Y-153783814D01*
X159682537Y-153893248D01*
X159682533Y-153893251D01*
X159543251Y-154032533D01*
X159543248Y-154032537D01*
X159433814Y-154196315D01*
X159433807Y-154196328D01*
X159358430Y-154378306D01*
X159358427Y-154378318D01*
X159320000Y-154571504D01*
X152679999Y-154571504D01*
X152641572Y-154378318D01*
X152641569Y-154378306D01*
X152566192Y-154196328D01*
X152566185Y-154196315D01*
X152456751Y-154032537D01*
X152456748Y-154032533D01*
X152317466Y-153893251D01*
X152317462Y-153893248D01*
X152153684Y-153783814D01*
X152153671Y-153783807D01*
X151971691Y-153708429D01*
X151971683Y-153708427D01*
X151930000Y-153700135D01*
X151930000Y-154503011D01*
X151920060Y-154485795D01*
X151864205Y-154429940D01*
X151795796Y-154390444D01*
X151719496Y-154370000D01*
X151640504Y-154370000D01*
X151564204Y-154390444D01*
X151495795Y-154429940D01*
X151439940Y-154485795D01*
X151430000Y-154503011D01*
X151430000Y-153700136D01*
X151429999Y-153700135D01*
X151388316Y-153708427D01*
X151388308Y-153708429D01*
X151206328Y-153783807D01*
X151206315Y-153783814D01*
X151042537Y-153893248D01*
X151042533Y-153893251D01*
X150903251Y-154032533D01*
X150903248Y-154032537D01*
X150793814Y-154196315D01*
X150793807Y-154196328D01*
X150718430Y-154378306D01*
X150718427Y-154378318D01*
X150680000Y-154571504D01*
X106879074Y-154571504D01*
X107002450Y-154500273D01*
X107189699Y-154356592D01*
X107356592Y-154189699D01*
X107500273Y-154002450D01*
X107618284Y-153798049D01*
X107708606Y-153579993D01*
X107769693Y-153352014D01*
X107800500Y-153118011D01*
X107800500Y-152881989D01*
X107769693Y-152647986D01*
X107708606Y-152420007D01*
X107618284Y-152201951D01*
X107618282Y-152201948D01*
X107618280Y-152201943D01*
X107554502Y-152091478D01*
X107500273Y-151997550D01*
X107411389Y-151881714D01*
X107356593Y-151810302D01*
X107356587Y-151810295D01*
X107189704Y-151643412D01*
X107189697Y-151643406D01*
X107090791Y-151567513D01*
X139910000Y-151567513D01*
X139910000Y-152417500D01*
X141109999Y-152417500D01*
X141084979Y-152477902D01*
X141060000Y-152603481D01*
X141060000Y-152731519D01*
X141084979Y-152857098D01*
X141109999Y-152917500D01*
X139910001Y-152917500D01*
X139910001Y-153767486D01*
X139920494Y-153870197D01*
X139975641Y-154036619D01*
X139975643Y-154036624D01*
X140067684Y-154185845D01*
X140191654Y-154309815D01*
X140340875Y-154401856D01*
X140340880Y-154401858D01*
X140507302Y-154457005D01*
X140507309Y-154457006D01*
X140610019Y-154467499D01*
X141459999Y-154467499D01*
X141460000Y-154467498D01*
X141460000Y-153267501D01*
X141520402Y-153292521D01*
X141645981Y-153317500D01*
X141774019Y-153317500D01*
X141899598Y-153292521D01*
X141960000Y-153267501D01*
X141960000Y-154467499D01*
X142809972Y-154467499D01*
X142809986Y-154467498D01*
X142912697Y-154457005D01*
X143079119Y-154401858D01*
X143079124Y-154401856D01*
X143228345Y-154309815D01*
X143352315Y-154185845D01*
X143444356Y-154036624D01*
X143444358Y-154036619D01*
X143499505Y-153870197D01*
X143499506Y-153870190D01*
X143509999Y-153767486D01*
X143510000Y-153767473D01*
X143510000Y-152917500D01*
X142310001Y-152917500D01*
X142335021Y-152857098D01*
X142360000Y-152731519D01*
X142360000Y-152603481D01*
X142349262Y-152549495D01*
X144909500Y-152549495D01*
X144909500Y-152785504D01*
X144909501Y-152785520D01*
X144940306Y-153019510D01*
X145001394Y-153247493D01*
X145091714Y-153465545D01*
X145091719Y-153465556D01*
X145157790Y-153579993D01*
X145209727Y-153669950D01*
X145209729Y-153669953D01*
X145209730Y-153669954D01*
X145353406Y-153857197D01*
X145353412Y-153857204D01*
X145520295Y-154024087D01*
X145520302Y-154024093D01*
X145536633Y-154036624D01*
X145707550Y-154167773D01*
X145838918Y-154243618D01*
X145911943Y-154285780D01*
X145911948Y-154285782D01*
X145911951Y-154285784D01*
X146130007Y-154376106D01*
X146357986Y-154437193D01*
X146591989Y-154468000D01*
X146591996Y-154468000D01*
X146828004Y-154468000D01*
X146828011Y-154468000D01*
X147062014Y-154437193D01*
X147289993Y-154376106D01*
X147508049Y-154285784D01*
X147712450Y-154167773D01*
X147899699Y-154024092D01*
X148066592Y-153857199D01*
X148210273Y-153669950D01*
X148328284Y-153465549D01*
X148362893Y-153381995D01*
X173199500Y-153381995D01*
X173199500Y-153618004D01*
X173199501Y-153618020D01*
X173223201Y-153798045D01*
X173230307Y-153852014D01*
X173243160Y-153899981D01*
X173291394Y-154079993D01*
X173381714Y-154298045D01*
X173381719Y-154298056D01*
X173426782Y-154376106D01*
X173499727Y-154502450D01*
X173499729Y-154502453D01*
X173499730Y-154502454D01*
X173643406Y-154689697D01*
X173643412Y-154689704D01*
X173810295Y-154856587D01*
X173810301Y-154856592D01*
X173997550Y-155000273D01*
X174128918Y-155076118D01*
X174201943Y-155118280D01*
X174201948Y-155118282D01*
X174201951Y-155118284D01*
X174420007Y-155208606D01*
X174647986Y-155269693D01*
X174881989Y-155300500D01*
X174881996Y-155300500D01*
X175118004Y-155300500D01*
X175118011Y-155300500D01*
X175352014Y-155269693D01*
X175579993Y-155208606D01*
X175798049Y-155118284D01*
X176002450Y-155000273D01*
X176189699Y-154856592D01*
X176356592Y-154689699D01*
X176500273Y-154502450D01*
X176618284Y-154298049D01*
X176708606Y-154079993D01*
X176756840Y-153899983D01*
X194199500Y-153899983D01*
X194199500Y-156100001D01*
X194199501Y-156100018D01*
X194210000Y-156202796D01*
X194210001Y-156202799D01*
X194260829Y-156356185D01*
X194265186Y-156369334D01*
X194357288Y-156518656D01*
X194481344Y-156642712D01*
X194630666Y-156734814D01*
X194797203Y-156789999D01*
X194899991Y-156800500D01*
X197100008Y-156800499D01*
X197202797Y-156789999D01*
X197369334Y-156734814D01*
X197518656Y-156642712D01*
X197642712Y-156518656D01*
X197734814Y-156369334D01*
X197789999Y-156202797D01*
X197800500Y-156100009D01*
X197800499Y-153899992D01*
X197799810Y-153893251D01*
X197789999Y-153797203D01*
X197789998Y-153797200D01*
X197757834Y-153700136D01*
X197734814Y-153630666D01*
X197642712Y-153481344D01*
X197518656Y-153357288D01*
X197369334Y-153265186D01*
X197202797Y-153210001D01*
X197202795Y-153210000D01*
X197100010Y-153199500D01*
X194899998Y-153199500D01*
X194899981Y-153199501D01*
X194797203Y-153210000D01*
X194797200Y-153210001D01*
X194630668Y-153265185D01*
X194630663Y-153265187D01*
X194481342Y-153357289D01*
X194357289Y-153481342D01*
X194265187Y-153630663D01*
X194265185Y-153630668D01*
X194239418Y-153708429D01*
X194210001Y-153797203D01*
X194210001Y-153797204D01*
X194210000Y-153797204D01*
X194199500Y-153899983D01*
X176756840Y-153899983D01*
X176769693Y-153852014D01*
X176800500Y-153618011D01*
X176800500Y-153381989D01*
X176769693Y-153147986D01*
X176708606Y-152920007D01*
X176618284Y-152701951D01*
X176618282Y-152701948D01*
X176618280Y-152701943D01*
X176530263Y-152549495D01*
X176500273Y-152497550D01*
X176356592Y-152310301D01*
X176356587Y-152310295D01*
X176189704Y-152143412D01*
X176189697Y-152143406D01*
X176002454Y-151999730D01*
X176002453Y-151999729D01*
X176002450Y-151999727D01*
X175920957Y-151952677D01*
X175798056Y-151881719D01*
X175798045Y-151881714D01*
X175579993Y-151791394D01*
X175499004Y-151769693D01*
X175352014Y-151730307D01*
X175352013Y-151730306D01*
X175352010Y-151730306D01*
X175118020Y-151699501D01*
X175118017Y-151699500D01*
X175118011Y-151699500D01*
X174881989Y-151699500D01*
X174881983Y-151699500D01*
X174881979Y-151699501D01*
X174647989Y-151730306D01*
X174420006Y-151791394D01*
X174201954Y-151881714D01*
X174201943Y-151881719D01*
X173997545Y-151999730D01*
X173810302Y-152143406D01*
X173810295Y-152143412D01*
X173643412Y-152310295D01*
X173643406Y-152310302D01*
X173499730Y-152497545D01*
X173381719Y-152701943D01*
X173381714Y-152701954D01*
X173291394Y-152920006D01*
X173230306Y-153147989D01*
X173199501Y-153381979D01*
X173199500Y-153381995D01*
X148362893Y-153381995D01*
X148418606Y-153247493D01*
X148479693Y-153019514D01*
X148510500Y-152785511D01*
X148510500Y-152549489D01*
X148479693Y-152315486D01*
X148418606Y-152087507D01*
X148328284Y-151869451D01*
X148328282Y-151869448D01*
X148328280Y-151869443D01*
X148276254Y-151779333D01*
X148210273Y-151665050D01*
X148113162Y-151538492D01*
X148066593Y-151477802D01*
X148066587Y-151477795D01*
X147899704Y-151310912D01*
X147899697Y-151310906D01*
X147754509Y-151199500D01*
X147712450Y-151167227D01*
X147681147Y-151149154D01*
X147508056Y-151049219D01*
X147508045Y-151049214D01*
X147289993Y-150958894D01*
X147071366Y-150900313D01*
X147062014Y-150897807D01*
X147062013Y-150897806D01*
X147062010Y-150897806D01*
X146828020Y-150867001D01*
X146828017Y-150867000D01*
X146828011Y-150867000D01*
X146591989Y-150867000D01*
X146591983Y-150867000D01*
X146591979Y-150867001D01*
X146357989Y-150897806D01*
X146130006Y-150958894D01*
X145911954Y-151049214D01*
X145911943Y-151049219D01*
X145707545Y-151167230D01*
X145520302Y-151310906D01*
X145520295Y-151310912D01*
X145353412Y-151477795D01*
X145353406Y-151477802D01*
X145209730Y-151665045D01*
X145091719Y-151869443D01*
X145091714Y-151869454D01*
X145001394Y-152087506D01*
X144940306Y-152315489D01*
X144909501Y-152549479D01*
X144909500Y-152549495D01*
X142349262Y-152549495D01*
X142335021Y-152477902D01*
X142310001Y-152417500D01*
X143509999Y-152417500D01*
X143509999Y-151567528D01*
X143509998Y-151567513D01*
X143499505Y-151464802D01*
X143444358Y-151298380D01*
X143444356Y-151298375D01*
X143352315Y-151149154D01*
X143228345Y-151025184D01*
X143079124Y-150933143D01*
X143079119Y-150933141D01*
X142912697Y-150877994D01*
X142912690Y-150877993D01*
X142809986Y-150867500D01*
X141960000Y-150867500D01*
X141960000Y-152067498D01*
X141899598Y-152042479D01*
X141774019Y-152017500D01*
X141645981Y-152017500D01*
X141520402Y-152042479D01*
X141460000Y-152067498D01*
X141460000Y-150867500D01*
X140610028Y-150867500D01*
X140610012Y-150867501D01*
X140507302Y-150877994D01*
X140340880Y-150933141D01*
X140340875Y-150933143D01*
X140191654Y-151025184D01*
X140067684Y-151149154D01*
X139975643Y-151298375D01*
X139975641Y-151298380D01*
X139920494Y-151464802D01*
X139920493Y-151464809D01*
X139910000Y-151567513D01*
X107090791Y-151567513D01*
X107002454Y-151499730D01*
X107002453Y-151499729D01*
X107002450Y-151499727D01*
X106920957Y-151452677D01*
X106798056Y-151381719D01*
X106798045Y-151381714D01*
X106579993Y-151291394D01*
X106352010Y-151230306D01*
X106118020Y-151199501D01*
X106118017Y-151199500D01*
X106118011Y-151199500D01*
X105881989Y-151199500D01*
X105881983Y-151199500D01*
X105881979Y-151199501D01*
X105647989Y-151230306D01*
X105420006Y-151291394D01*
X105201954Y-151381714D01*
X105201943Y-151381719D01*
X104997545Y-151499730D01*
X104810302Y-151643406D01*
X104810295Y-151643412D01*
X104643412Y-151810295D01*
X104643406Y-151810302D01*
X104499730Y-151997545D01*
X104381719Y-152201943D01*
X104381714Y-152201954D01*
X104291394Y-152420006D01*
X104230306Y-152647989D01*
X104199501Y-152881979D01*
X104199500Y-152881995D01*
X101500500Y-152881995D01*
X101500500Y-150241504D01*
X150680000Y-150241504D01*
X150680000Y-150640000D01*
X151380000Y-150640000D01*
X151380000Y-151140000D01*
X150680000Y-151140000D01*
X150680000Y-151538495D01*
X150718427Y-151731681D01*
X150718430Y-151731693D01*
X150793807Y-151913671D01*
X150793814Y-151913684D01*
X150903248Y-152077462D01*
X150903251Y-152077466D01*
X151042533Y-152216748D01*
X151042537Y-152216751D01*
X151206315Y-152326185D01*
X151206328Y-152326192D01*
X151388308Y-152401569D01*
X151430000Y-152409862D01*
X151430000Y-151606988D01*
X151439940Y-151624205D01*
X151495795Y-151680060D01*
X151564204Y-151719556D01*
X151640504Y-151740000D01*
X151719496Y-151740000D01*
X151795796Y-151719556D01*
X151864205Y-151680060D01*
X151920060Y-151624205D01*
X151930000Y-151606988D01*
X151930000Y-152409862D01*
X151971690Y-152401569D01*
X151971692Y-152401569D01*
X152153671Y-152326192D01*
X152153684Y-152326185D01*
X152317462Y-152216751D01*
X152317466Y-152216748D01*
X152456748Y-152077466D01*
X152456751Y-152077462D01*
X152566185Y-151913684D01*
X152566190Y-151913674D01*
X152590160Y-151855804D01*
X152634000Y-151801399D01*
X152700293Y-151779333D01*
X152767993Y-151796611D01*
X152780375Y-151806229D01*
X152780890Y-151805559D01*
X152787333Y-151810503D01*
X152787335Y-151810505D01*
X152907164Y-151879688D01*
X153040817Y-151915500D01*
X153040819Y-151915500D01*
X153179181Y-151915500D01*
X153179183Y-151915500D01*
X153312836Y-151879688D01*
X153432665Y-151810505D01*
X153530505Y-151712665D01*
X153599688Y-151592836D01*
X153635500Y-151459183D01*
X153635500Y-151320817D01*
X158364500Y-151320817D01*
X158364500Y-151459183D01*
X158385752Y-151538495D01*
X158400312Y-151592835D01*
X158400313Y-151592838D01*
X158469492Y-151712661D01*
X158469494Y-151712664D01*
X158469495Y-151712665D01*
X158567335Y-151810505D01*
X158687164Y-151879688D01*
X158820817Y-151915500D01*
X158820819Y-151915500D01*
X158959181Y-151915500D01*
X158959183Y-151915500D01*
X159092836Y-151879688D01*
X159212665Y-151810505D01*
X159212669Y-151810500D01*
X159219110Y-151805559D01*
X159221133Y-151808196D01*
X159268830Y-151782107D01*
X159338525Y-151787040D01*
X159394489Y-151828870D01*
X159409838Y-151855802D01*
X159433807Y-151913672D01*
X159433814Y-151913684D01*
X159543248Y-152077462D01*
X159543251Y-152077466D01*
X159682533Y-152216748D01*
X159682537Y-152216751D01*
X159846315Y-152326185D01*
X159846328Y-152326192D01*
X160028308Y-152401569D01*
X160070000Y-152409862D01*
X160070000Y-151606988D01*
X160079940Y-151624205D01*
X160135795Y-151680060D01*
X160204204Y-151719556D01*
X160280504Y-151740000D01*
X160359496Y-151740000D01*
X160435796Y-151719556D01*
X160504205Y-151680060D01*
X160560060Y-151624205D01*
X160570000Y-151606988D01*
X160570000Y-152409862D01*
X160611690Y-152401569D01*
X160611692Y-152401569D01*
X160793671Y-152326192D01*
X160793684Y-152326185D01*
X160957462Y-152216751D01*
X160957466Y-152216748D01*
X161096748Y-152077466D01*
X161096751Y-152077462D01*
X161206185Y-151913684D01*
X161206192Y-151913671D01*
X161281569Y-151731693D01*
X161281572Y-151731681D01*
X161319999Y-151538495D01*
X161320000Y-151538492D01*
X161320000Y-151140000D01*
X160620000Y-151140000D01*
X160620000Y-150640000D01*
X161320000Y-150640000D01*
X161320000Y-150241508D01*
X161319999Y-150241504D01*
X161281572Y-150048318D01*
X161281569Y-150048306D01*
X161230653Y-149925382D01*
X161212681Y-149881995D01*
X194199500Y-149881995D01*
X194199500Y-150118004D01*
X194199501Y-150118020D01*
X194230306Y-150352010D01*
X194291394Y-150579993D01*
X194381714Y-150798045D01*
X194381719Y-150798056D01*
X194440758Y-150900313D01*
X194499727Y-151002450D01*
X194499729Y-151002453D01*
X194499730Y-151002454D01*
X194643406Y-151189697D01*
X194643412Y-151189704D01*
X194810295Y-151356587D01*
X194810302Y-151356593D01*
X194843043Y-151381716D01*
X194997550Y-151500273D01*
X195093719Y-151555796D01*
X195201943Y-151618280D01*
X195201948Y-151618282D01*
X195201951Y-151618284D01*
X195420007Y-151708606D01*
X195647986Y-151769693D01*
X195881989Y-151800500D01*
X195881996Y-151800500D01*
X196118004Y-151800500D01*
X196118011Y-151800500D01*
X196352014Y-151769693D01*
X196579993Y-151708606D01*
X196798049Y-151618284D01*
X197002450Y-151500273D01*
X197189699Y-151356592D01*
X197356592Y-151189699D01*
X197500273Y-151002450D01*
X197618284Y-150798049D01*
X197708606Y-150579993D01*
X197769693Y-150352014D01*
X197800500Y-150118011D01*
X197800500Y-149881989D01*
X197769693Y-149647986D01*
X197708606Y-149420007D01*
X197618284Y-149201951D01*
X197618282Y-149201948D01*
X197618280Y-149201943D01*
X197576118Y-149128918D01*
X197500273Y-148997550D01*
X197356592Y-148810301D01*
X197356587Y-148810295D01*
X197189704Y-148643412D01*
X197189697Y-148643406D01*
X197002454Y-148499730D01*
X197002453Y-148499729D01*
X197002450Y-148499727D01*
X196920957Y-148452677D01*
X196798056Y-148381719D01*
X196798045Y-148381714D01*
X196579993Y-148291394D01*
X196352010Y-148230306D01*
X196118020Y-148199501D01*
X196118017Y-148199500D01*
X196118011Y-148199500D01*
X195881989Y-148199500D01*
X195881983Y-148199500D01*
X195881979Y-148199501D01*
X195647989Y-148230306D01*
X195420006Y-148291394D01*
X195201954Y-148381714D01*
X195201943Y-148381719D01*
X194997545Y-148499730D01*
X194810302Y-148643406D01*
X194810295Y-148643412D01*
X194643412Y-148810295D01*
X194643406Y-148810302D01*
X194499730Y-148997545D01*
X194381719Y-149201943D01*
X194381714Y-149201954D01*
X194291394Y-149420006D01*
X194230306Y-149647989D01*
X194199501Y-149881979D01*
X194199500Y-149881995D01*
X161212681Y-149881995D01*
X161206190Y-149866324D01*
X161206185Y-149866315D01*
X161096751Y-149702537D01*
X161096748Y-149702533D01*
X160957466Y-149563251D01*
X160957462Y-149563248D01*
X160793684Y-149453814D01*
X160793671Y-149453807D01*
X160611691Y-149378429D01*
X160611683Y-149378427D01*
X160570000Y-149370135D01*
X160570000Y-150173011D01*
X160560060Y-150155795D01*
X160504205Y-150099940D01*
X160435796Y-150060444D01*
X160359496Y-150040000D01*
X160280504Y-150040000D01*
X160204204Y-150060444D01*
X160135795Y-150099940D01*
X160079940Y-150155795D01*
X160070000Y-150173011D01*
X160070000Y-149370136D01*
X160069999Y-149370135D01*
X160028316Y-149378427D01*
X160028308Y-149378429D01*
X159846328Y-149453807D01*
X159846315Y-149453814D01*
X159682537Y-149563248D01*
X159682533Y-149563251D01*
X159543251Y-149702533D01*
X159543248Y-149702537D01*
X159433814Y-149866315D01*
X159433807Y-149866328D01*
X159358430Y-150048306D01*
X159358427Y-150048318D01*
X159320000Y-150241504D01*
X159320000Y-150640000D01*
X160020000Y-150640000D01*
X160020000Y-151140000D01*
X159424050Y-151140000D01*
X159357011Y-151120315D01*
X159316663Y-151078001D01*
X159310505Y-151067335D01*
X159212666Y-150969496D01*
X159212661Y-150969492D01*
X159092838Y-150900313D01*
X159092837Y-150900312D01*
X159092836Y-150900312D01*
X158959183Y-150864500D01*
X158820817Y-150864500D01*
X158687164Y-150900312D01*
X158687161Y-150900313D01*
X158567338Y-150969492D01*
X158567333Y-150969496D01*
X158469496Y-151067333D01*
X158469492Y-151067338D01*
X158400313Y-151187161D01*
X158400312Y-151187164D01*
X158364500Y-151320817D01*
X153635500Y-151320817D01*
X153599688Y-151187164D01*
X153530505Y-151067335D01*
X153432665Y-150969495D01*
X153432664Y-150969494D01*
X153432661Y-150969492D01*
X153312838Y-150900313D01*
X153312837Y-150900312D01*
X153312836Y-150900312D01*
X153179183Y-150864500D01*
X153040817Y-150864500D01*
X152907164Y-150900312D01*
X152907161Y-150900313D01*
X152787338Y-150969492D01*
X152787333Y-150969496D01*
X152689494Y-151067335D01*
X152683337Y-151078001D01*
X152632769Y-151126216D01*
X152575950Y-151140000D01*
X151980000Y-151140000D01*
X151980000Y-150640000D01*
X152680000Y-150640000D01*
X152680000Y-150241508D01*
X152679999Y-150241504D01*
X152641572Y-150048318D01*
X152641569Y-150048306D01*
X152566192Y-149866328D01*
X152566185Y-149866315D01*
X152456751Y-149702537D01*
X152456748Y-149702533D01*
X152317466Y-149563251D01*
X152317462Y-149563248D01*
X152153684Y-149453814D01*
X152153671Y-149453807D01*
X151971691Y-149378429D01*
X151971683Y-149378427D01*
X151930000Y-149370135D01*
X151930000Y-150173011D01*
X151920060Y-150155795D01*
X151864205Y-150099940D01*
X151795796Y-150060444D01*
X151719496Y-150040000D01*
X151640504Y-150040000D01*
X151564204Y-150060444D01*
X151495795Y-150099940D01*
X151439940Y-150155795D01*
X151430000Y-150173011D01*
X151430000Y-149370136D01*
X151429999Y-149370135D01*
X151388316Y-149378427D01*
X151388308Y-149378429D01*
X151206328Y-149453807D01*
X151206315Y-149453814D01*
X151042537Y-149563248D01*
X151042533Y-149563251D01*
X150903251Y-149702533D01*
X150903248Y-149702537D01*
X150793814Y-149866315D01*
X150793807Y-149866328D01*
X150718430Y-150048306D01*
X150718427Y-150048318D01*
X150680000Y-150241504D01*
X101500500Y-150241504D01*
X101500500Y-144881995D01*
X194199500Y-144881995D01*
X194199500Y-145118004D01*
X194199501Y-145118020D01*
X194230306Y-145352010D01*
X194291394Y-145579993D01*
X194381714Y-145798045D01*
X194381719Y-145798056D01*
X194452677Y-145920957D01*
X194499727Y-146002450D01*
X194499729Y-146002453D01*
X194499730Y-146002454D01*
X194643406Y-146189697D01*
X194643412Y-146189704D01*
X194810295Y-146356587D01*
X194810301Y-146356592D01*
X194997550Y-146500273D01*
X195128918Y-146576118D01*
X195201943Y-146618280D01*
X195201948Y-146618282D01*
X195201951Y-146618284D01*
X195420007Y-146708606D01*
X195647986Y-146769693D01*
X195881989Y-146800500D01*
X195881996Y-146800500D01*
X196118004Y-146800500D01*
X196118011Y-146800500D01*
X196352014Y-146769693D01*
X196579993Y-146708606D01*
X196798049Y-146618284D01*
X197002450Y-146500273D01*
X197189699Y-146356592D01*
X197356592Y-146189699D01*
X197500273Y-146002450D01*
X197618284Y-145798049D01*
X197708606Y-145579993D01*
X197769693Y-145352014D01*
X197800500Y-145118011D01*
X197800500Y-144881989D01*
X197769693Y-144647986D01*
X197708606Y-144420007D01*
X197618284Y-144201951D01*
X197618282Y-144201948D01*
X197618280Y-144201943D01*
X197576118Y-144128918D01*
X197500273Y-143997550D01*
X197356592Y-143810301D01*
X197356587Y-143810295D01*
X197189704Y-143643412D01*
X197189697Y-143643406D01*
X197002454Y-143499730D01*
X197002453Y-143499729D01*
X197002450Y-143499727D01*
X196920957Y-143452677D01*
X196798056Y-143381719D01*
X196798045Y-143381714D01*
X196579993Y-143291394D01*
X196352010Y-143230306D01*
X196118020Y-143199501D01*
X196118017Y-143199500D01*
X196118011Y-143199500D01*
X195881989Y-143199500D01*
X195881983Y-143199500D01*
X195881979Y-143199501D01*
X195647989Y-143230306D01*
X195420006Y-143291394D01*
X195201954Y-143381714D01*
X195201943Y-143381719D01*
X194997545Y-143499730D01*
X194810302Y-143643406D01*
X194810295Y-143643412D01*
X194643412Y-143810295D01*
X194643406Y-143810302D01*
X194499730Y-143997545D01*
X194381719Y-144201943D01*
X194381714Y-144201954D01*
X194291394Y-144420006D01*
X194230306Y-144647989D01*
X194199501Y-144881979D01*
X194199500Y-144881995D01*
X101500500Y-144881995D01*
X101500500Y-140597824D01*
X143681682Y-140597824D01*
X143681682Y-140773259D01*
X143681683Y-140773270D01*
X143722142Y-140943974D01*
X143789527Y-141078150D01*
X143800880Y-141100757D01*
X143866137Y-141180864D01*
X144714678Y-142029403D01*
X144794785Y-142094662D01*
X144951567Y-142173399D01*
X145122279Y-142213860D01*
X145122282Y-142213860D01*
X145297718Y-142213860D01*
X145297721Y-142213860D01*
X145468433Y-142173399D01*
X145625215Y-142094662D01*
X145705322Y-142029405D01*
X146553861Y-141180864D01*
X146619120Y-141100757D01*
X146697857Y-140943975D01*
X146703266Y-140921153D01*
X151699500Y-140921153D01*
X151699500Y-141078846D01*
X151730261Y-141233489D01*
X151730264Y-141233501D01*
X151790602Y-141379172D01*
X151790609Y-141379185D01*
X151878210Y-141510288D01*
X151878213Y-141510292D01*
X151989707Y-141621786D01*
X151989711Y-141621789D01*
X152120814Y-141709390D01*
X152120827Y-141709397D01*
X152266397Y-141769693D01*
X152266503Y-141769737D01*
X152421148Y-141800498D01*
X152421153Y-141800499D01*
X152421156Y-141800500D01*
X152421158Y-141800500D01*
X152578844Y-141800500D01*
X152578845Y-141800499D01*
X152733497Y-141769737D01*
X152879179Y-141709394D01*
X153010289Y-141621789D01*
X153121789Y-141510289D01*
X153209394Y-141379179D01*
X153269737Y-141233497D01*
X153296141Y-141100756D01*
X153300638Y-141078150D01*
X153333023Y-141016239D01*
X153334518Y-141014716D01*
X154467240Y-139881995D01*
X194199500Y-139881995D01*
X194199500Y-140118004D01*
X194199501Y-140118020D01*
X194222222Y-140290606D01*
X194230307Y-140352014D01*
X194237327Y-140378213D01*
X194291394Y-140579993D01*
X194381714Y-140798045D01*
X194381719Y-140798056D01*
X194432765Y-140886469D01*
X194499727Y-141002450D01*
X194499729Y-141002453D01*
X194499730Y-141002454D01*
X194643406Y-141189697D01*
X194643412Y-141189704D01*
X194810295Y-141356587D01*
X194810301Y-141356592D01*
X194997550Y-141500273D01*
X195128918Y-141576118D01*
X195201943Y-141618280D01*
X195201948Y-141618282D01*
X195201951Y-141618284D01*
X195420007Y-141708606D01*
X195647986Y-141769693D01*
X195881989Y-141800500D01*
X195881996Y-141800500D01*
X196118004Y-141800500D01*
X196118011Y-141800500D01*
X196352014Y-141769693D01*
X196579993Y-141708606D01*
X196798049Y-141618284D01*
X197002450Y-141500273D01*
X197189699Y-141356592D01*
X197356592Y-141189699D01*
X197500273Y-141002450D01*
X197618284Y-140798049D01*
X197708606Y-140579993D01*
X197769693Y-140352014D01*
X197800500Y-140118011D01*
X197800500Y-139881989D01*
X197769693Y-139647986D01*
X197708606Y-139420007D01*
X197618284Y-139201951D01*
X197618282Y-139201948D01*
X197618280Y-139201943D01*
X197547207Y-139078842D01*
X197500273Y-138997550D01*
X197356592Y-138810301D01*
X197356587Y-138810295D01*
X197189704Y-138643412D01*
X197189697Y-138643406D01*
X197002454Y-138499730D01*
X197002453Y-138499729D01*
X197002450Y-138499727D01*
X196899736Y-138440425D01*
X196798056Y-138381719D01*
X196798045Y-138381714D01*
X196579993Y-138291394D01*
X196352010Y-138230306D01*
X196118020Y-138199501D01*
X196118017Y-138199500D01*
X196118011Y-138199500D01*
X195881989Y-138199500D01*
X195881983Y-138199500D01*
X195881979Y-138199501D01*
X195647989Y-138230306D01*
X195420006Y-138291394D01*
X195201954Y-138381714D01*
X195201943Y-138381719D01*
X194997545Y-138499730D01*
X194810302Y-138643406D01*
X194810295Y-138643412D01*
X194643412Y-138810295D01*
X194643406Y-138810302D01*
X194499730Y-138997545D01*
X194381719Y-139201943D01*
X194381714Y-139201954D01*
X194291394Y-139420006D01*
X194230306Y-139647989D01*
X194199501Y-139881979D01*
X194199500Y-139881995D01*
X154467240Y-139881995D01*
X154712416Y-139636819D01*
X154773739Y-139603334D01*
X154800097Y-139600500D01*
X156920234Y-139600500D01*
X156987273Y-139620185D01*
X156989125Y-139621398D01*
X157120814Y-139709390D01*
X157120827Y-139709397D01*
X157266498Y-139769735D01*
X157266503Y-139769737D01*
X157421153Y-139800499D01*
X157421156Y-139800500D01*
X157421158Y-139800500D01*
X157578844Y-139800500D01*
X157578845Y-139800499D01*
X157733497Y-139769737D01*
X157879179Y-139709394D01*
X158010289Y-139621789D01*
X158121789Y-139510289D01*
X158209394Y-139379179D01*
X158269737Y-139233497D01*
X158300500Y-139078842D01*
X158300500Y-138921158D01*
X158300500Y-138921155D01*
X158300499Y-138921153D01*
X158269738Y-138766510D01*
X158269737Y-138766503D01*
X158269735Y-138766498D01*
X158209397Y-138620827D01*
X158209390Y-138620814D01*
X158121789Y-138489711D01*
X158121786Y-138489707D01*
X158010292Y-138378213D01*
X158010288Y-138378210D01*
X157879185Y-138290609D01*
X157879172Y-138290602D01*
X157733501Y-138230264D01*
X157733489Y-138230261D01*
X157578845Y-138199500D01*
X157578842Y-138199500D01*
X157421158Y-138199500D01*
X157421155Y-138199500D01*
X157266510Y-138230261D01*
X157266498Y-138230264D01*
X157120827Y-138290602D01*
X157120814Y-138290609D01*
X156989125Y-138378602D01*
X156922447Y-138399480D01*
X156920234Y-138399500D01*
X154579057Y-138399500D01*
X154420943Y-138399500D01*
X154268215Y-138440423D01*
X154268214Y-138440423D01*
X154268212Y-138440424D01*
X154268209Y-138440425D01*
X154218096Y-138469359D01*
X154218095Y-138469360D01*
X154182853Y-138489707D01*
X154131285Y-138519479D01*
X154131282Y-138519481D01*
X152485339Y-140165425D01*
X152424016Y-140198910D01*
X152421850Y-140199361D01*
X152266508Y-140230261D01*
X152266498Y-140230264D01*
X152120827Y-140290602D01*
X152120814Y-140290609D01*
X151989711Y-140378210D01*
X151989707Y-140378213D01*
X151878213Y-140489707D01*
X151878210Y-140489711D01*
X151790609Y-140620814D01*
X151790602Y-140620827D01*
X151730264Y-140766498D01*
X151730261Y-140766510D01*
X151699500Y-140921153D01*
X146703266Y-140921153D01*
X146738318Y-140773263D01*
X146738318Y-140597821D01*
X146697857Y-140427109D01*
X146619120Y-140270327D01*
X146553863Y-140190220D01*
X145705322Y-139341681D01*
X145705308Y-139341670D01*
X145673176Y-139315493D01*
X145625215Y-139276422D01*
X145625213Y-139276421D01*
X145625212Y-139276420D01*
X145468432Y-139197684D01*
X145297728Y-139157225D01*
X145297723Y-139157224D01*
X145297721Y-139157224D01*
X145122279Y-139157224D01*
X145122277Y-139157224D01*
X145122271Y-139157225D01*
X144951567Y-139197684D01*
X144794785Y-139276421D01*
X144714688Y-139341670D01*
X144714670Y-139341686D01*
X143866142Y-140190216D01*
X143866133Y-140190226D01*
X143800878Y-140270329D01*
X143722142Y-140427109D01*
X143681683Y-140597813D01*
X143681682Y-140597824D01*
X101500500Y-140597824D01*
X101500500Y-135195036D01*
X138521346Y-135195036D01*
X138521346Y-135399739D01*
X138553368Y-135601922D01*
X138616627Y-135796611D01*
X138709561Y-135979001D01*
X138829874Y-136144601D01*
X138974632Y-136289359D01*
X139129595Y-136401944D01*
X139140236Y-136409675D01*
X139256453Y-136468891D01*
X139322622Y-136502606D01*
X139322624Y-136502606D01*
X139322627Y-136502608D01*
X139426983Y-136536515D01*
X139517311Y-136565865D01*
X139618403Y-136581876D01*
X139719494Y-136597888D01*
X139719495Y-136597888D01*
X139924197Y-136597888D01*
X139924198Y-136597888D01*
X140126380Y-136565865D01*
X140321065Y-136502608D01*
X140503456Y-136409675D01*
X140596436Y-136342120D01*
X140669059Y-136289359D01*
X140669061Y-136289356D01*
X140669065Y-136289354D01*
X140813812Y-136144607D01*
X140813814Y-136144603D01*
X140813817Y-136144601D01*
X140866578Y-136071978D01*
X140934133Y-135978998D01*
X141027066Y-135796607D01*
X141090323Y-135601922D01*
X141122346Y-135399740D01*
X141122346Y-135195036D01*
X141090323Y-134992854D01*
X141027066Y-134798169D01*
X141027064Y-134798166D01*
X141027064Y-134798164D01*
X140993349Y-134731995D01*
X140934133Y-134615778D01*
X140926402Y-134605137D01*
X140813817Y-134450174D01*
X140669059Y-134305416D01*
X140503459Y-134185103D01*
X140503458Y-134185102D01*
X140503456Y-134185101D01*
X140446499Y-134156079D01*
X140321069Y-134092169D01*
X140126380Y-134028910D01*
X139947003Y-134000500D01*
X139924198Y-133996888D01*
X139719494Y-133996888D01*
X139696689Y-134000500D01*
X139517311Y-134028910D01*
X139322622Y-134092169D01*
X139140232Y-134185103D01*
X138974632Y-134305416D01*
X138829874Y-134450174D01*
X138709561Y-134615774D01*
X138616627Y-134798164D01*
X138553368Y-134992853D01*
X138521346Y-135195036D01*
X101500500Y-135195036D01*
X101500500Y-132913389D01*
X142899500Y-132913389D01*
X142899500Y-133086611D01*
X142926598Y-133257701D01*
X142980127Y-133422445D01*
X143058768Y-133576788D01*
X143160586Y-133716928D01*
X143283072Y-133839414D01*
X143423212Y-133941232D01*
X143577555Y-134019873D01*
X143742299Y-134073402D01*
X143913389Y-134100500D01*
X143913390Y-134100500D01*
X144086610Y-134100500D01*
X144086611Y-134100500D01*
X144257701Y-134073402D01*
X144422445Y-134019873D01*
X144422449Y-134019871D01*
X144433941Y-134014016D01*
X144490237Y-134000500D01*
X173598542Y-134000500D01*
X173629566Y-133994328D01*
X173695188Y-133981275D01*
X173791836Y-133962051D01*
X173845165Y-133939961D01*
X173973914Y-133886632D01*
X174137782Y-133777139D01*
X174277139Y-133637782D01*
X174277139Y-133637780D01*
X174287347Y-133627573D01*
X174287348Y-133627570D01*
X176014935Y-131899983D01*
X194199500Y-131899983D01*
X194199500Y-134100001D01*
X194199501Y-134100018D01*
X194210000Y-134202796D01*
X194210001Y-134202799D01*
X194265185Y-134369331D01*
X194265186Y-134369334D01*
X194357288Y-134518656D01*
X194481344Y-134642712D01*
X194630666Y-134734814D01*
X194797203Y-134789999D01*
X194899991Y-134800500D01*
X197100008Y-134800499D01*
X197202797Y-134789999D01*
X197369334Y-134734814D01*
X197518656Y-134642712D01*
X197642712Y-134518656D01*
X197734814Y-134369334D01*
X197789999Y-134202797D01*
X197800500Y-134100009D01*
X197800499Y-131899992D01*
X197789999Y-131797203D01*
X197734814Y-131630666D01*
X197642712Y-131481344D01*
X197518656Y-131357288D01*
X197369334Y-131265186D01*
X197202797Y-131210001D01*
X197202795Y-131210000D01*
X197100010Y-131199500D01*
X194899998Y-131199500D01*
X194899981Y-131199501D01*
X194797203Y-131210000D01*
X194797200Y-131210001D01*
X194630668Y-131265185D01*
X194630663Y-131265187D01*
X194481342Y-131357289D01*
X194357289Y-131481342D01*
X194265187Y-131630663D01*
X194265186Y-131630666D01*
X194210001Y-131797203D01*
X194210001Y-131797204D01*
X194210000Y-131797204D01*
X194199500Y-131899983D01*
X176014935Y-131899983D01*
X179360811Y-128554108D01*
X179410173Y-128523860D01*
X179422445Y-128519873D01*
X179576788Y-128441232D01*
X179716928Y-128339414D01*
X179839414Y-128216928D01*
X179941232Y-128076788D01*
X180019873Y-127922445D01*
X180033016Y-127881995D01*
X194199500Y-127881995D01*
X194199500Y-128118004D01*
X194199501Y-128118020D01*
X194230306Y-128352010D01*
X194291394Y-128579993D01*
X194381714Y-128798045D01*
X194381719Y-128798056D01*
X194452677Y-128920957D01*
X194499727Y-129002450D01*
X194499729Y-129002453D01*
X194499730Y-129002454D01*
X194643406Y-129189697D01*
X194643412Y-129189704D01*
X194810295Y-129356587D01*
X194810301Y-129356592D01*
X194997550Y-129500273D01*
X195128918Y-129576118D01*
X195201943Y-129618280D01*
X195201948Y-129618282D01*
X195201951Y-129618284D01*
X195420007Y-129708606D01*
X195647986Y-129769693D01*
X195881989Y-129800500D01*
X195881996Y-129800500D01*
X196118004Y-129800500D01*
X196118011Y-129800500D01*
X196352014Y-129769693D01*
X196579993Y-129708606D01*
X196798049Y-129618284D01*
X197002450Y-129500273D01*
X197189699Y-129356592D01*
X197356592Y-129189699D01*
X197500273Y-129002450D01*
X197618284Y-128798049D01*
X197708606Y-128579993D01*
X197769693Y-128352014D01*
X197800500Y-128118011D01*
X197800500Y-127881989D01*
X197769693Y-127647986D01*
X197708606Y-127420007D01*
X197618284Y-127201951D01*
X197618282Y-127201948D01*
X197618280Y-127201943D01*
X197576118Y-127128918D01*
X197500273Y-126997550D01*
X197356592Y-126810301D01*
X197356587Y-126810295D01*
X197189704Y-126643412D01*
X197189697Y-126643406D01*
X197002454Y-126499730D01*
X197002453Y-126499729D01*
X197002450Y-126499727D01*
X196920957Y-126452677D01*
X196798056Y-126381719D01*
X196798045Y-126381714D01*
X196579993Y-126291394D01*
X196352010Y-126230306D01*
X196118020Y-126199501D01*
X196118017Y-126199500D01*
X196118011Y-126199500D01*
X195881989Y-126199500D01*
X195881983Y-126199500D01*
X195881979Y-126199501D01*
X195647989Y-126230306D01*
X195420006Y-126291394D01*
X195201954Y-126381714D01*
X195201943Y-126381719D01*
X194997545Y-126499730D01*
X194810302Y-126643406D01*
X194810295Y-126643412D01*
X194643412Y-126810295D01*
X194643406Y-126810302D01*
X194499730Y-126997545D01*
X194381719Y-127201943D01*
X194381714Y-127201954D01*
X194291394Y-127420006D01*
X194230306Y-127647989D01*
X194199501Y-127881979D01*
X194199500Y-127881995D01*
X180033016Y-127881995D01*
X180073402Y-127757701D01*
X180100500Y-127586611D01*
X180100500Y-127413389D01*
X180073402Y-127242299D01*
X180019873Y-127077555D01*
X180019871Y-127077552D01*
X180019871Y-127077550D01*
X180014016Y-127066059D01*
X180000500Y-127009763D01*
X180000500Y-122881995D01*
X194199500Y-122881995D01*
X194199500Y-123118004D01*
X194199501Y-123118020D01*
X194230306Y-123352010D01*
X194291394Y-123579993D01*
X194381714Y-123798045D01*
X194381719Y-123798056D01*
X194432857Y-123886628D01*
X194499727Y-124002450D01*
X194499729Y-124002453D01*
X194499730Y-124002454D01*
X194643406Y-124189697D01*
X194643412Y-124189704D01*
X194810295Y-124356587D01*
X194810301Y-124356592D01*
X194997550Y-124500273D01*
X195128918Y-124576118D01*
X195201943Y-124618280D01*
X195201948Y-124618282D01*
X195201951Y-124618284D01*
X195420007Y-124708606D01*
X195647986Y-124769693D01*
X195881989Y-124800500D01*
X195881996Y-124800500D01*
X196118004Y-124800500D01*
X196118011Y-124800500D01*
X196352014Y-124769693D01*
X196579993Y-124708606D01*
X196798049Y-124618284D01*
X197002450Y-124500273D01*
X197189699Y-124356592D01*
X197356592Y-124189699D01*
X197500273Y-124002450D01*
X197618284Y-123798049D01*
X197708606Y-123579993D01*
X197769693Y-123352014D01*
X197800500Y-123118011D01*
X197800500Y-122881989D01*
X197769693Y-122647986D01*
X197708606Y-122420007D01*
X197618284Y-122201951D01*
X197618282Y-122201948D01*
X197618280Y-122201943D01*
X197571447Y-122120827D01*
X197500273Y-121997550D01*
X197407731Y-121876947D01*
X197356593Y-121810302D01*
X197356587Y-121810295D01*
X197189704Y-121643412D01*
X197189697Y-121643406D01*
X197002454Y-121499730D01*
X197002453Y-121499729D01*
X197002450Y-121499727D01*
X196907660Y-121445000D01*
X196798056Y-121381719D01*
X196798045Y-121381714D01*
X196579993Y-121291394D01*
X196352010Y-121230306D01*
X196118020Y-121199501D01*
X196118017Y-121199500D01*
X196118011Y-121199500D01*
X195881989Y-121199500D01*
X195881983Y-121199500D01*
X195881979Y-121199501D01*
X195647989Y-121230306D01*
X195420006Y-121291394D01*
X195201954Y-121381714D01*
X195201943Y-121381719D01*
X194997545Y-121499730D01*
X194810302Y-121643406D01*
X194810295Y-121643412D01*
X194643412Y-121810295D01*
X194643406Y-121810302D01*
X194499730Y-121997545D01*
X194381719Y-122201943D01*
X194381714Y-122201954D01*
X194291394Y-122420006D01*
X194230306Y-122647989D01*
X194199501Y-122881979D01*
X194199500Y-122881995D01*
X180000500Y-122881995D01*
X180000500Y-118465782D01*
X180020185Y-118398743D01*
X180036819Y-118378101D01*
X180148422Y-118266498D01*
X180360811Y-118054108D01*
X180410173Y-118023860D01*
X180422445Y-118019873D01*
X180576788Y-117941232D01*
X180658320Y-117881995D01*
X194199500Y-117881995D01*
X194199500Y-118118004D01*
X194199501Y-118118020D01*
X194230306Y-118352010D01*
X194291394Y-118579993D01*
X194381714Y-118798045D01*
X194381719Y-118798056D01*
X194428552Y-118879172D01*
X194499727Y-119002450D01*
X194499729Y-119002453D01*
X194499730Y-119002454D01*
X194643406Y-119189697D01*
X194643412Y-119189704D01*
X194810295Y-119356587D01*
X194810301Y-119356592D01*
X194997550Y-119500273D01*
X195128918Y-119576118D01*
X195201943Y-119618280D01*
X195201948Y-119618282D01*
X195201951Y-119618284D01*
X195420007Y-119708606D01*
X195647986Y-119769693D01*
X195881989Y-119800500D01*
X195881996Y-119800500D01*
X196118004Y-119800500D01*
X196118011Y-119800500D01*
X196352014Y-119769693D01*
X196579993Y-119708606D01*
X196798049Y-119618284D01*
X197002450Y-119500273D01*
X197189699Y-119356592D01*
X197356592Y-119189699D01*
X197500273Y-119002450D01*
X197618284Y-118798049D01*
X197708606Y-118579993D01*
X197769693Y-118352014D01*
X197800500Y-118118011D01*
X197800500Y-117881989D01*
X197769693Y-117647986D01*
X197708606Y-117420007D01*
X197618284Y-117201951D01*
X197618282Y-117201948D01*
X197618280Y-117201943D01*
X197551692Y-117086611D01*
X197500273Y-116997550D01*
X197356592Y-116810301D01*
X197356587Y-116810295D01*
X197189704Y-116643412D01*
X197189697Y-116643406D01*
X197002454Y-116499730D01*
X197002453Y-116499729D01*
X197002450Y-116499727D01*
X196920957Y-116452677D01*
X196798056Y-116381719D01*
X196798045Y-116381714D01*
X196579993Y-116291394D01*
X196352010Y-116230306D01*
X196118020Y-116199501D01*
X196118017Y-116199500D01*
X196118011Y-116199500D01*
X195881989Y-116199500D01*
X195881983Y-116199500D01*
X195881979Y-116199501D01*
X195647989Y-116230306D01*
X195420006Y-116291394D01*
X195201954Y-116381714D01*
X195201943Y-116381719D01*
X194997545Y-116499730D01*
X194810302Y-116643406D01*
X194810295Y-116643412D01*
X194643412Y-116810295D01*
X194643406Y-116810302D01*
X194499730Y-116997545D01*
X194381719Y-117201943D01*
X194381714Y-117201954D01*
X194291394Y-117420006D01*
X194230306Y-117647989D01*
X194199501Y-117881979D01*
X194199500Y-117881995D01*
X180658320Y-117881995D01*
X180716928Y-117839414D01*
X180839414Y-117716928D01*
X180941232Y-117576788D01*
X181019873Y-117422445D01*
X181073402Y-117257701D01*
X181100500Y-117086611D01*
X181100500Y-116913389D01*
X181073402Y-116742299D01*
X181019873Y-116577555D01*
X181019871Y-116577552D01*
X181019871Y-116577550D01*
X181014016Y-116566059D01*
X181000500Y-116509763D01*
X181000500Y-109899983D01*
X194199500Y-109899983D01*
X194199500Y-112100001D01*
X194199501Y-112100018D01*
X194210000Y-112202796D01*
X194210001Y-112202799D01*
X194265185Y-112369331D01*
X194265186Y-112369334D01*
X194357288Y-112518656D01*
X194481344Y-112642712D01*
X194630666Y-112734814D01*
X194797203Y-112789999D01*
X194899991Y-112800500D01*
X197100008Y-112800499D01*
X197202797Y-112789999D01*
X197369334Y-112734814D01*
X197518656Y-112642712D01*
X197642712Y-112518656D01*
X197734814Y-112369334D01*
X197789999Y-112202797D01*
X197800500Y-112100009D01*
X197800499Y-109899992D01*
X197800376Y-109898792D01*
X197789999Y-109797203D01*
X197789998Y-109797200D01*
X197747770Y-109669765D01*
X197734814Y-109630666D01*
X197642712Y-109481344D01*
X197518656Y-109357288D01*
X197369334Y-109265186D01*
X197202797Y-109210001D01*
X197202795Y-109210000D01*
X197100010Y-109199500D01*
X194899998Y-109199500D01*
X194899981Y-109199501D01*
X194797203Y-109210000D01*
X194797200Y-109210001D01*
X194630668Y-109265185D01*
X194630663Y-109265187D01*
X194481342Y-109357289D01*
X194357289Y-109481342D01*
X194265187Y-109630663D01*
X194265186Y-109630666D01*
X194210001Y-109797203D01*
X194210001Y-109797204D01*
X194210000Y-109797204D01*
X194199500Y-109899983D01*
X181000500Y-109899983D01*
X181000500Y-105881995D01*
X194199500Y-105881995D01*
X194199500Y-106118004D01*
X194199501Y-106118020D01*
X194230306Y-106352010D01*
X194291394Y-106579993D01*
X194381714Y-106798045D01*
X194381719Y-106798056D01*
X194428552Y-106879172D01*
X194499727Y-107002450D01*
X194499729Y-107002453D01*
X194499730Y-107002454D01*
X194643406Y-107189697D01*
X194643412Y-107189704D01*
X194810295Y-107356587D01*
X194810301Y-107356592D01*
X194997550Y-107500273D01*
X195128918Y-107576118D01*
X195201943Y-107618280D01*
X195201948Y-107618282D01*
X195201951Y-107618284D01*
X195420007Y-107708606D01*
X195647986Y-107769693D01*
X195881989Y-107800500D01*
X195881996Y-107800500D01*
X196118004Y-107800500D01*
X196118011Y-107800500D01*
X196352014Y-107769693D01*
X196579993Y-107708606D01*
X196798049Y-107618284D01*
X197002450Y-107500273D01*
X197189699Y-107356592D01*
X197356592Y-107189699D01*
X197500273Y-107002450D01*
X197618284Y-106798049D01*
X197708606Y-106579993D01*
X197769693Y-106352014D01*
X197800500Y-106118011D01*
X197800500Y-105881989D01*
X197769693Y-105647986D01*
X197708606Y-105420007D01*
X197618284Y-105201951D01*
X197618282Y-105201948D01*
X197618280Y-105201943D01*
X197545452Y-105075803D01*
X197500273Y-104997550D01*
X197356592Y-104810301D01*
X197356587Y-104810295D01*
X197189704Y-104643412D01*
X197189697Y-104643406D01*
X197002454Y-104499730D01*
X197002453Y-104499729D01*
X197002450Y-104499727D01*
X196877507Y-104427591D01*
X196798056Y-104381719D01*
X196798045Y-104381714D01*
X196579993Y-104291394D01*
X196352010Y-104230306D01*
X196118020Y-104199501D01*
X196118017Y-104199500D01*
X196118011Y-104199500D01*
X195881989Y-104199500D01*
X195881983Y-104199500D01*
X195881979Y-104199501D01*
X195647989Y-104230306D01*
X195420006Y-104291394D01*
X195201954Y-104381714D01*
X195201943Y-104381719D01*
X194997545Y-104499730D01*
X194810302Y-104643406D01*
X194810295Y-104643412D01*
X194643412Y-104810295D01*
X194643406Y-104810302D01*
X194499730Y-104997545D01*
X194381719Y-105201943D01*
X194381714Y-105201954D01*
X194291394Y-105420006D01*
X194230306Y-105647989D01*
X194199501Y-105881979D01*
X194199500Y-105881995D01*
X181000500Y-105881995D01*
X181000500Y-100881995D01*
X194199500Y-100881995D01*
X194199500Y-101118004D01*
X194199501Y-101118020D01*
X194230306Y-101352010D01*
X194291394Y-101579993D01*
X194381714Y-101798045D01*
X194381719Y-101798056D01*
X194452677Y-101920957D01*
X194499727Y-102002450D01*
X194499729Y-102002453D01*
X194499730Y-102002454D01*
X194643406Y-102189697D01*
X194643412Y-102189704D01*
X194810295Y-102356587D01*
X194810301Y-102356592D01*
X194997550Y-102500273D01*
X195128918Y-102576118D01*
X195201943Y-102618280D01*
X195201948Y-102618282D01*
X195201951Y-102618284D01*
X195420007Y-102708606D01*
X195647986Y-102769693D01*
X195881989Y-102800500D01*
X195881996Y-102800500D01*
X196118004Y-102800500D01*
X196118011Y-102800500D01*
X196352014Y-102769693D01*
X196579993Y-102708606D01*
X196798049Y-102618284D01*
X197002450Y-102500273D01*
X197189699Y-102356592D01*
X197356592Y-102189699D01*
X197500273Y-102002450D01*
X197618284Y-101798049D01*
X197708606Y-101579993D01*
X197769693Y-101352014D01*
X197800500Y-101118011D01*
X197800500Y-100881989D01*
X197769693Y-100647986D01*
X197708606Y-100420007D01*
X197618284Y-100201951D01*
X197618282Y-100201948D01*
X197618280Y-100201943D01*
X197551692Y-100086611D01*
X197500273Y-99997550D01*
X197356592Y-99810301D01*
X197356587Y-99810295D01*
X197189704Y-99643412D01*
X197189697Y-99643406D01*
X197002454Y-99499730D01*
X197002453Y-99499729D01*
X197002450Y-99499727D01*
X196920957Y-99452677D01*
X196798056Y-99381719D01*
X196798045Y-99381714D01*
X196579993Y-99291394D01*
X196548935Y-99283072D01*
X196352014Y-99230307D01*
X196352013Y-99230306D01*
X196352010Y-99230306D01*
X196118020Y-99199501D01*
X196118017Y-99199500D01*
X196118011Y-99199500D01*
X195881989Y-99199500D01*
X195881983Y-99199500D01*
X195881979Y-99199501D01*
X195647989Y-99230306D01*
X195420006Y-99291394D01*
X195201954Y-99381714D01*
X195201943Y-99381719D01*
X194997545Y-99499730D01*
X194810302Y-99643406D01*
X194810295Y-99643412D01*
X194643412Y-99810295D01*
X194643406Y-99810302D01*
X194499730Y-99997545D01*
X194381719Y-100201943D01*
X194381714Y-100201954D01*
X194291394Y-100420006D01*
X194230306Y-100647989D01*
X194199501Y-100881979D01*
X194199500Y-100881995D01*
X181000500Y-100881995D01*
X181000500Y-99965782D01*
X181020185Y-99898743D01*
X181036819Y-99878101D01*
X181777137Y-99137784D01*
X181777137Y-99137783D01*
X181777140Y-99137781D01*
X181886632Y-98973914D01*
X181962052Y-98791835D01*
X182000501Y-98598540D01*
X182000501Y-98401459D01*
X182000501Y-98396349D01*
X182000500Y-98396323D01*
X182000500Y-96901456D01*
X181962052Y-96708170D01*
X181962051Y-96708169D01*
X181962051Y-96708165D01*
X181908961Y-96579993D01*
X181886635Y-96526092D01*
X181886628Y-96526079D01*
X181777139Y-96362218D01*
X181777136Y-96362214D01*
X181637785Y-96222863D01*
X181637781Y-96222860D01*
X181473920Y-96113371D01*
X181473907Y-96113364D01*
X181291839Y-96037950D01*
X181291829Y-96037947D01*
X181098787Y-95999548D01*
X181098782Y-95999548D01*
X181098541Y-95999500D01*
X180901459Y-95999500D01*
X180901457Y-95999500D01*
X180708170Y-96037947D01*
X180708160Y-96037950D01*
X180526092Y-96113364D01*
X180526079Y-96113371D01*
X180362218Y-96222860D01*
X180362214Y-96222863D01*
X180222863Y-96362214D01*
X180222860Y-96362218D01*
X180113371Y-96526079D01*
X180113364Y-96526092D01*
X180037950Y-96708160D01*
X180037947Y-96708170D01*
X179999500Y-96901456D01*
X179999500Y-98034217D01*
X179979815Y-98101256D01*
X179963181Y-98121898D01*
X179362220Y-98722859D01*
X179362218Y-98722861D01*
X179293252Y-98791827D01*
X179222859Y-98862219D01*
X179113371Y-99026080D01*
X179113366Y-99026089D01*
X179079161Y-99108668D01*
X179079158Y-99108676D01*
X179077215Y-99113368D01*
X179037949Y-99208164D01*
X179024229Y-99277139D01*
X179022846Y-99284089D01*
X179022845Y-99284094D01*
X178999500Y-99401456D01*
X178999500Y-116509763D01*
X178997873Y-116517942D01*
X178998789Y-116523019D01*
X178992978Y-116542548D01*
X178990061Y-116557217D01*
X178988197Y-116561714D01*
X178980127Y-116577555D01*
X178974633Y-116594461D01*
X178972770Y-116598960D01*
X178963471Y-116610498D01*
X178945890Y-116639187D01*
X178498469Y-117086610D01*
X178362220Y-117222859D01*
X178362218Y-117222861D01*
X178292538Y-117292540D01*
X178222859Y-117362219D01*
X178113371Y-117526080D01*
X178113364Y-117526093D01*
X178092936Y-117575412D01*
X178092922Y-117575446D01*
X178092367Y-117576788D01*
X178037949Y-117708164D01*
X178036206Y-117716928D01*
X178034110Y-117727462D01*
X178034110Y-117727464D01*
X177999500Y-117901456D01*
X177999500Y-127009763D01*
X177997873Y-127017942D01*
X177998789Y-127023019D01*
X177992978Y-127042548D01*
X177990061Y-127057217D01*
X177988197Y-127061714D01*
X177980127Y-127077555D01*
X177974633Y-127094461D01*
X177972770Y-127098960D01*
X177963471Y-127110498D01*
X177945890Y-127139187D01*
X173121899Y-131963181D01*
X173060576Y-131996666D01*
X173034218Y-131999500D01*
X144490237Y-131999500D01*
X144433941Y-131985984D01*
X144422449Y-131980128D01*
X144340073Y-131953362D01*
X144257701Y-131926598D01*
X144257699Y-131926597D01*
X144257698Y-131926597D01*
X144126271Y-131905781D01*
X144086611Y-131899500D01*
X143913389Y-131899500D01*
X143873728Y-131905781D01*
X143742302Y-131926597D01*
X143577552Y-131980128D01*
X143423211Y-132058768D01*
X143343256Y-132116859D01*
X143283072Y-132160586D01*
X143283070Y-132160588D01*
X143283069Y-132160588D01*
X143160588Y-132283069D01*
X143160588Y-132283070D01*
X143160586Y-132283072D01*
X143116859Y-132343256D01*
X143058768Y-132423211D01*
X142980128Y-132577552D01*
X142926597Y-132742302D01*
X142899500Y-132913389D01*
X101500500Y-132913389D01*
X101500500Y-126376902D01*
X126709500Y-126376902D01*
X126709500Y-126613097D01*
X126746446Y-126846368D01*
X126819433Y-127070996D01*
X126886159Y-127201951D01*
X126926657Y-127281433D01*
X127065483Y-127472510D01*
X127232490Y-127639517D01*
X127423567Y-127778343D01*
X127522991Y-127829002D01*
X127634003Y-127885566D01*
X127634005Y-127885566D01*
X127634008Y-127885568D01*
X127747503Y-127922445D01*
X127858631Y-127958553D01*
X128091903Y-127995500D01*
X128091908Y-127995500D01*
X128328097Y-127995500D01*
X128561368Y-127958553D01*
X128785992Y-127885568D01*
X128996433Y-127778343D01*
X129187510Y-127639517D01*
X129354517Y-127472510D01*
X129493343Y-127281433D01*
X129600568Y-127070992D01*
X129673553Y-126846368D01*
X129679265Y-126810302D01*
X129710500Y-126613097D01*
X129710500Y-126376902D01*
X133209500Y-126376902D01*
X133209500Y-126613097D01*
X133246446Y-126846368D01*
X133319433Y-127070996D01*
X133386159Y-127201951D01*
X133426657Y-127281433D01*
X133565483Y-127472510D01*
X133732490Y-127639517D01*
X133923567Y-127778343D01*
X134022991Y-127829002D01*
X134134003Y-127885566D01*
X134134005Y-127885566D01*
X134134008Y-127885568D01*
X134247503Y-127922445D01*
X134358631Y-127958553D01*
X134591903Y-127995500D01*
X134591908Y-127995500D01*
X134828097Y-127995500D01*
X135061368Y-127958553D01*
X135285992Y-127885568D01*
X135496433Y-127778343D01*
X135687510Y-127639517D01*
X135854517Y-127472510D01*
X135993343Y-127281433D01*
X136100568Y-127070992D01*
X136173553Y-126846368D01*
X136179265Y-126810302D01*
X136210500Y-126613097D01*
X136210500Y-126376902D01*
X136173553Y-126143631D01*
X136100566Y-125919003D01*
X136044002Y-125807991D01*
X135993343Y-125708567D01*
X135854517Y-125517490D01*
X135687510Y-125350483D01*
X135496433Y-125211657D01*
X135285996Y-125104433D01*
X135061368Y-125031446D01*
X134828097Y-124994500D01*
X134828092Y-124994500D01*
X134591908Y-124994500D01*
X134591903Y-124994500D01*
X134358631Y-125031446D01*
X134134003Y-125104433D01*
X133923566Y-125211657D01*
X133814550Y-125290862D01*
X133732490Y-125350483D01*
X133732488Y-125350485D01*
X133732487Y-125350485D01*
X133565485Y-125517487D01*
X133565485Y-125517488D01*
X133565483Y-125517490D01*
X133520908Y-125578842D01*
X133426657Y-125708566D01*
X133319433Y-125919003D01*
X133246446Y-126143631D01*
X133209500Y-126376902D01*
X129710500Y-126376902D01*
X129673553Y-126143631D01*
X129600566Y-125919003D01*
X129544002Y-125807991D01*
X129493343Y-125708567D01*
X129354517Y-125517490D01*
X129187510Y-125350483D01*
X128996433Y-125211657D01*
X128785996Y-125104433D01*
X128561368Y-125031446D01*
X128328097Y-124994500D01*
X128328092Y-124994500D01*
X128091908Y-124994500D01*
X128091903Y-124994500D01*
X127858631Y-125031446D01*
X127634003Y-125104433D01*
X127423566Y-125211657D01*
X127314550Y-125290862D01*
X127232490Y-125350483D01*
X127232488Y-125350485D01*
X127232487Y-125350485D01*
X127065485Y-125517487D01*
X127065485Y-125517488D01*
X127065483Y-125517490D01*
X127020908Y-125578842D01*
X126926657Y-125708566D01*
X126819433Y-125919003D01*
X126746446Y-126143631D01*
X126709500Y-126376902D01*
X101500500Y-126376902D01*
X101500500Y-121876947D01*
X126709999Y-121876947D01*
X126709999Y-122113052D01*
X126746933Y-122346247D01*
X126819896Y-122570802D01*
X126927086Y-122781174D01*
X126987337Y-122864104D01*
X126987339Y-122864105D01*
X127686211Y-122165233D01*
X127697481Y-122207292D01*
X127769889Y-122332708D01*
X127872291Y-122435110D01*
X127997707Y-122507518D01*
X128039764Y-122518787D01*
X127340892Y-123217658D01*
X127423827Y-123277914D01*
X127634196Y-123385102D01*
X127858751Y-123458065D01*
X127858750Y-123458065D01*
X128091947Y-123495000D01*
X128328051Y-123495000D01*
X128561246Y-123458065D01*
X128785801Y-123385102D01*
X128996162Y-123277918D01*
X128996168Y-123277914D01*
X129079103Y-123217658D01*
X129079104Y-123217658D01*
X128380232Y-122518787D01*
X128422291Y-122507518D01*
X128547707Y-122435110D01*
X128650109Y-122332708D01*
X128722517Y-122207292D01*
X128733786Y-122165234D01*
X129432657Y-122864105D01*
X129432657Y-122864104D01*
X129492913Y-122781169D01*
X129492917Y-122781163D01*
X129600101Y-122570802D01*
X129673064Y-122346247D01*
X129709999Y-122113052D01*
X129709999Y-121876947D01*
X129709999Y-121876946D01*
X133210000Y-121876946D01*
X133210000Y-122113051D01*
X133246934Y-122346246D01*
X133319897Y-122570801D01*
X133427087Y-122781173D01*
X133487338Y-122864103D01*
X133487340Y-122864104D01*
X134186212Y-122165232D01*
X134197482Y-122207291D01*
X134269890Y-122332707D01*
X134372292Y-122435109D01*
X134497708Y-122507517D01*
X134539765Y-122518786D01*
X133840893Y-123217657D01*
X133923828Y-123277913D01*
X134134197Y-123385101D01*
X134358752Y-123458064D01*
X134358751Y-123458064D01*
X134591948Y-123494999D01*
X134828052Y-123494999D01*
X135061247Y-123458064D01*
X135285802Y-123385101D01*
X135496163Y-123277917D01*
X135496169Y-123277913D01*
X135579104Y-123217657D01*
X135579105Y-123217657D01*
X135274837Y-122913389D01*
X155899500Y-122913389D01*
X155899500Y-123086610D01*
X155920255Y-123217657D01*
X155926598Y-123257701D01*
X155980127Y-123422445D01*
X156058768Y-123576788D01*
X156160586Y-123716928D01*
X156283072Y-123839414D01*
X156423212Y-123941232D01*
X156577555Y-124019873D01*
X156742299Y-124073402D01*
X156913389Y-124100500D01*
X156913390Y-124100500D01*
X157086610Y-124100500D01*
X157086611Y-124100500D01*
X157257701Y-124073402D01*
X157422445Y-124019873D01*
X157422449Y-124019871D01*
X157433941Y-124014016D01*
X157490237Y-124000500D01*
X163598542Y-124000500D01*
X163629566Y-123994328D01*
X163695188Y-123981275D01*
X163791836Y-123962051D01*
X163845165Y-123939961D01*
X163973914Y-123886632D01*
X164137782Y-123777139D01*
X164277139Y-123637782D01*
X164277140Y-123637779D01*
X164284206Y-123630714D01*
X164284209Y-123630710D01*
X164360810Y-123554108D01*
X164410176Y-123523859D01*
X164422445Y-123519873D01*
X164576788Y-123441232D01*
X164716928Y-123339414D01*
X164839414Y-123216928D01*
X164941232Y-123076788D01*
X165019873Y-122922445D01*
X165073402Y-122757701D01*
X165100500Y-122586611D01*
X165100500Y-122421153D01*
X171199500Y-122421153D01*
X171199500Y-122578846D01*
X171230261Y-122733489D01*
X171230264Y-122733501D01*
X171290602Y-122879172D01*
X171290609Y-122879185D01*
X171378602Y-123010874D01*
X171399480Y-123077551D01*
X171399500Y-123079765D01*
X171399500Y-124920234D01*
X171379815Y-124987273D01*
X171378602Y-124989125D01*
X171290609Y-125120814D01*
X171290602Y-125120827D01*
X171230264Y-125266498D01*
X171230261Y-125266510D01*
X171199500Y-125421153D01*
X171199500Y-125578846D01*
X171230261Y-125733489D01*
X171230264Y-125733501D01*
X171290602Y-125879172D01*
X171290609Y-125879185D01*
X171378210Y-126010288D01*
X171378213Y-126010292D01*
X171489707Y-126121786D01*
X171489711Y-126121789D01*
X171620814Y-126209390D01*
X171620827Y-126209397D01*
X171766498Y-126269735D01*
X171766503Y-126269737D01*
X171921153Y-126300499D01*
X171921156Y-126300500D01*
X171921158Y-126300500D01*
X172078844Y-126300500D01*
X172078845Y-126300499D01*
X172233497Y-126269737D01*
X172379179Y-126209394D01*
X172431110Y-126174694D01*
X172497785Y-126153816D01*
X172565165Y-126172300D01*
X172568863Y-126174676D01*
X172620821Y-126209394D01*
X172620823Y-126209395D01*
X172620825Y-126209396D01*
X172766498Y-126269735D01*
X172766503Y-126269737D01*
X172921153Y-126300499D01*
X172921156Y-126300500D01*
X172921158Y-126300500D01*
X173078844Y-126300500D01*
X173078845Y-126300499D01*
X173233497Y-126269737D01*
X173379179Y-126209394D01*
X173431110Y-126174694D01*
X173497785Y-126153816D01*
X173565165Y-126172300D01*
X173568863Y-126174676D01*
X173620821Y-126209394D01*
X173620823Y-126209395D01*
X173620825Y-126209396D01*
X173766498Y-126269735D01*
X173766503Y-126269737D01*
X173921153Y-126300499D01*
X173921156Y-126300500D01*
X173921158Y-126300500D01*
X174078844Y-126300500D01*
X174078845Y-126300499D01*
X174233497Y-126269737D01*
X174379179Y-126209394D01*
X174431110Y-126174694D01*
X174497785Y-126153816D01*
X174565165Y-126172300D01*
X174568863Y-126174676D01*
X174620821Y-126209394D01*
X174620823Y-126209395D01*
X174620825Y-126209396D01*
X174766498Y-126269735D01*
X174766503Y-126269737D01*
X174921153Y-126300499D01*
X174921156Y-126300500D01*
X174921158Y-126300500D01*
X175078844Y-126300500D01*
X175078845Y-126300499D01*
X175233497Y-126269737D01*
X175379179Y-126209394D01*
X175510289Y-126121789D01*
X175621789Y-126010289D01*
X175709394Y-125879179D01*
X175769737Y-125733497D01*
X175800500Y-125578842D01*
X175800500Y-125421158D01*
X175800500Y-125421155D01*
X175800499Y-125421153D01*
X175769738Y-125266510D01*
X175769737Y-125266503D01*
X175747019Y-125211657D01*
X175709397Y-125120827D01*
X175709390Y-125120814D01*
X175621398Y-124989125D01*
X175600520Y-124922447D01*
X175600500Y-124920234D01*
X175600500Y-119079765D01*
X175620185Y-119012726D01*
X175621398Y-119010874D01*
X175709390Y-118879185D01*
X175709390Y-118879184D01*
X175709394Y-118879179D01*
X175769737Y-118733497D01*
X175800500Y-118578842D01*
X175800500Y-118421158D01*
X175800500Y-118421155D01*
X175800499Y-118421153D01*
X175786746Y-118352014D01*
X175769737Y-118266503D01*
X175769735Y-118266498D01*
X175709397Y-118120827D01*
X175709390Y-118120814D01*
X175621789Y-117989711D01*
X175621786Y-117989707D01*
X175510292Y-117878213D01*
X175510288Y-117878210D01*
X175379185Y-117790609D01*
X175379172Y-117790602D01*
X175233501Y-117730264D01*
X175233489Y-117730261D01*
X175078845Y-117699500D01*
X175078842Y-117699500D01*
X174921158Y-117699500D01*
X174921155Y-117699500D01*
X174766510Y-117730261D01*
X174766498Y-117730264D01*
X174620827Y-117790602D01*
X174620814Y-117790609D01*
X174489711Y-117878210D01*
X174489707Y-117878213D01*
X174378213Y-117989707D01*
X174378210Y-117989711D01*
X174290609Y-118120814D01*
X174290602Y-118120827D01*
X174230264Y-118266498D01*
X174230261Y-118266510D01*
X174199500Y-118421153D01*
X174199500Y-118575500D01*
X174179815Y-118642539D01*
X174127011Y-118688294D01*
X174075500Y-118699500D01*
X173921155Y-118699500D01*
X173766510Y-118730261D01*
X173766498Y-118730264D01*
X173620827Y-118790602D01*
X173620814Y-118790609D01*
X173489711Y-118878210D01*
X173489707Y-118878213D01*
X173378213Y-118989707D01*
X173378210Y-118989711D01*
X173290609Y-119120814D01*
X173290602Y-119120827D01*
X173230264Y-119266498D01*
X173230261Y-119266510D01*
X173199500Y-119421153D01*
X173199500Y-119578846D01*
X173230261Y-119733489D01*
X173230264Y-119733501D01*
X173290602Y-119879172D01*
X173290609Y-119879185D01*
X173378602Y-120010874D01*
X173399480Y-120077551D01*
X173399500Y-120079765D01*
X173399500Y-120613444D01*
X173379815Y-120680483D01*
X173327011Y-120726238D01*
X173257853Y-120736182D01*
X173239575Y-120731202D01*
X173239324Y-120732031D01*
X173233500Y-120730264D01*
X173233497Y-120730263D01*
X173233492Y-120730262D01*
X173233489Y-120730261D01*
X173078845Y-120699500D01*
X173078842Y-120699500D01*
X172921158Y-120699500D01*
X172921155Y-120699500D01*
X172766510Y-120730261D01*
X172766498Y-120730264D01*
X172620827Y-120790602D01*
X172620814Y-120790609D01*
X172489711Y-120878210D01*
X172489707Y-120878213D01*
X172378213Y-120989707D01*
X172378210Y-120989711D01*
X172290609Y-121120814D01*
X172290602Y-121120827D01*
X172230264Y-121266498D01*
X172230261Y-121266510D01*
X172199500Y-121421153D01*
X172199500Y-121575500D01*
X172179815Y-121642539D01*
X172127011Y-121688294D01*
X172075500Y-121699500D01*
X171921155Y-121699500D01*
X171766510Y-121730261D01*
X171766498Y-121730264D01*
X171620827Y-121790602D01*
X171620814Y-121790609D01*
X171489711Y-121878210D01*
X171489707Y-121878213D01*
X171378213Y-121989707D01*
X171378210Y-121989711D01*
X171290609Y-122120814D01*
X171290602Y-122120827D01*
X171230264Y-122266498D01*
X171230261Y-122266510D01*
X171199500Y-122421153D01*
X165100500Y-122421153D01*
X165100500Y-122413389D01*
X165073402Y-122242299D01*
X165019873Y-122077555D01*
X165019871Y-122077552D01*
X165019871Y-122077550D01*
X165014016Y-122066059D01*
X165000500Y-122009763D01*
X165000500Y-109950154D01*
X165020185Y-109883115D01*
X165036819Y-109862473D01*
X168320450Y-106578842D01*
X171850490Y-103048801D01*
X171911811Y-103015318D01*
X171981503Y-103020302D01*
X172007060Y-103033382D01*
X172120814Y-103109390D01*
X172120827Y-103109397D01*
X172266498Y-103169735D01*
X172266503Y-103169737D01*
X172399033Y-103196099D01*
X172460944Y-103228483D01*
X172495518Y-103289199D01*
X172491779Y-103358969D01*
X172462524Y-103405397D01*
X172378210Y-103489711D01*
X172290609Y-103620814D01*
X172290602Y-103620827D01*
X172230264Y-103766498D01*
X172230261Y-103766510D01*
X172199500Y-103921153D01*
X172199500Y-104078846D01*
X172230261Y-104233489D01*
X172230264Y-104233501D01*
X172290602Y-104379172D01*
X172290609Y-104379185D01*
X172378210Y-104510288D01*
X172378213Y-104510292D01*
X172489706Y-104621785D01*
X172489709Y-104621787D01*
X172489711Y-104621789D01*
X172544388Y-104658323D01*
X172589192Y-104711933D01*
X172599497Y-104761424D01*
X172599497Y-105705829D01*
X172579812Y-105772868D01*
X172527008Y-105818623D01*
X172457850Y-105828567D01*
X172406607Y-105808932D01*
X172379183Y-105790608D01*
X172379172Y-105790602D01*
X172233501Y-105730264D01*
X172233489Y-105730261D01*
X172078845Y-105699500D01*
X172078842Y-105699500D01*
X171921158Y-105699500D01*
X171921155Y-105699500D01*
X171766510Y-105730261D01*
X171766498Y-105730264D01*
X171620827Y-105790602D01*
X171620814Y-105790609D01*
X171489711Y-105878210D01*
X171489707Y-105878213D01*
X171378213Y-105989707D01*
X171378210Y-105989711D01*
X171290609Y-106120814D01*
X171290602Y-106120827D01*
X171230264Y-106266498D01*
X171230261Y-106266510D01*
X171199500Y-106421153D01*
X171199500Y-106578846D01*
X171230261Y-106733489D01*
X171230264Y-106733501D01*
X171290602Y-106879172D01*
X171290609Y-106879185D01*
X171378210Y-107010288D01*
X171378213Y-107010292D01*
X171489707Y-107121786D01*
X171489711Y-107121789D01*
X171620814Y-107209390D01*
X171620818Y-107209392D01*
X171620821Y-107209394D01*
X171722949Y-107251696D01*
X171777350Y-107295535D01*
X171799415Y-107361829D01*
X171799494Y-107366256D01*
X171799494Y-108182295D01*
X171779809Y-108249334D01*
X171727005Y-108295089D01*
X171657847Y-108305033D01*
X171651304Y-108303913D01*
X171578842Y-108289500D01*
X171421158Y-108289500D01*
X171421155Y-108289500D01*
X171266510Y-108320261D01*
X171266498Y-108320264D01*
X171120827Y-108380602D01*
X171120814Y-108380609D01*
X170989711Y-108468210D01*
X170989707Y-108468213D01*
X170878213Y-108579707D01*
X170878210Y-108579711D01*
X170790609Y-108710814D01*
X170790602Y-108710827D01*
X170730264Y-108856498D01*
X170730261Y-108856510D01*
X170699500Y-109011153D01*
X170699500Y-109168845D01*
X170730261Y-109323489D01*
X170730264Y-109323501D01*
X170790602Y-109469172D01*
X170790609Y-109469185D01*
X170878602Y-109600874D01*
X170899480Y-109667551D01*
X170899500Y-109669765D01*
X170899500Y-109920234D01*
X170879815Y-109987273D01*
X170878602Y-109989125D01*
X170790609Y-110120814D01*
X170790602Y-110120827D01*
X170730264Y-110266498D01*
X170730261Y-110266510D01*
X170699500Y-110421153D01*
X170699500Y-110578846D01*
X170730261Y-110733489D01*
X170730264Y-110733501D01*
X170790602Y-110879172D01*
X170790609Y-110879185D01*
X170878210Y-111010288D01*
X170878213Y-111010292D01*
X170989707Y-111121786D01*
X170989711Y-111121789D01*
X171120814Y-111209390D01*
X171120827Y-111209397D01*
X171266498Y-111269735D01*
X171266503Y-111269737D01*
X171421153Y-111300499D01*
X171421156Y-111300500D01*
X171421158Y-111300500D01*
X171578844Y-111300500D01*
X171578845Y-111300499D01*
X171733497Y-111269737D01*
X171879179Y-111209394D01*
X171881107Y-111208105D01*
X171882272Y-111207740D01*
X171884546Y-111206525D01*
X171884776Y-111206956D01*
X171947783Y-111187228D01*
X172015163Y-111205712D01*
X172018847Y-111208079D01*
X172020815Y-111209394D01*
X172020818Y-111209395D01*
X172020821Y-111209397D01*
X172166492Y-111269735D01*
X172166497Y-111269737D01*
X172321147Y-111300499D01*
X172321150Y-111300500D01*
X172321152Y-111300500D01*
X172478838Y-111300500D01*
X172478839Y-111300499D01*
X172633491Y-111269737D01*
X172752544Y-111220423D01*
X172822011Y-111212955D01*
X172847444Y-111220422D01*
X172966500Y-111269737D01*
X173121150Y-111300499D01*
X173121153Y-111300500D01*
X173121155Y-111300500D01*
X173278841Y-111300500D01*
X173278842Y-111300499D01*
X173433494Y-111269737D01*
X173552547Y-111220423D01*
X173622014Y-111212955D01*
X173647447Y-111220422D01*
X173766503Y-111269737D01*
X173921153Y-111300499D01*
X173921156Y-111300500D01*
X173921158Y-111300500D01*
X174078844Y-111300500D01*
X174078845Y-111300499D01*
X174233497Y-111269737D01*
X174379179Y-111209394D01*
X174510289Y-111121789D01*
X174621789Y-111010289D01*
X174709394Y-110879179D01*
X174769737Y-110733497D01*
X174800500Y-110578842D01*
X174800500Y-110421158D01*
X174800500Y-110421155D01*
X174800499Y-110421153D01*
X174769738Y-110266510D01*
X174769737Y-110266503D01*
X174769735Y-110266498D01*
X174709397Y-110120827D01*
X174709390Y-110120814D01*
X174621398Y-109989125D01*
X174600520Y-109922447D01*
X174600500Y-109920234D01*
X174600500Y-103820942D01*
X174597636Y-103810256D01*
X174597635Y-103810252D01*
X174573312Y-103719478D01*
X174573312Y-103719476D01*
X174559578Y-103668218D01*
X174559576Y-103668213D01*
X174480524Y-103531290D01*
X174480521Y-103531286D01*
X174480520Y-103531284D01*
X174368716Y-103419480D01*
X174368715Y-103419479D01*
X174364385Y-103415149D01*
X174364374Y-103415139D01*
X173334574Y-102385339D01*
X173301089Y-102324016D01*
X173300638Y-102321849D01*
X173274351Y-102189699D01*
X173269737Y-102166503D01*
X173269735Y-102166498D01*
X173209397Y-102020827D01*
X173209390Y-102020814D01*
X173133382Y-101907060D01*
X173112504Y-101840382D01*
X173130989Y-101773002D01*
X173148799Y-101750492D01*
X173837661Y-101061630D01*
X173887023Y-101031381D01*
X173922445Y-101019873D01*
X174076788Y-100941232D01*
X174216928Y-100839414D01*
X174339414Y-100716928D01*
X174441232Y-100576788D01*
X174519873Y-100422445D01*
X174573402Y-100257701D01*
X174600500Y-100086611D01*
X174600500Y-99913389D01*
X174573402Y-99742299D01*
X174519873Y-99577555D01*
X174441232Y-99423212D01*
X174339414Y-99283072D01*
X174216928Y-99160586D01*
X174076788Y-99058768D01*
X173922445Y-98980127D01*
X173757701Y-98926598D01*
X173757699Y-98926597D01*
X173757698Y-98926597D01*
X173626271Y-98905781D01*
X173586611Y-98899500D01*
X173413389Y-98899500D01*
X173373728Y-98905781D01*
X173242302Y-98926597D01*
X173242299Y-98926598D01*
X173096677Y-98973914D01*
X173077552Y-98980128D01*
X172923211Y-99058768D01*
X172854531Y-99108668D01*
X172783072Y-99160586D01*
X172783070Y-99160588D01*
X172783069Y-99160588D01*
X172660588Y-99283069D01*
X172660588Y-99283070D01*
X172660586Y-99283072D01*
X172654540Y-99291394D01*
X172558766Y-99423213D01*
X172477916Y-99581894D01*
X172476897Y-99581375D01*
X172454364Y-99615085D01*
X165490609Y-106578842D01*
X163362220Y-108707231D01*
X163362218Y-108707233D01*
X163292538Y-108776912D01*
X163222859Y-108846591D01*
X163113371Y-109010451D01*
X163113366Y-109010461D01*
X163060037Y-109139209D01*
X163047765Y-109168838D01*
X163047765Y-109168839D01*
X163037949Y-109192537D01*
X163037947Y-109192542D01*
X162999500Y-109385828D01*
X162999500Y-121875500D01*
X162979815Y-121942539D01*
X162927011Y-121988294D01*
X162875500Y-121999500D01*
X157490237Y-121999500D01*
X157433941Y-121985984D01*
X157422449Y-121980128D01*
X157306762Y-121942539D01*
X157257701Y-121926598D01*
X157257699Y-121926597D01*
X157257698Y-121926597D01*
X157126271Y-121905781D01*
X157086611Y-121899500D01*
X156913389Y-121899500D01*
X156873728Y-121905781D01*
X156742302Y-121926597D01*
X156577552Y-121980128D01*
X156423211Y-122058768D01*
X156348498Y-122113051D01*
X156283072Y-122160586D01*
X156283070Y-122160588D01*
X156283069Y-122160588D01*
X156160588Y-122283069D01*
X156160588Y-122283070D01*
X156160586Y-122283072D01*
X156124524Y-122332707D01*
X156058768Y-122423211D01*
X155980128Y-122577552D01*
X155926597Y-122742302D01*
X155899500Y-122913389D01*
X135274837Y-122913389D01*
X134880233Y-122518786D01*
X134922292Y-122507517D01*
X135047708Y-122435109D01*
X135150110Y-122332707D01*
X135222518Y-122207291D01*
X135233787Y-122165233D01*
X135932658Y-122864104D01*
X135932658Y-122864103D01*
X135953346Y-122835631D01*
X135953347Y-122835629D01*
X135992910Y-122781175D01*
X135992918Y-122781162D01*
X136100102Y-122570801D01*
X136173065Y-122346246D01*
X136210000Y-122113051D01*
X136210000Y-121876946D01*
X136173065Y-121643751D01*
X136100102Y-121419196D01*
X135992914Y-121208827D01*
X135932658Y-121125893D01*
X135932658Y-121125892D01*
X135233787Y-121824764D01*
X135222518Y-121782707D01*
X135150110Y-121657291D01*
X135047708Y-121554889D01*
X134922292Y-121482481D01*
X134880234Y-121471211D01*
X135579105Y-120772339D01*
X135579104Y-120772337D01*
X135496174Y-120712086D01*
X135285802Y-120604896D01*
X135255346Y-120595000D01*
X137250000Y-120595000D01*
X143200001Y-120595000D01*
X143200001Y-102595000D01*
X137250000Y-102595000D01*
X137250000Y-120595000D01*
X135255346Y-120595000D01*
X135061247Y-120531933D01*
X135061248Y-120531933D01*
X134828052Y-120494999D01*
X134591948Y-120494999D01*
X134358752Y-120531933D01*
X134134197Y-120604896D01*
X133923830Y-120712083D01*
X133840894Y-120772339D01*
X134539766Y-121471211D01*
X134497708Y-121482481D01*
X134372292Y-121554889D01*
X134269890Y-121657291D01*
X134197482Y-121782707D01*
X134186212Y-121824765D01*
X133487340Y-121125893D01*
X133427084Y-121208829D01*
X133319897Y-121419196D01*
X133246934Y-121643751D01*
X133210000Y-121876946D01*
X129709999Y-121876946D01*
X129673064Y-121643752D01*
X129600101Y-121419197D01*
X129492913Y-121208828D01*
X129432657Y-121125894D01*
X129432657Y-121125893D01*
X128733786Y-121824765D01*
X128722517Y-121782708D01*
X128650109Y-121657292D01*
X128547707Y-121554890D01*
X128422291Y-121482482D01*
X128380233Y-121471212D01*
X129079104Y-120772340D01*
X129079104Y-120772339D01*
X128996173Y-120712087D01*
X128785801Y-120604897D01*
X128561246Y-120531934D01*
X128561247Y-120531934D01*
X128328051Y-120495000D01*
X128091947Y-120495000D01*
X127858751Y-120531934D01*
X127634196Y-120604897D01*
X127423829Y-120712084D01*
X127340893Y-120772340D01*
X128039765Y-121471212D01*
X127997707Y-121482482D01*
X127872291Y-121554890D01*
X127769889Y-121657292D01*
X127697481Y-121782708D01*
X127686211Y-121824766D01*
X126987339Y-121125894D01*
X126927083Y-121208830D01*
X126819896Y-121419197D01*
X126746933Y-121643752D01*
X126709999Y-121876947D01*
X101500500Y-121876947D01*
X101500500Y-104381948D01*
X126500000Y-104381948D01*
X126500000Y-104618053D01*
X126536934Y-104851248D01*
X126609897Y-105075803D01*
X126717087Y-105286175D01*
X126777338Y-105369105D01*
X126777340Y-105369106D01*
X127476212Y-104670234D01*
X127487482Y-104712293D01*
X127559890Y-104837709D01*
X127662292Y-104940111D01*
X127787708Y-105012519D01*
X127829765Y-105023788D01*
X127130893Y-105722659D01*
X127213828Y-105782915D01*
X127424197Y-105890103D01*
X127648752Y-105963066D01*
X127648751Y-105963066D01*
X127881948Y-106000001D01*
X128118052Y-106000001D01*
X128351247Y-105963066D01*
X128575802Y-105890103D01*
X128786163Y-105782919D01*
X128786169Y-105782915D01*
X128869104Y-105722659D01*
X128869105Y-105722659D01*
X128170233Y-105023788D01*
X128212292Y-105012519D01*
X128337708Y-104940111D01*
X128440110Y-104837709D01*
X128512518Y-104712293D01*
X128523787Y-104670235D01*
X129222658Y-105369106D01*
X129222658Y-105369105D01*
X129282914Y-105286170D01*
X129282918Y-105286164D01*
X129390102Y-105075803D01*
X129463065Y-104851248D01*
X129500000Y-104618053D01*
X129500000Y-104381948D01*
X129500000Y-104381947D01*
X133000001Y-104381947D01*
X133000001Y-104618052D01*
X133036935Y-104851247D01*
X133109898Y-105075802D01*
X133217088Y-105286174D01*
X133277339Y-105369104D01*
X133277341Y-105369105D01*
X133976213Y-104670233D01*
X133987483Y-104712292D01*
X134059891Y-104837708D01*
X134162293Y-104940110D01*
X134287709Y-105012518D01*
X134329766Y-105023787D01*
X133630894Y-105722658D01*
X133713829Y-105782914D01*
X133924198Y-105890102D01*
X134148753Y-105963065D01*
X134148752Y-105963065D01*
X134381949Y-106000000D01*
X134618053Y-106000000D01*
X134851248Y-105963065D01*
X135075803Y-105890102D01*
X135286164Y-105782918D01*
X135286170Y-105782914D01*
X135369105Y-105722658D01*
X135369106Y-105722658D01*
X134670234Y-105023787D01*
X134712293Y-105012518D01*
X134837709Y-104940110D01*
X134940111Y-104837708D01*
X135012519Y-104712292D01*
X135023788Y-104670234D01*
X135722659Y-105369105D01*
X135722659Y-105369104D01*
X135782915Y-105286169D01*
X135782919Y-105286163D01*
X135890103Y-105075802D01*
X135963066Y-104851247D01*
X136000001Y-104618052D01*
X136000001Y-104381947D01*
X135963066Y-104148752D01*
X135890103Y-103924197D01*
X135782915Y-103713828D01*
X135722659Y-103630894D01*
X135722659Y-103630893D01*
X135023788Y-104329765D01*
X135012519Y-104287708D01*
X134940111Y-104162292D01*
X134837709Y-104059890D01*
X134712293Y-103987482D01*
X134670235Y-103976212D01*
X135369106Y-103277340D01*
X135369105Y-103277338D01*
X135286175Y-103217087D01*
X135075803Y-103109897D01*
X134851248Y-103036934D01*
X134851249Y-103036934D01*
X134618053Y-103000000D01*
X134381949Y-103000000D01*
X134148753Y-103036934D01*
X133924198Y-103109897D01*
X133713831Y-103217084D01*
X133630895Y-103277340D01*
X134329767Y-103976212D01*
X134287709Y-103987482D01*
X134162293Y-104059890D01*
X134059891Y-104162292D01*
X133987483Y-104287708D01*
X133976213Y-104329766D01*
X133277341Y-103630894D01*
X133217085Y-103713830D01*
X133109898Y-103924197D01*
X133036935Y-104148752D01*
X133000001Y-104381947D01*
X129500000Y-104381947D01*
X129463065Y-104148753D01*
X129390102Y-103924198D01*
X129282914Y-103713829D01*
X129222658Y-103630895D01*
X129222658Y-103630894D01*
X128523787Y-104329766D01*
X128512518Y-104287709D01*
X128440110Y-104162293D01*
X128337708Y-104059891D01*
X128212292Y-103987483D01*
X128170234Y-103976213D01*
X128869105Y-103277341D01*
X128869105Y-103277340D01*
X128786174Y-103217088D01*
X128575802Y-103109898D01*
X128351247Y-103036935D01*
X128351248Y-103036935D01*
X128118052Y-103000001D01*
X127881948Y-103000001D01*
X127648752Y-103036935D01*
X127424197Y-103109898D01*
X127213830Y-103217085D01*
X127130894Y-103277341D01*
X127829766Y-103976213D01*
X127787708Y-103987483D01*
X127662292Y-104059891D01*
X127559890Y-104162293D01*
X127487482Y-104287709D01*
X127476212Y-104329767D01*
X126777340Y-103630895D01*
X126717084Y-103713831D01*
X126609897Y-103924198D01*
X126536934Y-104148753D01*
X126500000Y-104381948D01*
X101500500Y-104381948D01*
X101500500Y-99881902D01*
X126499500Y-99881902D01*
X126499500Y-100118097D01*
X126536446Y-100351368D01*
X126609433Y-100575996D01*
X126646116Y-100647989D01*
X126716657Y-100786433D01*
X126855483Y-100977510D01*
X127022490Y-101144517D01*
X127213567Y-101283343D01*
X127312991Y-101334002D01*
X127424003Y-101390566D01*
X127424005Y-101390566D01*
X127424008Y-101390568D01*
X127544412Y-101429689D01*
X127648631Y-101463553D01*
X127881903Y-101500500D01*
X127881908Y-101500500D01*
X128118097Y-101500500D01*
X128351368Y-101463553D01*
X128575992Y-101390568D01*
X128786433Y-101283343D01*
X128977510Y-101144517D01*
X129144517Y-100977510D01*
X129283343Y-100786433D01*
X129390568Y-100575992D01*
X129463553Y-100351368D01*
X129500500Y-100118097D01*
X129500500Y-99881902D01*
X132999500Y-99881902D01*
X132999500Y-100118097D01*
X133036446Y-100351368D01*
X133109433Y-100575996D01*
X133146116Y-100647989D01*
X133216657Y-100786433D01*
X133355483Y-100977510D01*
X133522490Y-101144517D01*
X133713567Y-101283343D01*
X133812991Y-101334002D01*
X133924003Y-101390566D01*
X133924005Y-101390566D01*
X133924008Y-101390568D01*
X134044412Y-101429689D01*
X134148631Y-101463553D01*
X134381903Y-101500500D01*
X134381908Y-101500500D01*
X134618097Y-101500500D01*
X134851368Y-101463553D01*
X135075992Y-101390568D01*
X135286433Y-101283343D01*
X135477510Y-101144517D01*
X135644517Y-100977510D01*
X135783343Y-100786433D01*
X135890568Y-100575992D01*
X135963553Y-100351368D01*
X136000500Y-100118097D01*
X136000500Y-99881902D01*
X135963553Y-99648631D01*
X135890566Y-99424003D01*
X135819278Y-99284094D01*
X135783343Y-99213567D01*
X135644517Y-99022490D01*
X135477510Y-98855483D01*
X135286433Y-98716657D01*
X135075996Y-98609433D01*
X134851368Y-98536446D01*
X134618097Y-98499500D01*
X134618092Y-98499500D01*
X134381908Y-98499500D01*
X134381903Y-98499500D01*
X134148631Y-98536446D01*
X133924003Y-98609433D01*
X133713566Y-98716657D01*
X133610105Y-98791827D01*
X133522490Y-98855483D01*
X133522488Y-98855485D01*
X133522487Y-98855485D01*
X133355485Y-99022487D01*
X133355485Y-99022488D01*
X133355483Y-99022490D01*
X133295862Y-99104550D01*
X133216657Y-99213566D01*
X133109433Y-99424003D01*
X133036446Y-99648631D01*
X132999500Y-99881902D01*
X129500500Y-99881902D01*
X129463553Y-99648631D01*
X129390566Y-99424003D01*
X129319278Y-99284094D01*
X129283343Y-99213567D01*
X129144517Y-99022490D01*
X128977510Y-98855483D01*
X128786433Y-98716657D01*
X128575996Y-98609433D01*
X128351368Y-98536446D01*
X128118097Y-98499500D01*
X128118092Y-98499500D01*
X127881908Y-98499500D01*
X127881903Y-98499500D01*
X127648631Y-98536446D01*
X127424003Y-98609433D01*
X127213566Y-98716657D01*
X127110105Y-98791827D01*
X127022490Y-98855483D01*
X127022488Y-98855485D01*
X127022487Y-98855485D01*
X126855485Y-99022487D01*
X126855485Y-99022488D01*
X126855483Y-99022490D01*
X126795862Y-99104550D01*
X126716657Y-99213566D01*
X126609433Y-99424003D01*
X126536446Y-99648631D01*
X126499500Y-99881902D01*
X101500500Y-99881902D01*
X101500500Y-97598543D01*
X117499499Y-97598543D01*
X117537947Y-97791829D01*
X117537950Y-97791839D01*
X117613364Y-97973907D01*
X117613371Y-97973920D01*
X117722860Y-98137781D01*
X117722863Y-98137785D01*
X117862214Y-98277136D01*
X117862218Y-98277139D01*
X118026079Y-98386628D01*
X118026092Y-98386635D01*
X118208160Y-98462049D01*
X118208165Y-98462051D01*
X118208169Y-98462051D01*
X118208170Y-98462052D01*
X118401456Y-98500500D01*
X118401459Y-98500500D01*
X118598543Y-98500500D01*
X118728582Y-98474632D01*
X118791835Y-98462051D01*
X118973914Y-98386632D01*
X119137782Y-98277139D01*
X119277139Y-98137782D01*
X119386632Y-97973914D01*
X119462051Y-97791835D01*
X119474632Y-97728582D01*
X119500500Y-97598543D01*
X119500500Y-96381902D01*
X160999500Y-96381902D01*
X160999500Y-96618097D01*
X161036446Y-96851368D01*
X161109433Y-97075996D01*
X161167371Y-97189704D01*
X161216657Y-97286433D01*
X161355483Y-97477510D01*
X161522490Y-97644517D01*
X161713567Y-97783343D01*
X161747236Y-97800498D01*
X161924003Y-97890566D01*
X161924005Y-97890566D01*
X161924008Y-97890568D01*
X162044412Y-97929689D01*
X162148631Y-97963553D01*
X162381903Y-98000500D01*
X162381908Y-98000500D01*
X162618097Y-98000500D01*
X162851368Y-97963553D01*
X163075992Y-97890568D01*
X163286433Y-97783343D01*
X163477510Y-97644517D01*
X163644517Y-97477510D01*
X163783343Y-97286433D01*
X163890568Y-97075992D01*
X163963553Y-96851368D01*
X163971998Y-96798049D01*
X164000500Y-96618097D01*
X164000500Y-96381902D01*
X167499500Y-96381902D01*
X167499500Y-96618097D01*
X167536446Y-96851368D01*
X167609433Y-97075996D01*
X167667371Y-97189704D01*
X167716657Y-97286433D01*
X167855483Y-97477510D01*
X168022490Y-97644517D01*
X168213567Y-97783343D01*
X168247236Y-97800498D01*
X168424003Y-97890566D01*
X168424005Y-97890566D01*
X168424008Y-97890568D01*
X168544412Y-97929689D01*
X168648631Y-97963553D01*
X168881903Y-98000500D01*
X168881908Y-98000500D01*
X169118097Y-98000500D01*
X169351368Y-97963553D01*
X169575992Y-97890568D01*
X169786433Y-97783343D01*
X169977510Y-97644517D01*
X170144517Y-97477510D01*
X170283343Y-97286433D01*
X170390568Y-97075992D01*
X170463553Y-96851368D01*
X170471998Y-96798049D01*
X170500500Y-96618097D01*
X170500500Y-96381902D01*
X170463553Y-96148631D01*
X170415965Y-96002171D01*
X170390568Y-95924008D01*
X170390566Y-95924005D01*
X170390566Y-95924003D01*
X170369162Y-95881995D01*
X194199500Y-95881995D01*
X194199500Y-96118004D01*
X194199501Y-96118020D01*
X194213303Y-96222861D01*
X194230307Y-96352014D01*
X194238317Y-96381908D01*
X194291394Y-96579993D01*
X194381714Y-96798045D01*
X194381719Y-96798056D01*
X194441418Y-96901456D01*
X194499727Y-97002450D01*
X194499729Y-97002453D01*
X194499730Y-97002454D01*
X194643406Y-97189697D01*
X194643412Y-97189704D01*
X194810295Y-97356587D01*
X194810301Y-97356592D01*
X194997550Y-97500273D01*
X195128918Y-97576118D01*
X195201943Y-97618280D01*
X195201948Y-97618282D01*
X195201951Y-97618284D01*
X195420007Y-97708606D01*
X195647986Y-97769693D01*
X195881989Y-97800500D01*
X195881996Y-97800500D01*
X196118004Y-97800500D01*
X196118011Y-97800500D01*
X196352014Y-97769693D01*
X196579993Y-97708606D01*
X196798049Y-97618284D01*
X197002450Y-97500273D01*
X197189699Y-97356592D01*
X197356592Y-97189699D01*
X197500273Y-97002450D01*
X197618284Y-96798049D01*
X197708606Y-96579993D01*
X197769693Y-96352014D01*
X197800500Y-96118011D01*
X197800500Y-95881989D01*
X197769693Y-95647986D01*
X197708606Y-95420007D01*
X197618284Y-95201951D01*
X197618282Y-95201948D01*
X197618280Y-95201943D01*
X197564868Y-95109432D01*
X197500273Y-94997550D01*
X197411619Y-94882014D01*
X197356593Y-94810302D01*
X197356587Y-94810295D01*
X197189704Y-94643412D01*
X197189697Y-94643406D01*
X197002454Y-94499730D01*
X197002453Y-94499729D01*
X197002450Y-94499727D01*
X196920957Y-94452677D01*
X196798056Y-94381719D01*
X196798045Y-94381714D01*
X196579993Y-94291394D01*
X196352010Y-94230306D01*
X196118020Y-94199501D01*
X196118017Y-94199500D01*
X196118011Y-94199500D01*
X195881989Y-94199500D01*
X195881983Y-94199500D01*
X195881979Y-94199501D01*
X195647989Y-94230306D01*
X195420006Y-94291394D01*
X195201954Y-94381714D01*
X195201943Y-94381719D01*
X194997545Y-94499730D01*
X194810302Y-94643406D01*
X194810295Y-94643412D01*
X194643412Y-94810295D01*
X194643406Y-94810302D01*
X194499730Y-94997545D01*
X194499727Y-94997549D01*
X194499727Y-94997550D01*
X194498312Y-95000001D01*
X194381719Y-95201943D01*
X194381714Y-95201954D01*
X194291394Y-95420006D01*
X194230306Y-95647989D01*
X194199501Y-95881979D01*
X194199500Y-95881995D01*
X170369162Y-95881995D01*
X170326276Y-95797828D01*
X170283343Y-95713567D01*
X170144517Y-95522490D01*
X169977510Y-95355483D01*
X169786433Y-95216657D01*
X169733327Y-95189598D01*
X169575996Y-95109433D01*
X169351368Y-95036446D01*
X169118097Y-94999500D01*
X169118092Y-94999500D01*
X168881908Y-94999500D01*
X168881903Y-94999500D01*
X168648631Y-95036446D01*
X168424003Y-95109433D01*
X168213566Y-95216657D01*
X168104550Y-95295862D01*
X168022490Y-95355483D01*
X168022488Y-95355485D01*
X168022487Y-95355485D01*
X167855485Y-95522487D01*
X167855485Y-95522488D01*
X167855483Y-95522490D01*
X167816590Y-95576022D01*
X167716657Y-95713566D01*
X167609433Y-95924003D01*
X167536446Y-96148631D01*
X167499500Y-96381902D01*
X164000500Y-96381902D01*
X163963553Y-96148631D01*
X163915965Y-96002171D01*
X163890568Y-95924008D01*
X163890566Y-95924005D01*
X163890566Y-95924003D01*
X163826276Y-95797828D01*
X163783343Y-95713567D01*
X163644517Y-95522490D01*
X163477510Y-95355483D01*
X163286433Y-95216657D01*
X163233327Y-95189598D01*
X163075996Y-95109433D01*
X162851368Y-95036446D01*
X162618097Y-94999500D01*
X162618092Y-94999500D01*
X162381908Y-94999500D01*
X162381903Y-94999500D01*
X162148631Y-95036446D01*
X161924003Y-95109433D01*
X161713566Y-95216657D01*
X161604550Y-95295862D01*
X161522490Y-95355483D01*
X161522488Y-95355485D01*
X161522487Y-95355485D01*
X161355485Y-95522487D01*
X161355485Y-95522488D01*
X161355483Y-95522490D01*
X161316590Y-95576022D01*
X161216657Y-95713566D01*
X161109433Y-95924003D01*
X161036446Y-96148631D01*
X160999500Y-96381902D01*
X119500500Y-96381902D01*
X119500500Y-92401456D01*
X119462052Y-92208170D01*
X119462051Y-92208169D01*
X119462051Y-92208165D01*
X119462049Y-92208160D01*
X119386635Y-92026092D01*
X119386628Y-92026079D01*
X119333098Y-91945966D01*
X119290322Y-91881947D01*
X161000000Y-91881947D01*
X161000000Y-92118052D01*
X161036934Y-92351247D01*
X161109897Y-92575802D01*
X161217087Y-92786174D01*
X161277338Y-92869104D01*
X161277340Y-92869105D01*
X161976212Y-92170233D01*
X161987482Y-92212292D01*
X162059890Y-92337708D01*
X162162292Y-92440110D01*
X162287708Y-92512518D01*
X162329765Y-92523787D01*
X161630893Y-93222658D01*
X161713828Y-93282914D01*
X161924197Y-93390102D01*
X162148752Y-93463065D01*
X162148751Y-93463065D01*
X162381948Y-93500000D01*
X162618052Y-93500000D01*
X162851247Y-93463065D01*
X163075802Y-93390102D01*
X163286163Y-93282918D01*
X163286169Y-93282914D01*
X163369104Y-93222658D01*
X163369105Y-93222658D01*
X162670233Y-92523787D01*
X162712292Y-92512518D01*
X162837708Y-92440110D01*
X162940110Y-92337708D01*
X163012518Y-92212292D01*
X163023787Y-92170234D01*
X163722658Y-92869105D01*
X163722658Y-92869104D01*
X163782914Y-92786169D01*
X163782918Y-92786163D01*
X163890102Y-92575802D01*
X163963065Y-92351247D01*
X164000000Y-92118052D01*
X164000000Y-91881947D01*
X167500000Y-91881947D01*
X167500000Y-92118052D01*
X167536934Y-92351247D01*
X167609897Y-92575802D01*
X167717087Y-92786174D01*
X167777338Y-92869104D01*
X167777340Y-92869105D01*
X168476212Y-92170233D01*
X168487482Y-92212292D01*
X168559890Y-92337708D01*
X168662292Y-92440110D01*
X168787708Y-92512518D01*
X168829765Y-92523787D01*
X168130893Y-93222658D01*
X168213828Y-93282914D01*
X168424197Y-93390102D01*
X168648752Y-93463065D01*
X168648751Y-93463065D01*
X168881948Y-93500000D01*
X169118052Y-93500000D01*
X169351247Y-93463065D01*
X169575802Y-93390102D01*
X169786163Y-93282918D01*
X169786169Y-93282914D01*
X169869104Y-93222658D01*
X169869105Y-93222658D01*
X169170233Y-92523787D01*
X169212292Y-92512518D01*
X169337708Y-92440110D01*
X169440110Y-92337708D01*
X169512518Y-92212292D01*
X169523787Y-92170234D01*
X170222658Y-92869105D01*
X170222658Y-92869104D01*
X170282914Y-92786169D01*
X170282918Y-92786163D01*
X170390102Y-92575802D01*
X170463065Y-92351247D01*
X170500000Y-92118052D01*
X170500000Y-91881947D01*
X170463065Y-91648752D01*
X170390102Y-91424197D01*
X170282914Y-91213828D01*
X170222658Y-91130894D01*
X170222658Y-91130893D01*
X169523787Y-91829765D01*
X169512518Y-91787708D01*
X169440110Y-91662292D01*
X169337708Y-91559890D01*
X169212292Y-91487482D01*
X169170234Y-91476212D01*
X169869105Y-90777340D01*
X169869104Y-90777338D01*
X169786174Y-90717087D01*
X169575802Y-90609897D01*
X169351247Y-90536934D01*
X169351248Y-90536934D01*
X169118052Y-90500000D01*
X168881948Y-90500000D01*
X168648752Y-90536934D01*
X168424197Y-90609897D01*
X168213830Y-90717084D01*
X168130894Y-90777340D01*
X168829766Y-91476212D01*
X168787708Y-91487482D01*
X168662292Y-91559890D01*
X168559890Y-91662292D01*
X168487482Y-91787708D01*
X168476212Y-91829765D01*
X167777340Y-91130894D01*
X167717084Y-91213830D01*
X167609897Y-91424197D01*
X167536934Y-91648752D01*
X167500000Y-91881947D01*
X164000000Y-91881947D01*
X163963065Y-91648752D01*
X163890102Y-91424197D01*
X163782914Y-91213828D01*
X163722658Y-91130894D01*
X163722658Y-91130893D01*
X163023787Y-91829765D01*
X163012518Y-91787708D01*
X162940110Y-91662292D01*
X162837708Y-91559890D01*
X162712292Y-91487482D01*
X162670234Y-91476212D01*
X163369105Y-90777340D01*
X163369104Y-90777339D01*
X163286174Y-90717087D01*
X163075802Y-90609897D01*
X162851247Y-90536934D01*
X162851248Y-90536934D01*
X162618052Y-90500000D01*
X162381948Y-90500000D01*
X162148752Y-90536934D01*
X161924197Y-90609897D01*
X161713830Y-90717084D01*
X161630894Y-90777340D01*
X162329766Y-91476212D01*
X162287708Y-91487482D01*
X162162292Y-91559890D01*
X162059890Y-91662292D01*
X161987482Y-91787708D01*
X161976212Y-91829765D01*
X161277340Y-91130894D01*
X161217084Y-91213830D01*
X161109897Y-91424197D01*
X161036934Y-91648752D01*
X161000000Y-91881947D01*
X119290322Y-91881947D01*
X119277139Y-91862218D01*
X119277136Y-91862214D01*
X119137785Y-91722863D01*
X119137781Y-91722860D01*
X118973920Y-91613371D01*
X118973907Y-91613364D01*
X118791839Y-91537950D01*
X118791829Y-91537947D01*
X118598543Y-91499500D01*
X118598541Y-91499500D01*
X118401459Y-91499500D01*
X118401457Y-91499500D01*
X118208170Y-91537947D01*
X118208160Y-91537950D01*
X118026092Y-91613364D01*
X118026079Y-91613371D01*
X117862218Y-91722860D01*
X117862214Y-91722863D01*
X117722863Y-91862214D01*
X117722860Y-91862218D01*
X117613371Y-92026079D01*
X117613364Y-92026092D01*
X117537950Y-92208160D01*
X117537947Y-92208170D01*
X117499500Y-92401456D01*
X117499500Y-92401459D01*
X117499500Y-97598541D01*
X117499500Y-97598543D01*
X117499499Y-97598543D01*
X101500500Y-97598543D01*
X101500500Y-94882014D01*
X104200000Y-94882014D01*
X104200000Y-95117985D01*
X104230799Y-95351914D01*
X104291870Y-95579837D01*
X104382160Y-95797819D01*
X104382165Y-95797828D01*
X104500144Y-96002171D01*
X104500145Y-96002172D01*
X104562721Y-96083723D01*
X105398958Y-95247487D01*
X105423978Y-95307890D01*
X105495112Y-95414351D01*
X105585649Y-95504888D01*
X105692110Y-95576022D01*
X105752511Y-95601041D01*
X104916275Y-96437277D01*
X104997827Y-96499854D01*
X104997828Y-96499855D01*
X105202171Y-96617834D01*
X105202180Y-96617839D01*
X105420163Y-96708129D01*
X105420161Y-96708129D01*
X105648085Y-96769200D01*
X105882014Y-96799999D01*
X105882029Y-96800000D01*
X106117971Y-96800000D01*
X106117985Y-96799999D01*
X106351914Y-96769200D01*
X106579837Y-96708129D01*
X106797819Y-96617839D01*
X106797828Y-96617834D01*
X107002181Y-96499850D01*
X107083723Y-96437279D01*
X107083723Y-96437276D01*
X106247487Y-95601041D01*
X106307890Y-95576022D01*
X106414351Y-95504888D01*
X106504888Y-95414351D01*
X106576022Y-95307890D01*
X106601041Y-95247488D01*
X107437276Y-96083723D01*
X107437279Y-96083723D01*
X107499850Y-96002181D01*
X107617834Y-95797828D01*
X107617839Y-95797819D01*
X107708129Y-95579837D01*
X107769200Y-95351914D01*
X107799999Y-95117985D01*
X107800000Y-95117971D01*
X107800000Y-94882028D01*
X107799999Y-94882014D01*
X107769200Y-94648085D01*
X107708129Y-94420162D01*
X107617839Y-94202180D01*
X107617834Y-94202171D01*
X107499855Y-93997828D01*
X107499854Y-93997827D01*
X107437277Y-93916275D01*
X106601041Y-94752511D01*
X106576022Y-94692110D01*
X106504888Y-94585649D01*
X106414351Y-94495112D01*
X106307890Y-94423978D01*
X106247488Y-94398958D01*
X107083723Y-93562721D01*
X107002172Y-93500145D01*
X107002171Y-93500144D01*
X106797828Y-93382165D01*
X106797819Y-93382160D01*
X106579836Y-93291870D01*
X106579838Y-93291870D01*
X106351914Y-93230799D01*
X106117985Y-93200000D01*
X105882014Y-93200000D01*
X105648085Y-93230799D01*
X105420162Y-93291870D01*
X105202180Y-93382160D01*
X105202171Y-93382165D01*
X104997828Y-93500144D01*
X104997818Y-93500150D01*
X104916275Y-93562720D01*
X104916275Y-93562721D01*
X105752512Y-94398958D01*
X105692110Y-94423978D01*
X105585649Y-94495112D01*
X105495112Y-94585649D01*
X105423978Y-94692110D01*
X105398958Y-94752511D01*
X104562721Y-93916275D01*
X104562720Y-93916275D01*
X104500150Y-93997818D01*
X104500144Y-93997828D01*
X104382165Y-94202171D01*
X104382160Y-94202180D01*
X104291870Y-94420162D01*
X104230799Y-94648085D01*
X104200000Y-94882014D01*
X101500500Y-94882014D01*
X101500500Y-89881995D01*
X104199500Y-89881995D01*
X104199500Y-90118004D01*
X104199501Y-90118020D01*
X104230306Y-90352010D01*
X104291394Y-90579993D01*
X104381714Y-90798045D01*
X104381719Y-90798056D01*
X104452677Y-90920957D01*
X104499727Y-91002450D01*
X104499729Y-91002453D01*
X104499730Y-91002454D01*
X104643406Y-91189697D01*
X104643412Y-91189704D01*
X104810295Y-91356587D01*
X104810301Y-91356592D01*
X104997550Y-91500273D01*
X105100810Y-91559890D01*
X105201943Y-91618280D01*
X105201948Y-91618282D01*
X105201951Y-91618284D01*
X105420007Y-91708606D01*
X105647986Y-91769693D01*
X105881989Y-91800500D01*
X105881996Y-91800500D01*
X106118004Y-91800500D01*
X106118011Y-91800500D01*
X106352014Y-91769693D01*
X106579993Y-91708606D01*
X106798049Y-91618284D01*
X107002450Y-91500273D01*
X107189699Y-91356592D01*
X107356592Y-91189699D01*
X107500273Y-91002450D01*
X107618284Y-90798049D01*
X107620318Y-90793136D01*
X107626944Y-90777145D01*
X107696219Y-90609897D01*
X107708606Y-90579993D01*
X107769693Y-90352014D01*
X107800500Y-90118011D01*
X107800500Y-89881989D01*
X107769693Y-89647986D01*
X107708606Y-89420007D01*
X107618284Y-89201951D01*
X107618282Y-89201948D01*
X107618280Y-89201943D01*
X107576118Y-89128918D01*
X107500273Y-88997550D01*
X107356592Y-88810301D01*
X107356587Y-88810295D01*
X107189704Y-88643412D01*
X107189697Y-88643406D01*
X107002454Y-88499730D01*
X107002453Y-88499729D01*
X107002450Y-88499727D01*
X106920957Y-88452677D01*
X106798056Y-88381719D01*
X106798045Y-88381714D01*
X106579993Y-88291394D01*
X106352010Y-88230306D01*
X106118020Y-88199501D01*
X106118017Y-88199500D01*
X106118011Y-88199500D01*
X105881989Y-88199500D01*
X105881983Y-88199500D01*
X105881979Y-88199501D01*
X105647989Y-88230306D01*
X105420006Y-88291394D01*
X105201954Y-88381714D01*
X105201943Y-88381719D01*
X104997545Y-88499730D01*
X104810302Y-88643406D01*
X104810295Y-88643412D01*
X104643412Y-88810295D01*
X104643406Y-88810302D01*
X104499730Y-88997545D01*
X104381719Y-89201943D01*
X104381714Y-89201954D01*
X104291394Y-89420006D01*
X104230306Y-89647989D01*
X104199501Y-89881979D01*
X104199500Y-89881995D01*
X101500500Y-89881995D01*
X101500500Y-84881995D01*
X104199500Y-84881995D01*
X104199500Y-85118004D01*
X104199501Y-85118020D01*
X104230306Y-85352010D01*
X104291394Y-85579993D01*
X104381714Y-85798045D01*
X104381719Y-85798056D01*
X104452677Y-85920957D01*
X104499727Y-86002450D01*
X104499729Y-86002453D01*
X104499730Y-86002454D01*
X104643406Y-86189697D01*
X104643412Y-86189704D01*
X104810295Y-86356587D01*
X104810301Y-86356592D01*
X104997550Y-86500273D01*
X105128918Y-86576118D01*
X105201943Y-86618280D01*
X105201948Y-86618282D01*
X105201951Y-86618284D01*
X105420007Y-86708606D01*
X105647986Y-86769693D01*
X105881989Y-86800500D01*
X105881996Y-86800500D01*
X106118004Y-86800500D01*
X106118011Y-86800500D01*
X106352014Y-86769693D01*
X106579993Y-86708606D01*
X106798049Y-86618284D01*
X107002450Y-86500273D01*
X107189699Y-86356592D01*
X107356592Y-86189699D01*
X107500273Y-86002450D01*
X107618284Y-85798049D01*
X107708606Y-85579993D01*
X107769693Y-85352014D01*
X107800500Y-85118011D01*
X107800500Y-84881989D01*
X107769693Y-84647986D01*
X107708606Y-84420007D01*
X107618284Y-84201951D01*
X107618282Y-84201948D01*
X107618280Y-84201943D01*
X107576118Y-84128918D01*
X107500273Y-83997550D01*
X107356592Y-83810301D01*
X107356587Y-83810295D01*
X107189704Y-83643412D01*
X107189697Y-83643406D01*
X107002454Y-83499730D01*
X107002453Y-83499729D01*
X107002450Y-83499727D01*
X106920957Y-83452677D01*
X106798056Y-83381719D01*
X106798045Y-83381714D01*
X106579993Y-83291394D01*
X106352010Y-83230306D01*
X106118020Y-83199501D01*
X106118017Y-83199500D01*
X106118011Y-83199500D01*
X105881989Y-83199500D01*
X105881983Y-83199500D01*
X105881979Y-83199501D01*
X105647989Y-83230306D01*
X105420006Y-83291394D01*
X105201954Y-83381714D01*
X105201943Y-83381719D01*
X104997545Y-83499730D01*
X104810302Y-83643406D01*
X104810295Y-83643412D01*
X104643412Y-83810295D01*
X104643406Y-83810302D01*
X104499730Y-83997545D01*
X104381719Y-84201943D01*
X104381714Y-84201954D01*
X104291394Y-84420006D01*
X104230306Y-84647989D01*
X104199501Y-84881979D01*
X104199500Y-84881995D01*
X101500500Y-84881995D01*
X101500500Y-78899983D01*
X104199500Y-78899983D01*
X104199500Y-81100001D01*
X104199501Y-81100018D01*
X104210000Y-81202796D01*
X104210001Y-81202799D01*
X104265185Y-81369331D01*
X104265186Y-81369334D01*
X104357288Y-81518656D01*
X104481344Y-81642712D01*
X104630666Y-81734814D01*
X104797203Y-81789999D01*
X104899991Y-81800500D01*
X107100008Y-81800499D01*
X107202797Y-81789999D01*
X107369334Y-81734814D01*
X107518656Y-81642712D01*
X107642712Y-81518656D01*
X107734814Y-81369334D01*
X107789999Y-81202797D01*
X107800500Y-81100009D01*
X107800499Y-78899992D01*
X107789999Y-78797203D01*
X107734814Y-78630666D01*
X107642712Y-78481344D01*
X107518656Y-78357288D01*
X107369334Y-78265186D01*
X107202797Y-78210001D01*
X107202795Y-78210000D01*
X107100010Y-78199500D01*
X104899998Y-78199500D01*
X104899981Y-78199501D01*
X104797203Y-78210000D01*
X104797200Y-78210001D01*
X104630668Y-78265185D01*
X104630663Y-78265187D01*
X104481342Y-78357289D01*
X104357289Y-78481342D01*
X104265187Y-78630663D01*
X104265186Y-78630666D01*
X104210001Y-78797203D01*
X104210001Y-78797204D01*
X104210000Y-78797204D01*
X104199500Y-78899983D01*
X101500500Y-78899983D01*
X101500500Y-62881995D01*
X104199500Y-62881995D01*
X104199500Y-63118004D01*
X104199501Y-63118020D01*
X104230306Y-63352010D01*
X104291394Y-63579993D01*
X104381714Y-63798045D01*
X104381719Y-63798056D01*
X104452677Y-63920957D01*
X104499727Y-64002450D01*
X104499729Y-64002453D01*
X104499730Y-64002454D01*
X104643406Y-64189697D01*
X104643412Y-64189704D01*
X104810295Y-64356587D01*
X104810302Y-64356593D01*
X104920306Y-64441001D01*
X104997550Y-64500273D01*
X105128918Y-64576118D01*
X105201943Y-64618280D01*
X105201948Y-64618282D01*
X105201951Y-64618284D01*
X105420007Y-64708606D01*
X105647986Y-64769693D01*
X105881989Y-64800500D01*
X105881996Y-64800500D01*
X106118004Y-64800500D01*
X106118011Y-64800500D01*
X106352014Y-64769693D01*
X106579993Y-64708606D01*
X106798049Y-64618284D01*
X107002450Y-64500273D01*
X107189699Y-64356592D01*
X107356592Y-64189699D01*
X107500273Y-64002450D01*
X107618284Y-63798049D01*
X107708606Y-63579993D01*
X107769693Y-63352014D01*
X107800500Y-63118011D01*
X107800500Y-62881989D01*
X107769693Y-62647986D01*
X107708606Y-62420007D01*
X107692861Y-62381995D01*
X119199500Y-62381995D01*
X119199500Y-62618004D01*
X119199501Y-62618020D01*
X119230306Y-62852010D01*
X119291394Y-63079993D01*
X119381714Y-63298045D01*
X119381719Y-63298056D01*
X119448863Y-63414351D01*
X119499727Y-63502450D01*
X119499729Y-63502453D01*
X119499730Y-63502454D01*
X119643406Y-63689697D01*
X119643412Y-63689704D01*
X119810295Y-63856587D01*
X119810302Y-63856593D01*
X119826909Y-63869336D01*
X119997550Y-64000273D01*
X120128918Y-64076118D01*
X120201943Y-64118280D01*
X120201948Y-64118282D01*
X120201951Y-64118284D01*
X120420007Y-64208606D01*
X120647986Y-64269693D01*
X120881989Y-64300500D01*
X120881996Y-64300500D01*
X121118004Y-64300500D01*
X121118011Y-64300500D01*
X121352014Y-64269693D01*
X121579993Y-64208606D01*
X121798049Y-64118284D01*
X122002450Y-64000273D01*
X122189699Y-63856592D01*
X122356592Y-63689699D01*
X122500273Y-63502450D01*
X122618284Y-63298049D01*
X122708606Y-63079993D01*
X122769693Y-62852014D01*
X122800500Y-62618011D01*
X122800500Y-62381995D01*
X124199500Y-62381995D01*
X124199500Y-62618004D01*
X124199501Y-62618020D01*
X124230306Y-62852010D01*
X124291394Y-63079993D01*
X124381714Y-63298045D01*
X124381719Y-63298056D01*
X124448863Y-63414351D01*
X124499727Y-63502450D01*
X124499729Y-63502453D01*
X124499730Y-63502454D01*
X124643406Y-63689697D01*
X124643412Y-63689704D01*
X124810295Y-63856587D01*
X124810302Y-63856593D01*
X124826909Y-63869336D01*
X124997550Y-64000273D01*
X125128918Y-64076118D01*
X125201943Y-64118280D01*
X125201948Y-64118282D01*
X125201951Y-64118284D01*
X125420007Y-64208606D01*
X125647986Y-64269693D01*
X125881989Y-64300500D01*
X125881996Y-64300500D01*
X126118004Y-64300500D01*
X126118011Y-64300500D01*
X126352014Y-64269693D01*
X126579993Y-64208606D01*
X126798049Y-64118284D01*
X127002450Y-64000273D01*
X127189699Y-63856592D01*
X127356592Y-63689699D01*
X127500273Y-63502450D01*
X127618284Y-63298049D01*
X127708606Y-63079993D01*
X127769693Y-62852014D01*
X127800500Y-62618011D01*
X127800500Y-62381989D01*
X127769693Y-62147986D01*
X127708606Y-61920007D01*
X127618284Y-61701951D01*
X127618282Y-61701948D01*
X127618280Y-61701943D01*
X127562510Y-61605348D01*
X127500273Y-61497550D01*
X127425414Y-61399992D01*
X127425407Y-61399983D01*
X129199500Y-61399983D01*
X129199500Y-63600001D01*
X129199501Y-63600018D01*
X129210000Y-63702796D01*
X129210001Y-63702799D01*
X129260962Y-63856587D01*
X129265186Y-63869334D01*
X129357288Y-64018656D01*
X129481344Y-64142712D01*
X129630666Y-64234814D01*
X129797203Y-64289999D01*
X129899991Y-64300500D01*
X132100008Y-64300499D01*
X132202797Y-64289999D01*
X132369334Y-64234814D01*
X132518656Y-64142712D01*
X132642712Y-64018656D01*
X132734814Y-63869334D01*
X132789999Y-63702797D01*
X132800500Y-63600009D01*
X132800499Y-62882014D01*
X137200001Y-62882014D01*
X137200001Y-63117985D01*
X137230800Y-63351914D01*
X137291871Y-63579837D01*
X137382161Y-63797819D01*
X137382166Y-63797828D01*
X137500145Y-64002171D01*
X137500146Y-64002172D01*
X137562722Y-64083723D01*
X138398959Y-63247487D01*
X138423979Y-63307890D01*
X138495113Y-63414351D01*
X138585650Y-63504888D01*
X138692111Y-63576022D01*
X138752512Y-63601041D01*
X137916276Y-64437277D01*
X137997828Y-64499854D01*
X137997829Y-64499855D01*
X138202172Y-64617834D01*
X138202181Y-64617839D01*
X138420164Y-64708129D01*
X138420162Y-64708129D01*
X138648086Y-64769200D01*
X138882015Y-64799999D01*
X138882030Y-64800000D01*
X139117972Y-64800000D01*
X139117986Y-64799999D01*
X139351915Y-64769200D01*
X139579838Y-64708129D01*
X139797820Y-64617839D01*
X139797829Y-64617834D01*
X140002182Y-64499850D01*
X140083724Y-64437279D01*
X140083724Y-64437276D01*
X139247488Y-63601041D01*
X139307891Y-63576022D01*
X139414352Y-63504888D01*
X139504889Y-63414351D01*
X139576023Y-63307890D01*
X139601042Y-63247488D01*
X140437277Y-64083723D01*
X140437280Y-64083723D01*
X140499851Y-64002181D01*
X140617835Y-63797828D01*
X140617840Y-63797819D01*
X140708130Y-63579837D01*
X140769201Y-63351914D01*
X140800000Y-63117985D01*
X140800001Y-63117971D01*
X140800001Y-62882021D01*
X140799998Y-62881995D01*
X142199499Y-62881995D01*
X142199499Y-63118004D01*
X142199500Y-63118020D01*
X142230305Y-63352010D01*
X142291393Y-63579993D01*
X142381713Y-63798045D01*
X142381718Y-63798056D01*
X142452676Y-63920957D01*
X142499726Y-64002450D01*
X142499728Y-64002453D01*
X142499729Y-64002454D01*
X142643405Y-64189697D01*
X142643411Y-64189704D01*
X142810294Y-64356587D01*
X142810301Y-64356593D01*
X142920305Y-64441001D01*
X142997549Y-64500273D01*
X143128917Y-64576118D01*
X143201942Y-64618280D01*
X143201947Y-64618282D01*
X143201950Y-64618284D01*
X143420006Y-64708606D01*
X143647985Y-64769693D01*
X143881988Y-64800500D01*
X143881995Y-64800500D01*
X144118003Y-64800500D01*
X144118010Y-64800500D01*
X144352013Y-64769693D01*
X144579992Y-64708606D01*
X144798048Y-64618284D01*
X145002449Y-64500273D01*
X145189698Y-64356592D01*
X145356591Y-64189699D01*
X145500272Y-64002450D01*
X145618283Y-63798049D01*
X145708605Y-63579993D01*
X145769692Y-63352014D01*
X145800499Y-63118011D01*
X145800499Y-62881995D01*
X147199499Y-62881995D01*
X147199499Y-63118004D01*
X147199500Y-63118020D01*
X147230305Y-63352010D01*
X147291393Y-63579993D01*
X147381713Y-63798045D01*
X147381718Y-63798056D01*
X147452676Y-63920957D01*
X147499726Y-64002450D01*
X147499728Y-64002453D01*
X147499729Y-64002454D01*
X147643405Y-64189697D01*
X147643411Y-64189704D01*
X147810294Y-64356587D01*
X147810301Y-64356593D01*
X147920305Y-64441001D01*
X147997549Y-64500273D01*
X148128917Y-64576118D01*
X148201942Y-64618280D01*
X148201947Y-64618282D01*
X148201950Y-64618284D01*
X148420006Y-64708606D01*
X148647985Y-64769693D01*
X148881988Y-64800500D01*
X148881995Y-64800500D01*
X149118003Y-64800500D01*
X149118010Y-64800500D01*
X149352013Y-64769693D01*
X149579992Y-64708606D01*
X149798048Y-64618284D01*
X150002449Y-64500273D01*
X150189698Y-64356592D01*
X150356591Y-64189699D01*
X150500272Y-64002450D01*
X150618283Y-63798049D01*
X150708605Y-63579993D01*
X150769692Y-63352014D01*
X150800499Y-63118011D01*
X150800499Y-62881995D01*
X152199500Y-62881995D01*
X152199500Y-63118004D01*
X152199501Y-63118020D01*
X152230306Y-63352010D01*
X152291394Y-63579993D01*
X152381714Y-63798045D01*
X152381719Y-63798056D01*
X152452677Y-63920957D01*
X152499727Y-64002450D01*
X152499729Y-64002453D01*
X152499730Y-64002454D01*
X152643406Y-64189697D01*
X152643412Y-64189704D01*
X152810295Y-64356587D01*
X152810302Y-64356593D01*
X152920306Y-64441001D01*
X152997550Y-64500273D01*
X153128918Y-64576118D01*
X153201943Y-64618280D01*
X153201948Y-64618282D01*
X153201951Y-64618284D01*
X153420007Y-64708606D01*
X153647986Y-64769693D01*
X153881989Y-64800500D01*
X153881996Y-64800500D01*
X154118004Y-64800500D01*
X154118011Y-64800500D01*
X154352014Y-64769693D01*
X154579993Y-64708606D01*
X154798049Y-64618284D01*
X155002450Y-64500273D01*
X155189699Y-64356592D01*
X155356592Y-64189699D01*
X155500273Y-64002450D01*
X155618284Y-63798049D01*
X155708606Y-63579993D01*
X155769693Y-63352014D01*
X155800500Y-63118011D01*
X155800500Y-62881995D01*
X157199500Y-62881995D01*
X157199500Y-63118004D01*
X157199501Y-63118020D01*
X157230306Y-63352010D01*
X157291394Y-63579993D01*
X157381714Y-63798045D01*
X157381719Y-63798056D01*
X157452677Y-63920957D01*
X157499727Y-64002450D01*
X157499729Y-64002453D01*
X157499730Y-64002454D01*
X157643406Y-64189697D01*
X157643412Y-64189704D01*
X157810295Y-64356587D01*
X157810302Y-64356593D01*
X157920306Y-64441001D01*
X157997550Y-64500273D01*
X158128918Y-64576118D01*
X158201943Y-64618280D01*
X158201948Y-64618282D01*
X158201951Y-64618284D01*
X158420007Y-64708606D01*
X158647986Y-64769693D01*
X158881989Y-64800500D01*
X158881996Y-64800500D01*
X159118004Y-64800500D01*
X159118011Y-64800500D01*
X159352014Y-64769693D01*
X159579993Y-64708606D01*
X159798049Y-64618284D01*
X160002450Y-64500273D01*
X160189699Y-64356592D01*
X160356592Y-64189699D01*
X160500273Y-64002450D01*
X160618284Y-63798049D01*
X160708606Y-63579993D01*
X160769693Y-63352014D01*
X160800500Y-63118011D01*
X160800500Y-62881995D01*
X162199500Y-62881995D01*
X162199500Y-63118004D01*
X162199501Y-63118020D01*
X162230306Y-63352010D01*
X162291394Y-63579993D01*
X162381714Y-63798045D01*
X162381719Y-63798056D01*
X162452677Y-63920957D01*
X162499727Y-64002450D01*
X162499729Y-64002453D01*
X162499730Y-64002454D01*
X162643406Y-64189697D01*
X162643412Y-64189704D01*
X162810295Y-64356587D01*
X162810302Y-64356593D01*
X162920306Y-64441001D01*
X162997550Y-64500273D01*
X163128918Y-64576118D01*
X163201943Y-64618280D01*
X163201948Y-64618282D01*
X163201951Y-64618284D01*
X163420007Y-64708606D01*
X163647986Y-64769693D01*
X163881989Y-64800500D01*
X163881996Y-64800500D01*
X164118004Y-64800500D01*
X164118011Y-64800500D01*
X164352014Y-64769693D01*
X164579993Y-64708606D01*
X164798049Y-64618284D01*
X165002450Y-64500273D01*
X165189699Y-64356592D01*
X165356592Y-64189699D01*
X165500273Y-64002450D01*
X165618284Y-63798049D01*
X165708606Y-63579993D01*
X165769693Y-63352014D01*
X165800500Y-63118011D01*
X165800500Y-62881989D01*
X165769693Y-62647986D01*
X165708606Y-62420007D01*
X165618284Y-62201951D01*
X165618282Y-62201948D01*
X165618280Y-62201943D01*
X165562510Y-62105348D01*
X165500273Y-61997550D01*
X165440772Y-61920007D01*
X165425407Y-61899983D01*
X167199500Y-61899983D01*
X167199500Y-64100001D01*
X167199501Y-64100018D01*
X167210000Y-64202796D01*
X167210001Y-64202799D01*
X167260962Y-64356587D01*
X167265186Y-64369334D01*
X167357288Y-64518656D01*
X167481344Y-64642712D01*
X167630666Y-64734814D01*
X167797203Y-64789999D01*
X167899991Y-64800500D01*
X170100008Y-64800499D01*
X170202797Y-64789999D01*
X170369334Y-64734814D01*
X170518656Y-64642712D01*
X170642712Y-64518656D01*
X170734814Y-64369334D01*
X170789999Y-64202797D01*
X170800500Y-64100009D01*
X170800499Y-62881995D01*
X194199500Y-62881995D01*
X194199500Y-63118004D01*
X194199501Y-63118020D01*
X194230306Y-63352010D01*
X194291394Y-63579993D01*
X194381714Y-63798045D01*
X194381719Y-63798056D01*
X194452677Y-63920957D01*
X194499727Y-64002450D01*
X194499729Y-64002453D01*
X194499730Y-64002454D01*
X194643406Y-64189697D01*
X194643412Y-64189704D01*
X194810295Y-64356587D01*
X194810302Y-64356593D01*
X194920306Y-64441001D01*
X194997550Y-64500273D01*
X195128918Y-64576118D01*
X195201943Y-64618280D01*
X195201948Y-64618282D01*
X195201951Y-64618284D01*
X195420007Y-64708606D01*
X195647986Y-64769693D01*
X195881989Y-64800500D01*
X195881996Y-64800500D01*
X196118004Y-64800500D01*
X196118011Y-64800500D01*
X196352014Y-64769693D01*
X196579993Y-64708606D01*
X196798049Y-64618284D01*
X197002450Y-64500273D01*
X197189699Y-64356592D01*
X197356592Y-64189699D01*
X197500273Y-64002450D01*
X197618284Y-63798049D01*
X197708606Y-63579993D01*
X197769693Y-63352014D01*
X197800500Y-63118011D01*
X197800500Y-62881989D01*
X197769693Y-62647986D01*
X197708606Y-62420007D01*
X197618284Y-62201951D01*
X197618282Y-62201948D01*
X197618280Y-62201943D01*
X197576118Y-62128918D01*
X197500273Y-61997550D01*
X197356592Y-61810301D01*
X197356587Y-61810295D01*
X197189704Y-61643412D01*
X197189697Y-61643406D01*
X197002454Y-61499730D01*
X197002453Y-61499729D01*
X197002450Y-61499727D01*
X196920957Y-61452677D01*
X196798056Y-61381719D01*
X196798045Y-61381714D01*
X196579993Y-61291394D01*
X196352010Y-61230306D01*
X196118020Y-61199501D01*
X196118017Y-61199500D01*
X196118011Y-61199500D01*
X195881989Y-61199500D01*
X195881983Y-61199500D01*
X195881979Y-61199501D01*
X195647989Y-61230306D01*
X195420006Y-61291394D01*
X195201954Y-61381714D01*
X195201943Y-61381719D01*
X194997545Y-61499730D01*
X194810302Y-61643406D01*
X194810295Y-61643412D01*
X194643412Y-61810295D01*
X194643406Y-61810302D01*
X194499730Y-61997545D01*
X194499727Y-61997549D01*
X194499727Y-61997550D01*
X194492014Y-62010909D01*
X194381719Y-62201943D01*
X194381714Y-62201954D01*
X194291394Y-62420006D01*
X194230306Y-62647989D01*
X194199501Y-62881979D01*
X194199500Y-62881995D01*
X170800499Y-62881995D01*
X170800499Y-61899992D01*
X170789999Y-61797203D01*
X170734814Y-61630666D01*
X170642712Y-61481344D01*
X170518656Y-61357288D01*
X170369334Y-61265186D01*
X170202797Y-61210001D01*
X170202795Y-61210000D01*
X170100010Y-61199500D01*
X167899998Y-61199500D01*
X167899981Y-61199501D01*
X167797203Y-61210000D01*
X167797200Y-61210001D01*
X167630668Y-61265185D01*
X167630663Y-61265187D01*
X167481342Y-61357289D01*
X167357289Y-61481342D01*
X167265187Y-61630663D01*
X167265185Y-61630668D01*
X167260962Y-61643412D01*
X167210001Y-61797203D01*
X167210001Y-61797204D01*
X167210000Y-61797204D01*
X167199500Y-61899983D01*
X165425407Y-61899983D01*
X165356593Y-61810302D01*
X165356587Y-61810295D01*
X165189704Y-61643412D01*
X165189697Y-61643406D01*
X165002454Y-61499730D01*
X165002453Y-61499729D01*
X165002450Y-61499727D01*
X164920957Y-61452677D01*
X164798056Y-61381719D01*
X164798045Y-61381714D01*
X164579993Y-61291394D01*
X164352010Y-61230306D01*
X164118020Y-61199501D01*
X164118017Y-61199500D01*
X164118011Y-61199500D01*
X163881989Y-61199500D01*
X163881983Y-61199500D01*
X163881979Y-61199501D01*
X163647989Y-61230306D01*
X163420006Y-61291394D01*
X163201954Y-61381714D01*
X163201943Y-61381719D01*
X162997545Y-61499730D01*
X162810302Y-61643406D01*
X162810295Y-61643412D01*
X162643412Y-61810295D01*
X162643406Y-61810302D01*
X162499730Y-61997545D01*
X162499727Y-61997549D01*
X162499727Y-61997550D01*
X162492014Y-62010909D01*
X162381719Y-62201943D01*
X162381714Y-62201954D01*
X162291394Y-62420006D01*
X162230306Y-62647989D01*
X162199501Y-62881979D01*
X162199500Y-62881995D01*
X160800500Y-62881995D01*
X160800500Y-62881989D01*
X160769693Y-62647986D01*
X160708606Y-62420007D01*
X160618284Y-62201951D01*
X160618282Y-62201948D01*
X160618280Y-62201943D01*
X160576118Y-62128918D01*
X160500273Y-61997550D01*
X160356592Y-61810301D01*
X160356587Y-61810295D01*
X160189704Y-61643412D01*
X160189697Y-61643406D01*
X160002454Y-61499730D01*
X160002453Y-61499729D01*
X160002450Y-61499727D01*
X159920957Y-61452677D01*
X159798056Y-61381719D01*
X159798045Y-61381714D01*
X159579993Y-61291394D01*
X159352010Y-61230306D01*
X159118020Y-61199501D01*
X159118017Y-61199500D01*
X159118011Y-61199500D01*
X158881989Y-61199500D01*
X158881983Y-61199500D01*
X158881979Y-61199501D01*
X158647989Y-61230306D01*
X158420006Y-61291394D01*
X158201954Y-61381714D01*
X158201943Y-61381719D01*
X157997545Y-61499730D01*
X157810302Y-61643406D01*
X157810295Y-61643412D01*
X157643412Y-61810295D01*
X157643406Y-61810302D01*
X157499730Y-61997545D01*
X157499727Y-61997549D01*
X157499727Y-61997550D01*
X157492014Y-62010909D01*
X157381719Y-62201943D01*
X157381714Y-62201954D01*
X157291394Y-62420006D01*
X157230306Y-62647989D01*
X157199501Y-62881979D01*
X157199500Y-62881995D01*
X155800500Y-62881995D01*
X155800500Y-62881989D01*
X155769693Y-62647986D01*
X155708606Y-62420007D01*
X155618284Y-62201951D01*
X155618282Y-62201948D01*
X155618280Y-62201943D01*
X155576118Y-62128918D01*
X155500273Y-61997550D01*
X155356592Y-61810301D01*
X155356587Y-61810295D01*
X155189704Y-61643412D01*
X155189697Y-61643406D01*
X155002454Y-61499730D01*
X155002453Y-61499729D01*
X155002450Y-61499727D01*
X154920957Y-61452677D01*
X154798056Y-61381719D01*
X154798045Y-61381714D01*
X154579993Y-61291394D01*
X154352010Y-61230306D01*
X154118020Y-61199501D01*
X154118017Y-61199500D01*
X154118011Y-61199500D01*
X153881989Y-61199500D01*
X153881983Y-61199500D01*
X153881979Y-61199501D01*
X153647989Y-61230306D01*
X153420006Y-61291394D01*
X153201954Y-61381714D01*
X153201943Y-61381719D01*
X152997545Y-61499730D01*
X152810302Y-61643406D01*
X152810295Y-61643412D01*
X152643412Y-61810295D01*
X152643406Y-61810302D01*
X152499730Y-61997545D01*
X152499727Y-61997549D01*
X152499727Y-61997550D01*
X152492014Y-62010909D01*
X152381719Y-62201943D01*
X152381714Y-62201954D01*
X152291394Y-62420006D01*
X152230306Y-62647989D01*
X152199501Y-62881979D01*
X152199500Y-62881995D01*
X150800499Y-62881995D01*
X150800499Y-62881989D01*
X150769692Y-62647986D01*
X150708605Y-62420007D01*
X150618283Y-62201951D01*
X150618281Y-62201948D01*
X150618279Y-62201943D01*
X150576117Y-62128918D01*
X150500272Y-61997550D01*
X150356591Y-61810301D01*
X150356586Y-61810295D01*
X150189703Y-61643412D01*
X150189696Y-61643406D01*
X150002453Y-61499730D01*
X150002452Y-61499729D01*
X150002449Y-61499727D01*
X149920956Y-61452677D01*
X149798055Y-61381719D01*
X149798044Y-61381714D01*
X149579992Y-61291394D01*
X149352009Y-61230306D01*
X149118019Y-61199501D01*
X149118016Y-61199500D01*
X149118010Y-61199500D01*
X148881988Y-61199500D01*
X148881982Y-61199500D01*
X148881978Y-61199501D01*
X148647988Y-61230306D01*
X148420005Y-61291394D01*
X148201953Y-61381714D01*
X148201942Y-61381719D01*
X147997544Y-61499730D01*
X147810301Y-61643406D01*
X147810294Y-61643412D01*
X147643411Y-61810295D01*
X147643405Y-61810302D01*
X147499729Y-61997545D01*
X147499726Y-61997549D01*
X147499726Y-61997550D01*
X147492013Y-62010909D01*
X147381718Y-62201943D01*
X147381713Y-62201954D01*
X147291393Y-62420006D01*
X147230305Y-62647989D01*
X147199500Y-62881979D01*
X147199499Y-62881995D01*
X145800499Y-62881995D01*
X145800499Y-62881989D01*
X145769692Y-62647986D01*
X145708605Y-62420007D01*
X145618283Y-62201951D01*
X145618281Y-62201948D01*
X145618279Y-62201943D01*
X145576117Y-62128918D01*
X145500272Y-61997550D01*
X145356591Y-61810301D01*
X145356586Y-61810295D01*
X145189703Y-61643412D01*
X145189696Y-61643406D01*
X145002453Y-61499730D01*
X145002452Y-61499729D01*
X145002449Y-61499727D01*
X144920956Y-61452677D01*
X144798055Y-61381719D01*
X144798044Y-61381714D01*
X144579992Y-61291394D01*
X144352009Y-61230306D01*
X144118019Y-61199501D01*
X144118016Y-61199500D01*
X144118010Y-61199500D01*
X143881988Y-61199500D01*
X143881982Y-61199500D01*
X143881978Y-61199501D01*
X143647988Y-61230306D01*
X143420005Y-61291394D01*
X143201953Y-61381714D01*
X143201942Y-61381719D01*
X142997544Y-61499730D01*
X142810301Y-61643406D01*
X142810294Y-61643412D01*
X142643411Y-61810295D01*
X142643405Y-61810302D01*
X142499729Y-61997545D01*
X142499726Y-61997549D01*
X142499726Y-61997550D01*
X142492013Y-62010909D01*
X142381718Y-62201943D01*
X142381713Y-62201954D01*
X142291393Y-62420006D01*
X142230305Y-62647989D01*
X142199500Y-62881979D01*
X142199499Y-62881995D01*
X140799998Y-62881995D01*
X140769201Y-62648085D01*
X140708130Y-62420162D01*
X140617840Y-62202180D01*
X140617835Y-62202171D01*
X140499856Y-61997828D01*
X140499855Y-61997827D01*
X140437278Y-61916275D01*
X139601042Y-62752511D01*
X139576023Y-62692110D01*
X139504889Y-62585649D01*
X139414352Y-62495112D01*
X139307891Y-62423978D01*
X139247489Y-62398958D01*
X140083724Y-61562721D01*
X140002173Y-61500145D01*
X140002172Y-61500144D01*
X139797829Y-61382165D01*
X139797820Y-61382160D01*
X139579837Y-61291870D01*
X139579839Y-61291870D01*
X139351915Y-61230799D01*
X139117986Y-61200000D01*
X138882015Y-61200000D01*
X138648086Y-61230799D01*
X138420163Y-61291870D01*
X138202181Y-61382160D01*
X138202172Y-61382165D01*
X137997829Y-61500144D01*
X137997819Y-61500150D01*
X137916276Y-61562720D01*
X137916276Y-61562721D01*
X138752513Y-62398958D01*
X138692111Y-62423978D01*
X138585650Y-62495112D01*
X138495113Y-62585649D01*
X138423979Y-62692110D01*
X138398959Y-62752511D01*
X137562722Y-61916275D01*
X137562721Y-61916275D01*
X137500151Y-61997818D01*
X137500145Y-61997828D01*
X137382166Y-62202171D01*
X137382161Y-62202180D01*
X137291871Y-62420162D01*
X137230800Y-62648085D01*
X137200001Y-62882014D01*
X132800499Y-62882014D01*
X132800499Y-62495112D01*
X132800499Y-61610674D01*
X132800499Y-61399998D01*
X132800498Y-61399981D01*
X132789999Y-61297203D01*
X132789998Y-61297200D01*
X132779390Y-61265187D01*
X132734814Y-61130666D01*
X132642712Y-60981344D01*
X132518656Y-60857288D01*
X132369334Y-60765186D01*
X132202797Y-60710001D01*
X132202795Y-60710000D01*
X132100010Y-60699500D01*
X129899998Y-60699500D01*
X129899981Y-60699501D01*
X129797203Y-60710000D01*
X129797200Y-60710001D01*
X129630668Y-60765185D01*
X129630663Y-60765187D01*
X129481342Y-60857289D01*
X129357289Y-60981342D01*
X129265187Y-61130663D01*
X129265185Y-61130668D01*
X129260962Y-61143412D01*
X129210001Y-61297203D01*
X129210001Y-61297204D01*
X129210000Y-61297204D01*
X129199500Y-61399983D01*
X127425407Y-61399983D01*
X127356593Y-61310302D01*
X127356587Y-61310295D01*
X127189704Y-61143412D01*
X127189697Y-61143406D01*
X127002454Y-60999730D01*
X127002453Y-60999729D01*
X127002450Y-60999727D01*
X126920957Y-60952677D01*
X126798056Y-60881719D01*
X126798045Y-60881714D01*
X126579993Y-60791394D01*
X126352010Y-60730306D01*
X126118020Y-60699501D01*
X126118017Y-60699500D01*
X126118011Y-60699500D01*
X125881989Y-60699500D01*
X125881983Y-60699500D01*
X125881979Y-60699501D01*
X125647989Y-60730306D01*
X125420006Y-60791394D01*
X125201954Y-60881714D01*
X125201943Y-60881719D01*
X124997545Y-60999730D01*
X124810302Y-61143406D01*
X124810295Y-61143412D01*
X124643412Y-61310295D01*
X124643406Y-61310302D01*
X124499730Y-61497545D01*
X124381719Y-61701943D01*
X124381714Y-61701954D01*
X124291394Y-61920006D01*
X124230306Y-62147989D01*
X124199501Y-62381979D01*
X124199500Y-62381995D01*
X122800500Y-62381995D01*
X122800500Y-62381989D01*
X122769693Y-62147986D01*
X122708606Y-61920007D01*
X122618284Y-61701951D01*
X122618282Y-61701948D01*
X122618280Y-61701943D01*
X122565585Y-61610674D01*
X122500273Y-61497550D01*
X122356592Y-61310301D01*
X122356587Y-61310295D01*
X122189704Y-61143412D01*
X122189697Y-61143406D01*
X122002454Y-60999730D01*
X122002453Y-60999729D01*
X122002450Y-60999727D01*
X121920957Y-60952677D01*
X121798056Y-60881719D01*
X121798045Y-60881714D01*
X121579993Y-60791394D01*
X121352010Y-60730306D01*
X121118020Y-60699501D01*
X121118017Y-60699500D01*
X121118011Y-60699500D01*
X120881989Y-60699500D01*
X120881983Y-60699500D01*
X120881979Y-60699501D01*
X120647989Y-60730306D01*
X120420006Y-60791394D01*
X120201954Y-60881714D01*
X120201943Y-60881719D01*
X119997545Y-60999730D01*
X119810302Y-61143406D01*
X119810295Y-61143412D01*
X119643412Y-61310295D01*
X119643406Y-61310302D01*
X119499730Y-61497545D01*
X119381719Y-61701943D01*
X119381714Y-61701954D01*
X119291394Y-61920006D01*
X119230306Y-62147989D01*
X119199501Y-62381979D01*
X119199500Y-62381995D01*
X107692861Y-62381995D01*
X107618284Y-62201951D01*
X107618282Y-62201948D01*
X107618280Y-62201943D01*
X107576118Y-62128918D01*
X107500273Y-61997550D01*
X107356592Y-61810301D01*
X107356587Y-61810295D01*
X107189704Y-61643412D01*
X107189697Y-61643406D01*
X107002454Y-61499730D01*
X107002453Y-61499729D01*
X107002450Y-61499727D01*
X106920957Y-61452677D01*
X106798056Y-61381719D01*
X106798045Y-61381714D01*
X106579993Y-61291394D01*
X106352010Y-61230306D01*
X106118020Y-61199501D01*
X106118017Y-61199500D01*
X106118011Y-61199500D01*
X105881989Y-61199500D01*
X105881983Y-61199500D01*
X105881979Y-61199501D01*
X105647989Y-61230306D01*
X105420006Y-61291394D01*
X105201954Y-61381714D01*
X105201943Y-61381719D01*
X104997545Y-61499730D01*
X104810302Y-61643406D01*
X104810295Y-61643412D01*
X104643412Y-61810295D01*
X104643406Y-61810302D01*
X104499730Y-61997545D01*
X104499727Y-61997549D01*
X104499727Y-61997550D01*
X104492014Y-62010909D01*
X104381719Y-62201943D01*
X104381714Y-62201954D01*
X104291394Y-62420006D01*
X104230306Y-62647989D01*
X104199501Y-62881979D01*
X104199500Y-62881995D01*
X101500500Y-62881995D01*
X101500500Y-58624500D01*
X101520185Y-58557461D01*
X101572989Y-58511706D01*
X101624500Y-58500500D01*
X200375500Y-58500500D01*
X200442539Y-58520185D01*
G37*
%TD.AperFunction*%
%TD*%
M02*
