%TF.GenerationSoftware,KiCad,Pcbnew,9.0.3*%
%TF.CreationDate,2026-03-26T18:51:58-05:00*%
%TF.ProjectId,IR_Sensor_Support,49525f53-656e-4736-9f72-5f537570706f,rev?*%
%TF.SameCoordinates,Original*%
%TF.FileFunction,Copper,L1,Top*%
%TF.FilePolarity,Positive*%
%FSLAX46Y46*%
G04 Gerber Fmt 4.6, Leading zero omitted, Abs format (unit mm)*
G04 Created by KiCad (PCBNEW 9.0.3) date 2026-03-26 18:51:58*
%MOMM*%
%LPD*%
G01*
G04 APERTURE LIST*
G04 Aperture macros list*
%AMRoundRect*
0 Rectangle with rounded corners*
0 $1 Rounding radius*
0 $2 $3 $4 $5 $6 $7 $8 $9 X,Y pos of 4 corners*
0 Add a 4 corners polygon primitive as box body*
4,1,4,$2,$3,$4,$5,$6,$7,$8,$9,$2,$3,0*
0 Add four circle primitives for the rounded corners*
1,1,$1+$1,$2,$3*
1,1,$1+$1,$4,$5*
1,1,$1+$1,$6,$7*
1,1,$1+$1,$8,$9*
0 Add four rect primitives between the rounded corners*
20,1,$1+$1,$2,$3,$4,$5,0*
20,1,$1+$1,$4,$5,$6,$7,0*
20,1,$1+$1,$6,$7,$8,$9,0*
20,1,$1+$1,$8,$9,$2,$3,0*%
G04 Aperture macros list end*
%TA.AperFunction,SMDPad,CuDef*%
%ADD10RoundRect,0.250000X-0.450000X0.262500X-0.450000X-0.262500X0.450000X-0.262500X0.450000X0.262500X0*%
%TD*%
%TA.AperFunction,SMDPad,CuDef*%
%ADD11RoundRect,0.250000X0.250000X0.475000X-0.250000X0.475000X-0.250000X-0.475000X0.250000X-0.475000X0*%
%TD*%
%TA.AperFunction,SMDPad,CuDef*%
%ADD12RoundRect,0.250000X0.450000X-0.262500X0.450000X0.262500X-0.450000X0.262500X-0.450000X-0.262500X0*%
%TD*%
%TA.AperFunction,SMDPad,CuDef*%
%ADD13RoundRect,0.062500X-0.127500X-0.062500X0.127500X-0.062500X0.127500X0.062500X-0.127500X0.062500X0*%
%TD*%
%TA.AperFunction,SMDPad,CuDef*%
%ADD14RoundRect,0.125000X-0.125000X-0.125000X0.125000X-0.125000X0.125000X0.125000X-0.125000X0.125000X0*%
%TD*%
%TA.AperFunction,ComponentPad*%
%ADD15RoundRect,0.250000X-1.050000X-1.050000X1.050000X-1.050000X1.050000X1.050000X-1.050000X1.050000X0*%
%TD*%
%TA.AperFunction,ComponentPad*%
%ADD16C,2.600000*%
%TD*%
%TA.AperFunction,ViaPad*%
%ADD17C,0.600000*%
%TD*%
%TA.AperFunction,Conductor*%
%ADD18C,0.200000*%
%TD*%
G04 APERTURE END LIST*
D10*
%TO.P,R7,1*%
%TO.N,+3.3V*%
X86000000Y-72675000D03*
%TO.P,R7,2*%
%TO.N,/SDA*%
X86000000Y-74500000D03*
%TD*%
D11*
%TO.P,C4,1*%
%TO.N,+3.3V*%
X79449999Y-64999999D03*
%TO.P,C4,2*%
%TO.N,GND*%
X77550001Y-64999999D03*
%TD*%
D10*
%TO.P,R5,1*%
%TO.N,+3.3V*%
X92500000Y-72587500D03*
%TO.P,R5,2*%
%TO.N,/XSHUT2*%
X92500000Y-74412500D03*
%TD*%
D12*
%TO.P,R6,1*%
%TO.N,+3.3V*%
X78500000Y-74000000D03*
%TO.P,R6,2*%
%TO.N,/SCL*%
X78500000Y-72175000D03*
%TD*%
%TO.P,R8,1*%
%TO.N,+3.3V*%
X89500000Y-74412500D03*
%TO.P,R8,2*%
%TO.N,/GPIO1_2*%
X89500000Y-72587500D03*
%TD*%
D13*
%TO.P,U2,1,AVDDVCSEL*%
%TO.N,+3.3V*%
X84160000Y-68025000D03*
D14*
X84300000Y-67900000D03*
%TO.P,U2,2,AVSSVCSEL*%
%TO.N,GND*%
X85100000Y-67900000D03*
%TO.P,U2,3,GND*%
X85900000Y-67900000D03*
%TO.P,U2,4,GND*%
X86700000Y-67900000D03*
%TO.P,U2,5,XSHUT*%
%TO.N,/XSHUT2*%
X87500000Y-67900000D03*
%TO.P,U2,6,GND*%
%TO.N,GND*%
X87500000Y-68700000D03*
%TO.P,U2,7,GPIO1*%
%TO.N,/GPIO1_2*%
X87500000Y-69500000D03*
%TO.P,U2,8,DNC*%
%TO.N,unconnected-(U2-DNC-Pad8)*%
X86700000Y-69500000D03*
%TO.P,U2,9,SDA*%
%TO.N,/SDA*%
X85900000Y-69500000D03*
%TO.P,U2,10,SCL*%
%TO.N,/SCL*%
X85100000Y-69500000D03*
%TO.P,U2,11,AVDD*%
%TO.N,+3.3V*%
X84300000Y-69500000D03*
%TO.P,U2,12,GND*%
%TO.N,GND*%
X84300000Y-68700000D03*
%TD*%
D15*
%TO.P,J2,1,Pin_1*%
%TO.N,+3.3V*%
X70000000Y-82000000D03*
D16*
%TO.P,J2,2,Pin_2*%
%TO.N,/SCL*%
X75000000Y-82000000D03*
%TO.P,J2,3,Pin_3*%
%TO.N,/SDA*%
X80000000Y-82000000D03*
%TO.P,J2,4,Pin_4*%
%TO.N,/GPIO1_2*%
X85000000Y-82000000D03*
%TO.P,J2,5,Pin_5*%
%TO.N,/XSHUT2*%
X90000000Y-82000000D03*
%TO.P,J2,6,Pin_6*%
%TO.N,GND*%
X95000000Y-82000000D03*
%TD*%
D11*
%TO.P,C3,1*%
%TO.N,+3.3V*%
X79449999Y-68000000D03*
%TO.P,C3,2*%
%TO.N,GND*%
X77550001Y-68000000D03*
%TD*%
D17*
%TO.N,GND*%
X83000000Y-74500000D03*
X82500000Y-70500000D03*
X86000000Y-66500000D03*
X89000000Y-71000000D03*
X84500000Y-73000000D03*
X81000000Y-72000000D03*
X86000000Y-71000000D03*
X80000000Y-70500000D03*
X76500000Y-74500000D03*
%TO.N,+3.3V*%
X89500000Y-75500000D03*
X94000000Y-73000000D03*
%TD*%
D18*
%TO.N,GND*%
X84300000Y-68700000D02*
X84549999Y-68700000D01*
X85100000Y-68149999D02*
X85100000Y-67900000D01*
X86700000Y-67900000D02*
X86700000Y-67955918D01*
X85100000Y-67900000D02*
X85900000Y-67900000D01*
X85900000Y-67900000D02*
X85900000Y-66600000D01*
X85900000Y-67900000D02*
X86700000Y-67900000D01*
X85900000Y-66600000D02*
X86000000Y-66500000D01*
X86700000Y-67955918D02*
X87444082Y-68700000D01*
X84549999Y-68700000D02*
X85100000Y-68149999D01*
X87444082Y-68700000D02*
X87500000Y-68700000D01*
%TO.N,+3.3V*%
X84160000Y-68025000D02*
X84175000Y-68025000D01*
X93587500Y-72587500D02*
X94000000Y-73000000D01*
X84300000Y-69500000D02*
X84244082Y-69500000D01*
X80949999Y-69500000D02*
X81000000Y-69500000D01*
X83749000Y-69004918D02*
X83749000Y-68246001D01*
X89500000Y-74412500D02*
X89500000Y-75500000D01*
X79450001Y-65000001D02*
X79450000Y-67999999D01*
X70000000Y-82000000D02*
X70000000Y-79176340D01*
X84175000Y-68025000D02*
X84300000Y-67900000D01*
X79449999Y-68000000D02*
X80949999Y-69500000D01*
X83970001Y-68025000D02*
X84160000Y-68025000D01*
X84244082Y-69500000D02*
X83749000Y-69004918D01*
X83749000Y-68246001D02*
X83970001Y-68025000D01*
X81000000Y-69500000D02*
X84300000Y-69500000D01*
X92500000Y-72587500D02*
X93587500Y-72587500D01*
X79676340Y-69500000D02*
X81000000Y-69500000D01*
X70000000Y-79176340D02*
X79676340Y-69500000D01*
%TO.N,/GPIO1_2*%
X87500000Y-69500000D02*
X87500000Y-72000000D01*
X87500000Y-72000000D02*
X87500000Y-79500000D01*
X88087500Y-72587500D02*
X89500000Y-72587500D01*
X87500000Y-79500000D02*
X85000000Y-82000000D01*
X87500000Y-72000000D02*
X88087500Y-72587500D01*
%TO.N,/XSHUT2*%
X92500000Y-74412500D02*
X92500000Y-76000000D01*
X92500000Y-76000000D02*
X91000000Y-77500000D01*
X87749999Y-67900000D02*
X91000000Y-71150001D01*
X91000000Y-77500000D02*
X91000000Y-81000000D01*
X91000000Y-81000000D02*
X90000000Y-82000000D01*
X91000000Y-71150001D02*
X91000000Y-77500000D01*
X87500000Y-67900000D02*
X87749999Y-67900000D01*
%TO.N,/SDA*%
X86000000Y-74500000D02*
X84500000Y-74500000D01*
X85900000Y-69500000D02*
X85900000Y-69749999D01*
X82824999Y-72824999D02*
X80000000Y-75649999D01*
X84500000Y-74500000D02*
X82824999Y-72824999D01*
X80000000Y-75649999D02*
X80000000Y-82000000D01*
X85900000Y-69749999D02*
X82824999Y-72824999D01*
%TO.N,/SCL*%
X75000000Y-79849999D02*
X75000000Y-82000000D01*
X78500000Y-72175000D02*
X79175000Y-72175000D01*
X79175000Y-72175000D02*
X80924999Y-73924999D01*
X85100000Y-69749999D02*
X80924999Y-73924999D01*
X80924999Y-73924999D02*
X75000000Y-79849999D01*
X85100000Y-69500000D02*
X85100000Y-69749999D01*
%TD*%
%TA.AperFunction,Conductor*%
%TO.N,GND*%
G36*
X86372560Y-70217548D02*
G01*
X86476373Y-70247709D01*
X86511837Y-70250500D01*
X86775501Y-70250499D01*
X86842539Y-70270183D01*
X86888294Y-70322987D01*
X86899500Y-70374499D01*
X86899500Y-71599098D01*
X86879815Y-71666137D01*
X86827011Y-71711892D01*
X86757853Y-71721836D01*
X86736497Y-71716804D01*
X86602799Y-71672501D01*
X86602795Y-71672500D01*
X86500010Y-71662000D01*
X85499998Y-71662000D01*
X85499980Y-71662001D01*
X85397203Y-71672500D01*
X85397200Y-71672501D01*
X85230668Y-71727685D01*
X85230663Y-71727687D01*
X85081342Y-71819789D01*
X84957289Y-71943842D01*
X84865187Y-72093163D01*
X84865186Y-72093166D01*
X84810001Y-72259703D01*
X84810001Y-72259704D01*
X84810000Y-72259704D01*
X84799500Y-72362483D01*
X84799500Y-72987501D01*
X84799501Y-72987519D01*
X84810000Y-73090296D01*
X84810001Y-73090299D01*
X84865185Y-73256831D01*
X84865187Y-73256836D01*
X84872594Y-73268844D01*
X84940652Y-73379185D01*
X84957289Y-73406157D01*
X85050951Y-73499819D01*
X85052468Y-73502597D01*
X85055169Y-73504250D01*
X85069103Y-73533063D01*
X85084436Y-73561142D01*
X85084210Y-73564299D01*
X85085589Y-73567150D01*
X85081734Y-73598916D01*
X85079452Y-73630834D01*
X85077439Y-73634312D01*
X85077173Y-73636511D01*
X85070326Y-73646608D01*
X85058751Y-73666616D01*
X85055052Y-73671079D01*
X84957288Y-73768844D01*
X84908491Y-73847956D01*
X84902973Y-73854616D01*
X84880888Y-73869507D01*
X84861083Y-73887321D01*
X84851107Y-73889587D01*
X84845042Y-73893678D01*
X84831827Y-73893969D01*
X84807492Y-73899500D01*
X84800097Y-73899500D01*
X84784795Y-73895007D01*
X84775190Y-73895219D01*
X84765662Y-73889388D01*
X84733058Y-73879815D01*
X84712416Y-73863181D01*
X83761915Y-72912680D01*
X83728430Y-72851357D01*
X83733414Y-72781665D01*
X83761915Y-72737318D01*
X84987635Y-71511598D01*
X86250289Y-70248943D01*
X86311610Y-70215460D01*
X86372560Y-70217548D01*
G37*
%TD.AperFunction*%
%TA.AperFunction,Conductor*%
G36*
X83667940Y-70120185D02*
G01*
X83713695Y-70172989D01*
X83723639Y-70242147D01*
X83694614Y-70305703D01*
X83688582Y-70312181D01*
X81012680Y-72988083D01*
X80951357Y-73021568D01*
X80881665Y-73016584D01*
X80837318Y-72988083D01*
X79730415Y-71881180D01*
X79696930Y-71819857D01*
X79694738Y-71806099D01*
X79689999Y-71759703D01*
X79689998Y-71759700D01*
X79680915Y-71732289D01*
X79634814Y-71593166D01*
X79542712Y-71443844D01*
X79418656Y-71319788D01*
X79269334Y-71227686D01*
X79106055Y-71173580D01*
X79048611Y-71133808D01*
X79021788Y-71069292D01*
X79034103Y-71000517D01*
X79057375Y-70968198D01*
X79888756Y-70136819D01*
X79950079Y-70103334D01*
X79976437Y-70100500D01*
X80870941Y-70100500D01*
X80870942Y-70100500D01*
X80920943Y-70100500D01*
X83600901Y-70100500D01*
X83667940Y-70120185D01*
G37*
%TD.AperFunction*%
%TA.AperFunction,Conductor*%
G36*
X88455701Y-69455383D02*
G01*
X88462180Y-69461416D01*
X90363181Y-71362417D01*
X90377884Y-71389344D01*
X90394477Y-71415163D01*
X90395368Y-71421363D01*
X90396666Y-71423740D01*
X90399500Y-71450098D01*
X90399500Y-71511598D01*
X90379815Y-71578637D01*
X90327011Y-71624392D01*
X90257853Y-71634336D01*
X90236497Y-71629304D01*
X90102799Y-71585001D01*
X90102795Y-71585000D01*
X90000010Y-71574500D01*
X88999998Y-71574500D01*
X88999980Y-71574501D01*
X88897203Y-71585000D01*
X88897200Y-71585001D01*
X88730668Y-71640185D01*
X88730663Y-71640187D01*
X88581342Y-71732289D01*
X88457288Y-71856343D01*
X88443588Y-71878554D01*
X88426296Y-71894106D01*
X88412361Y-71912721D01*
X88400808Y-71917029D01*
X88391639Y-71925277D01*
X88368684Y-71929011D01*
X88346897Y-71937138D01*
X88334847Y-71934516D01*
X88322676Y-71936497D01*
X88301347Y-71927229D01*
X88278624Y-71922286D01*
X88262925Y-71910534D01*
X88258594Y-71908652D01*
X88250370Y-71901135D01*
X88136819Y-71787584D01*
X88103334Y-71726261D01*
X88100500Y-71699903D01*
X88100500Y-70083100D01*
X88119520Y-70018324D01*
X88119199Y-70018135D01*
X88119947Y-70016868D01*
X88120185Y-70016061D01*
X88121654Y-70013982D01*
X88123167Y-70011422D01*
X88123170Y-70011420D01*
X88203618Y-69875390D01*
X88247709Y-69723627D01*
X88250500Y-69688163D01*
X88250499Y-69549095D01*
X88270183Y-69482058D01*
X88322987Y-69436303D01*
X88392145Y-69426359D01*
X88455701Y-69455383D01*
G37*
%TD.AperFunction*%
%TA.AperFunction,Conductor*%
G36*
X97442539Y-62520185D02*
G01*
X97488294Y-62572989D01*
X97499500Y-62624500D01*
X97499500Y-86375500D01*
X97479815Y-86442539D01*
X97427011Y-86488294D01*
X97375500Y-86499500D01*
X67624500Y-86499500D01*
X67557461Y-86479815D01*
X67511706Y-86427011D01*
X67500500Y-86375500D01*
X67500500Y-80899983D01*
X68199500Y-80899983D01*
X68199500Y-83100001D01*
X68199501Y-83100018D01*
X68210000Y-83202796D01*
X68210001Y-83202799D01*
X68260962Y-83356587D01*
X68265186Y-83369334D01*
X68357288Y-83518656D01*
X68481344Y-83642712D01*
X68630666Y-83734814D01*
X68797203Y-83789999D01*
X68899991Y-83800500D01*
X71100008Y-83800499D01*
X71202797Y-83789999D01*
X71369334Y-83734814D01*
X71518656Y-83642712D01*
X71642712Y-83518656D01*
X71734814Y-83369334D01*
X71789999Y-83202797D01*
X71800500Y-83100009D01*
X71800499Y-80899992D01*
X71789999Y-80797203D01*
X71734814Y-80630666D01*
X71642712Y-80481344D01*
X71518656Y-80357288D01*
X71399953Y-80284072D01*
X71369336Y-80265187D01*
X71369331Y-80265185D01*
X71367862Y-80264698D01*
X71202797Y-80210001D01*
X71202795Y-80210000D01*
X71100016Y-80199500D01*
X71100009Y-80199500D01*
X70724500Y-80199500D01*
X70657461Y-80179815D01*
X70611706Y-80127011D01*
X70600500Y-80075500D01*
X70600500Y-79476436D01*
X70620185Y-79409397D01*
X70636814Y-79388760D01*
X77217502Y-72808071D01*
X77230640Y-72800897D01*
X77240719Y-72789827D01*
X77260684Y-72784492D01*
X77278823Y-72774588D01*
X77293755Y-72775655D01*
X77308220Y-72771791D01*
X77327900Y-72778097D01*
X77348515Y-72779572D01*
X77361599Y-72788896D01*
X77374757Y-72793113D01*
X77390331Y-72809372D01*
X77400856Y-72816873D01*
X77406263Y-72823432D01*
X77457288Y-72906156D01*
X77555159Y-73004027D01*
X77558945Y-73008619D01*
X77570431Y-73035494D01*
X77584436Y-73061142D01*
X77583999Y-73067241D01*
X77586404Y-73072867D01*
X77581536Y-73101686D01*
X77579452Y-73130834D01*
X77575601Y-73136825D01*
X77574768Y-73141761D01*
X77566815Y-73150496D01*
X77550951Y-73175181D01*
X77457289Y-73268842D01*
X77365187Y-73418163D01*
X77365185Y-73418168D01*
X77353137Y-73454527D01*
X77310001Y-73584703D01*
X77310001Y-73584704D01*
X77310000Y-73584704D01*
X77299500Y-73687483D01*
X77299500Y-74312501D01*
X77299501Y-74312519D01*
X77310000Y-74415296D01*
X77310001Y-74415299D01*
X77365185Y-74581831D01*
X77365186Y-74581834D01*
X77457288Y-74731156D01*
X77581344Y-74855212D01*
X77730666Y-74947314D01*
X77897203Y-75002499D01*
X77999991Y-75013000D01*
X78688401Y-75012999D01*
X78755439Y-75032683D01*
X78801194Y-75085487D01*
X78811138Y-75154646D01*
X78782113Y-75218202D01*
X78776081Y-75224680D01*
X74631286Y-79369477D01*
X74519481Y-79481281D01*
X74519480Y-79481283D01*
X74482661Y-79545056D01*
X74440423Y-79618214D01*
X74399499Y-79770942D01*
X74399499Y-79770944D01*
X74399499Y-79939045D01*
X74399500Y-79939058D01*
X74399500Y-80217033D01*
X74379815Y-80284072D01*
X74327011Y-80329827D01*
X74322954Y-80331594D01*
X74201950Y-80381716D01*
X74201943Y-80381719D01*
X73997545Y-80499730D01*
X73810302Y-80643406D01*
X73810295Y-80643412D01*
X73643412Y-80810295D01*
X73643406Y-80810302D01*
X73499730Y-80997545D01*
X73499727Y-80997549D01*
X73499727Y-80997550D01*
X73492014Y-81010909D01*
X73381719Y-81201943D01*
X73381714Y-81201954D01*
X73291394Y-81420006D01*
X73230306Y-81647989D01*
X73199501Y-81881979D01*
X73199500Y-81881995D01*
X73199500Y-82118004D01*
X73199501Y-82118020D01*
X73230306Y-82352010D01*
X73291394Y-82579993D01*
X73381714Y-82798045D01*
X73381719Y-82798056D01*
X73452677Y-82920957D01*
X73499727Y-83002450D01*
X73499729Y-83002453D01*
X73499730Y-83002454D01*
X73643406Y-83189697D01*
X73643412Y-83189704D01*
X73810295Y-83356587D01*
X73810302Y-83356593D01*
X73920306Y-83441001D01*
X73997550Y-83500273D01*
X74128918Y-83576118D01*
X74201943Y-83618280D01*
X74201948Y-83618282D01*
X74201951Y-83618284D01*
X74420007Y-83708606D01*
X74647986Y-83769693D01*
X74881989Y-83800500D01*
X74881996Y-83800500D01*
X75118004Y-83800500D01*
X75118011Y-83800500D01*
X75352014Y-83769693D01*
X75579993Y-83708606D01*
X75798049Y-83618284D01*
X76002450Y-83500273D01*
X76189699Y-83356592D01*
X76356592Y-83189699D01*
X76500273Y-83002450D01*
X76618284Y-82798049D01*
X76708606Y-82579993D01*
X76769693Y-82352014D01*
X76800500Y-82118011D01*
X76800500Y-81881989D01*
X76769693Y-81647986D01*
X76708606Y-81420007D01*
X76618284Y-81201951D01*
X76618282Y-81201948D01*
X76618280Y-81201943D01*
X76547331Y-81079057D01*
X76500273Y-80997550D01*
X76356592Y-80810301D01*
X76356587Y-80810295D01*
X76189704Y-80643412D01*
X76189697Y-80643406D01*
X76002454Y-80499730D01*
X76002453Y-80499729D01*
X76002450Y-80499727D01*
X75920957Y-80452677D01*
X75798056Y-80381719D01*
X75798049Y-80381716D01*
X75677046Y-80331594D01*
X75661480Y-80319050D01*
X75643297Y-80310746D01*
X75634832Y-80297575D01*
X75622643Y-80287752D01*
X75616330Y-80268784D01*
X75605523Y-80251968D01*
X75601560Y-80224405D01*
X75600579Y-80221458D01*
X75600500Y-80217033D01*
X75600500Y-80150096D01*
X75620185Y-80083057D01*
X75636819Y-80062415D01*
X79187819Y-76511415D01*
X79249142Y-76477930D01*
X79318834Y-76482914D01*
X79374767Y-76524786D01*
X79399184Y-76590250D01*
X79399500Y-76599096D01*
X79399500Y-80217033D01*
X79379815Y-80284072D01*
X79327011Y-80329827D01*
X79322954Y-80331594D01*
X79201950Y-80381716D01*
X79201943Y-80381719D01*
X78997545Y-80499730D01*
X78810302Y-80643406D01*
X78810295Y-80643412D01*
X78643412Y-80810295D01*
X78643406Y-80810302D01*
X78499730Y-80997545D01*
X78499727Y-80997549D01*
X78499727Y-80997550D01*
X78492014Y-81010909D01*
X78381719Y-81201943D01*
X78381714Y-81201954D01*
X78291394Y-81420006D01*
X78230306Y-81647989D01*
X78199501Y-81881979D01*
X78199500Y-81881995D01*
X78199500Y-82118004D01*
X78199501Y-82118020D01*
X78230306Y-82352010D01*
X78291394Y-82579993D01*
X78381714Y-82798045D01*
X78381719Y-82798056D01*
X78452677Y-82920957D01*
X78499727Y-83002450D01*
X78499729Y-83002453D01*
X78499730Y-83002454D01*
X78643406Y-83189697D01*
X78643412Y-83189704D01*
X78810295Y-83356587D01*
X78810302Y-83356593D01*
X78920306Y-83441001D01*
X78997550Y-83500273D01*
X79128918Y-83576118D01*
X79201943Y-83618280D01*
X79201948Y-83618282D01*
X79201951Y-83618284D01*
X79420007Y-83708606D01*
X79647986Y-83769693D01*
X79881989Y-83800500D01*
X79881996Y-83800500D01*
X80118004Y-83800500D01*
X80118011Y-83800500D01*
X80352014Y-83769693D01*
X80579993Y-83708606D01*
X80798049Y-83618284D01*
X81002450Y-83500273D01*
X81189699Y-83356592D01*
X81356592Y-83189699D01*
X81500273Y-83002450D01*
X81618284Y-82798049D01*
X81708606Y-82579993D01*
X81769693Y-82352014D01*
X81800500Y-82118011D01*
X81800500Y-81881989D01*
X81769693Y-81647986D01*
X81708606Y-81420007D01*
X81618284Y-81201951D01*
X81618282Y-81201948D01*
X81618280Y-81201943D01*
X81547331Y-81079057D01*
X81500273Y-80997550D01*
X81356592Y-80810301D01*
X81356587Y-80810295D01*
X81189704Y-80643412D01*
X81189697Y-80643406D01*
X81002454Y-80499730D01*
X81002453Y-80499729D01*
X81002450Y-80499727D01*
X80920957Y-80452677D01*
X80798056Y-80381719D01*
X80798049Y-80381716D01*
X80677046Y-80331594D01*
X80622643Y-80287752D01*
X80600579Y-80221458D01*
X80600500Y-80217033D01*
X80600500Y-75950095D01*
X80620185Y-75883056D01*
X80636814Y-75862419D01*
X82737318Y-73761914D01*
X82798641Y-73728430D01*
X82868333Y-73733414D01*
X82912680Y-73761915D01*
X84015139Y-74864374D01*
X84015149Y-74864385D01*
X84019479Y-74868715D01*
X84019480Y-74868716D01*
X84131284Y-74980520D01*
X84187540Y-75012999D01*
X84268215Y-75059577D01*
X84420943Y-75100500D01*
X84579057Y-75100500D01*
X84807492Y-75100500D01*
X84874531Y-75120185D01*
X84913029Y-75159401D01*
X84957288Y-75231156D01*
X85081344Y-75355212D01*
X85230666Y-75447314D01*
X85397203Y-75502499D01*
X85499991Y-75513000D01*
X86500008Y-75512999D01*
X86500016Y-75512998D01*
X86500019Y-75512998D01*
X86556302Y-75507248D01*
X86602797Y-75502499D01*
X86736497Y-75458194D01*
X86806324Y-75455793D01*
X86866366Y-75491524D01*
X86897559Y-75554045D01*
X86899500Y-75575901D01*
X86899500Y-79199902D01*
X86879815Y-79266941D01*
X86863181Y-79287583D01*
X85836128Y-80314635D01*
X85774805Y-80348120D01*
X85705113Y-80343136D01*
X85701014Y-80341523D01*
X85579993Y-80291394D01*
X85352014Y-80230307D01*
X85352013Y-80230306D01*
X85352010Y-80230306D01*
X85118020Y-80199501D01*
X85118017Y-80199500D01*
X85118011Y-80199500D01*
X84881989Y-80199500D01*
X84881983Y-80199500D01*
X84881979Y-80199501D01*
X84647989Y-80230306D01*
X84420006Y-80291394D01*
X84201954Y-80381714D01*
X84201943Y-80381719D01*
X83997545Y-80499730D01*
X83810302Y-80643406D01*
X83810295Y-80643412D01*
X83643412Y-80810295D01*
X83643406Y-80810302D01*
X83499730Y-80997545D01*
X83499727Y-80997549D01*
X83499727Y-80997550D01*
X83492014Y-81010909D01*
X83381719Y-81201943D01*
X83381714Y-81201954D01*
X83291394Y-81420006D01*
X83230306Y-81647989D01*
X83199501Y-81881979D01*
X83199500Y-81881995D01*
X83199500Y-82118004D01*
X83199501Y-82118020D01*
X83230306Y-82352010D01*
X83291394Y-82579993D01*
X83381714Y-82798045D01*
X83381719Y-82798056D01*
X83452677Y-82920957D01*
X83499727Y-83002450D01*
X83499729Y-83002453D01*
X83499730Y-83002454D01*
X83643406Y-83189697D01*
X83643412Y-83189704D01*
X83810295Y-83356587D01*
X83810302Y-83356593D01*
X83920306Y-83441001D01*
X83997550Y-83500273D01*
X84128918Y-83576118D01*
X84201943Y-83618280D01*
X84201948Y-83618282D01*
X84201951Y-83618284D01*
X84420007Y-83708606D01*
X84647986Y-83769693D01*
X84881989Y-83800500D01*
X84881996Y-83800500D01*
X85118004Y-83800500D01*
X85118011Y-83800500D01*
X85352014Y-83769693D01*
X85579993Y-83708606D01*
X85798049Y-83618284D01*
X86002450Y-83500273D01*
X86189699Y-83356592D01*
X86356592Y-83189699D01*
X86500273Y-83002450D01*
X86618284Y-82798049D01*
X86708606Y-82579993D01*
X86769693Y-82352014D01*
X86800500Y-82118011D01*
X86800500Y-81881989D01*
X86769693Y-81647986D01*
X86708606Y-81420007D01*
X86658484Y-81299003D01*
X86651015Y-81229534D01*
X86682290Y-81167054D01*
X86685336Y-81163897D01*
X87858506Y-79990728D01*
X87858511Y-79990724D01*
X87868714Y-79980520D01*
X87868716Y-79980520D01*
X87980520Y-79868716D01*
X88057191Y-79735917D01*
X88059577Y-79731785D01*
X88100501Y-79579057D01*
X88100501Y-79420943D01*
X88100501Y-79413348D01*
X88100500Y-79413330D01*
X88100500Y-74963988D01*
X88120185Y-74896949D01*
X88172989Y-74851194D01*
X88242147Y-74841250D01*
X88305703Y-74870275D01*
X88342205Y-74924982D01*
X88360609Y-74980521D01*
X88365185Y-74994331D01*
X88365187Y-74994336D01*
X88376699Y-75013000D01*
X88457288Y-75143656D01*
X88581344Y-75267712D01*
X88641085Y-75304560D01*
X88687810Y-75356507D01*
X88698127Y-75415066D01*
X88699500Y-75415066D01*
X88699500Y-75578846D01*
X88730261Y-75733489D01*
X88730264Y-75733501D01*
X88790602Y-75879172D01*
X88790609Y-75879185D01*
X88878210Y-76010288D01*
X88878213Y-76010292D01*
X88989707Y-76121786D01*
X88989711Y-76121789D01*
X89120814Y-76209390D01*
X89120827Y-76209397D01*
X89266498Y-76269735D01*
X89266503Y-76269737D01*
X89417307Y-76299734D01*
X89421153Y-76300499D01*
X89421156Y-76300500D01*
X89421158Y-76300500D01*
X89578844Y-76300500D01*
X89578845Y-76300499D01*
X89733497Y-76269737D01*
X89879179Y-76209394D01*
X90010289Y-76121789D01*
X90121789Y-76010289D01*
X90152730Y-75963981D01*
X90172398Y-75934548D01*
X90226010Y-75889743D01*
X90295335Y-75881036D01*
X90358363Y-75911190D01*
X90395082Y-75970634D01*
X90399500Y-76003439D01*
X90399500Y-77420939D01*
X90399499Y-77420943D01*
X90399499Y-77579057D01*
X90399500Y-77579060D01*
X90399500Y-80095164D01*
X90379815Y-80162203D01*
X90327011Y-80207958D01*
X90259315Y-80218103D01*
X90118020Y-80199501D01*
X90118017Y-80199500D01*
X90118011Y-80199500D01*
X89881989Y-80199500D01*
X89881983Y-80199500D01*
X89881979Y-80199501D01*
X89647989Y-80230306D01*
X89420006Y-80291394D01*
X89201954Y-80381714D01*
X89201943Y-80381719D01*
X88997545Y-80499730D01*
X88810302Y-80643406D01*
X88810295Y-80643412D01*
X88643412Y-80810295D01*
X88643406Y-80810302D01*
X88499730Y-80997545D01*
X88499727Y-80997549D01*
X88499727Y-80997550D01*
X88492014Y-81010909D01*
X88381719Y-81201943D01*
X88381714Y-81201954D01*
X88291394Y-81420006D01*
X88230306Y-81647989D01*
X88199501Y-81881979D01*
X88199500Y-81881995D01*
X88199500Y-82118004D01*
X88199501Y-82118020D01*
X88230306Y-82352010D01*
X88291394Y-82579993D01*
X88381714Y-82798045D01*
X88381719Y-82798056D01*
X88452677Y-82920957D01*
X88499727Y-83002450D01*
X88499729Y-83002453D01*
X88499730Y-83002454D01*
X88643406Y-83189697D01*
X88643412Y-83189704D01*
X88810295Y-83356587D01*
X88810302Y-83356593D01*
X88920306Y-83441001D01*
X88997550Y-83500273D01*
X89128918Y-83576118D01*
X89201943Y-83618280D01*
X89201948Y-83618282D01*
X89201951Y-83618284D01*
X89420007Y-83708606D01*
X89647986Y-83769693D01*
X89881989Y-83800500D01*
X89881996Y-83800500D01*
X90118004Y-83800500D01*
X90118011Y-83800500D01*
X90352014Y-83769693D01*
X90579993Y-83708606D01*
X90798049Y-83618284D01*
X91002450Y-83500273D01*
X91189699Y-83356592D01*
X91189704Y-83356587D01*
X91244648Y-83301644D01*
X91356587Y-83189704D01*
X91356592Y-83189699D01*
X91500273Y-83002450D01*
X91618284Y-82798049D01*
X91708606Y-82579993D01*
X91769693Y-82352014D01*
X91800500Y-82118011D01*
X91800500Y-81882014D01*
X93200000Y-81882014D01*
X93200000Y-82117985D01*
X93230799Y-82351914D01*
X93291870Y-82579837D01*
X93382160Y-82797819D01*
X93382165Y-82797828D01*
X93500144Y-83002171D01*
X93500145Y-83002172D01*
X93562721Y-83083723D01*
X94398958Y-82247487D01*
X94423978Y-82307890D01*
X94495112Y-82414351D01*
X94585649Y-82504888D01*
X94692110Y-82576022D01*
X94752511Y-82601041D01*
X93916275Y-83437277D01*
X93997827Y-83499854D01*
X93997828Y-83499855D01*
X94202171Y-83617834D01*
X94202180Y-83617839D01*
X94420163Y-83708129D01*
X94420161Y-83708129D01*
X94648085Y-83769200D01*
X94882014Y-83799999D01*
X94882029Y-83800000D01*
X95117971Y-83800000D01*
X95117985Y-83799999D01*
X95351914Y-83769200D01*
X95579837Y-83708129D01*
X95797819Y-83617839D01*
X95797828Y-83617834D01*
X96002181Y-83499850D01*
X96083723Y-83437279D01*
X96083723Y-83437276D01*
X95247487Y-82601041D01*
X95307890Y-82576022D01*
X95414351Y-82504888D01*
X95504888Y-82414351D01*
X95576022Y-82307890D01*
X95601041Y-82247487D01*
X96437276Y-83083723D01*
X96437279Y-83083723D01*
X96499850Y-83002181D01*
X96617834Y-82797828D01*
X96617839Y-82797819D01*
X96708129Y-82579837D01*
X96769200Y-82351914D01*
X96799999Y-82117985D01*
X96800000Y-82117971D01*
X96800000Y-81882028D01*
X96799999Y-81882014D01*
X96769200Y-81648085D01*
X96708129Y-81420162D01*
X96617839Y-81202180D01*
X96617834Y-81202171D01*
X96499855Y-80997828D01*
X96499854Y-80997827D01*
X96437277Y-80916275D01*
X95601041Y-81752511D01*
X95576022Y-81692110D01*
X95504888Y-81585649D01*
X95414351Y-81495112D01*
X95307890Y-81423978D01*
X95247488Y-81398958D01*
X96083723Y-80562721D01*
X96002172Y-80500145D01*
X96002171Y-80500144D01*
X95797828Y-80382165D01*
X95797819Y-80382160D01*
X95579836Y-80291870D01*
X95579838Y-80291870D01*
X95351914Y-80230799D01*
X95117985Y-80200000D01*
X94882014Y-80200000D01*
X94648085Y-80230799D01*
X94420162Y-80291870D01*
X94202180Y-80382160D01*
X94202171Y-80382165D01*
X93997828Y-80500144D01*
X93997818Y-80500150D01*
X93916275Y-80562720D01*
X93916275Y-80562721D01*
X94752512Y-81398958D01*
X94692110Y-81423978D01*
X94585649Y-81495112D01*
X94495112Y-81585649D01*
X94423978Y-81692110D01*
X94398958Y-81752511D01*
X93562721Y-80916275D01*
X93562720Y-80916275D01*
X93500150Y-80997818D01*
X93500144Y-80997828D01*
X93382165Y-81202171D01*
X93382160Y-81202180D01*
X93291870Y-81420162D01*
X93230799Y-81648085D01*
X93200000Y-81882014D01*
X91800500Y-81882014D01*
X91800500Y-81881989D01*
X91769693Y-81647986D01*
X91708606Y-81420007D01*
X91618284Y-81201951D01*
X91609327Y-81186438D01*
X91592798Y-81119867D01*
X91593313Y-81105877D01*
X91600501Y-81079057D01*
X91600501Y-80920942D01*
X91600500Y-80920938D01*
X91600500Y-77800096D01*
X91620185Y-77733057D01*
X91636814Y-77712420D01*
X92858506Y-76490727D01*
X92858511Y-76490724D01*
X92868714Y-76480520D01*
X92868716Y-76480520D01*
X92980520Y-76368716D01*
X93059577Y-76231784D01*
X93089534Y-76119981D01*
X93100500Y-76079058D01*
X93100500Y-75920943D01*
X93100500Y-75505300D01*
X93120185Y-75438261D01*
X93172989Y-75392506D01*
X93185482Y-75387599D01*
X93269334Y-75359814D01*
X93418656Y-75267712D01*
X93542712Y-75143656D01*
X93634814Y-74994334D01*
X93689999Y-74827797D01*
X93700500Y-74725009D01*
X93700499Y-74099992D01*
X93689999Y-73997203D01*
X93670899Y-73939565D01*
X93668498Y-73869740D01*
X93704229Y-73809697D01*
X93766749Y-73778504D01*
X93812798Y-73778946D01*
X93921155Y-73800500D01*
X93921158Y-73800500D01*
X94078844Y-73800500D01*
X94078845Y-73800499D01*
X94233497Y-73769737D01*
X94379179Y-73709394D01*
X94510289Y-73621789D01*
X94621789Y-73510289D01*
X94709394Y-73379179D01*
X94769737Y-73233497D01*
X94800500Y-73078842D01*
X94800500Y-72921158D01*
X94800500Y-72921155D01*
X94800499Y-72921153D01*
X94797516Y-72906156D01*
X94769737Y-72766503D01*
X94757648Y-72737318D01*
X94709397Y-72620827D01*
X94709390Y-72620814D01*
X94621789Y-72489711D01*
X94621786Y-72489707D01*
X94510292Y-72378213D01*
X94510288Y-72378210D01*
X94379185Y-72290609D01*
X94379172Y-72290602D01*
X94233501Y-72230264D01*
X94233491Y-72230261D01*
X94078151Y-72199362D01*
X94027918Y-72176926D01*
X94020882Y-72171646D01*
X93956216Y-72106980D01*
X93869404Y-72056860D01*
X93819285Y-72027923D01*
X93666557Y-71986999D01*
X93666555Y-71986999D01*
X93662319Y-71985864D01*
X93602659Y-71949499D01*
X93588874Y-71931185D01*
X93542712Y-71856344D01*
X93418657Y-71732289D01*
X93418656Y-71732288D01*
X93269334Y-71640186D01*
X93102797Y-71585001D01*
X93102795Y-71585000D01*
X93000010Y-71574500D01*
X91999998Y-71574500D01*
X91999980Y-71574501D01*
X91897203Y-71585000D01*
X91897200Y-71585001D01*
X91763504Y-71629304D01*
X91693675Y-71631706D01*
X91633634Y-71595974D01*
X91602441Y-71533453D01*
X91600500Y-71511598D01*
X91600500Y-71070946D01*
X91600500Y-71070944D01*
X91559577Y-70918217D01*
X91559573Y-70918210D01*
X91480524Y-70781291D01*
X91480521Y-70781287D01*
X91480520Y-70781285D01*
X91368716Y-70669481D01*
X91368715Y-70669480D01*
X91364385Y-70665150D01*
X91364374Y-70665140D01*
X88237588Y-67538354D01*
X88230519Y-67531285D01*
X88230519Y-67531284D01*
X88185416Y-67486181D01*
X88166367Y-67461622D01*
X88123174Y-67388585D01*
X88123165Y-67388574D01*
X88011425Y-67276834D01*
X88011416Y-67276827D01*
X87875390Y-67196382D01*
X87875385Y-67196380D01*
X87723633Y-67152292D01*
X87723620Y-67152290D01*
X87688163Y-67149500D01*
X87311849Y-67149500D01*
X87311824Y-67149501D01*
X87276376Y-67152290D01*
X87250692Y-67159751D01*
X87133696Y-67193741D01*
X87064508Y-67193741D01*
X86950000Y-67160472D01*
X86950000Y-67264047D01*
X86930315Y-67331086D01*
X86913681Y-67351728D01*
X86876834Y-67388574D01*
X86876827Y-67388583D01*
X86796382Y-67524609D01*
X86796380Y-67524614D01*
X86752292Y-67676366D01*
X86752290Y-67676379D01*
X86749500Y-67711829D01*
X86749500Y-68088150D01*
X86749501Y-68088175D01*
X86752291Y-68123627D01*
X86796380Y-68275385D01*
X86796382Y-68275390D01*
X86876827Y-68411416D01*
X86876834Y-68411425D01*
X86988574Y-68523165D01*
X86994743Y-68527950D01*
X86993237Y-68529891D01*
X87032650Y-68572096D01*
X87045158Y-68640837D01*
X87018517Y-68705428D01*
X86961184Y-68745363D01*
X86912123Y-68751385D01*
X86888175Y-68749500D01*
X86574000Y-68749500D01*
X86506961Y-68729815D01*
X86461206Y-68677011D01*
X86450000Y-68625500D01*
X86450000Y-68150000D01*
X85350000Y-68150000D01*
X85350000Y-68625500D01*
X85330315Y-68692539D01*
X85277511Y-68738294D01*
X85226000Y-68749500D01*
X84911849Y-68749500D01*
X84911822Y-68749502D01*
X84887873Y-68751386D01*
X84819497Y-68737019D01*
X84769742Y-68687966D01*
X84754405Y-68619801D01*
X84778357Y-68554164D01*
X84806130Y-68529076D01*
X84805257Y-68527950D01*
X84811413Y-68523173D01*
X84811420Y-68523170D01*
X84923170Y-68411420D01*
X85003618Y-68275390D01*
X85047709Y-68123627D01*
X85050500Y-68088163D01*
X85050499Y-67711838D01*
X85047709Y-67676373D01*
X85003618Y-67524610D01*
X84923170Y-67388580D01*
X84923168Y-67388578D01*
X84923165Y-67388574D01*
X84886319Y-67351728D01*
X84871615Y-67324800D01*
X84855023Y-67298982D01*
X84854131Y-67292781D01*
X84852834Y-67290405D01*
X84850000Y-67264047D01*
X84850000Y-67160472D01*
X85350000Y-67160472D01*
X85350000Y-67650000D01*
X85650000Y-67650000D01*
X85650000Y-67160472D01*
X86150000Y-67160472D01*
X86150000Y-67650000D01*
X86450000Y-67650000D01*
X86450000Y-67160472D01*
X86449999Y-67160472D01*
X86334595Y-67194001D01*
X86265405Y-67194001D01*
X86150000Y-67160472D01*
X85650000Y-67160472D01*
X85649999Y-67160472D01*
X85534595Y-67194001D01*
X85465405Y-67194001D01*
X85350000Y-67160472D01*
X84850000Y-67160472D01*
X84735492Y-67193741D01*
X84666303Y-67193741D01*
X84523627Y-67152291D01*
X84523624Y-67152290D01*
X84523622Y-67152290D01*
X84488163Y-67149500D01*
X84111849Y-67149500D01*
X84111824Y-67149501D01*
X84076372Y-67152291D01*
X83924614Y-67196380D01*
X83924609Y-67196382D01*
X83788583Y-67276827D01*
X83788574Y-67276834D01*
X83676834Y-67388574D01*
X83676827Y-67388583D01*
X83596384Y-67524604D01*
X83596380Y-67524615D01*
X83595116Y-67528965D01*
X83563724Y-67582039D01*
X83380285Y-67765480D01*
X83380284Y-67765481D01*
X83268480Y-67877285D01*
X83240586Y-67925600D01*
X83234821Y-67935584D01*
X83234820Y-67935586D01*
X83189423Y-68014215D01*
X83189423Y-68014216D01*
X83148499Y-68166944D01*
X83148499Y-68166946D01*
X83148499Y-68335047D01*
X83148500Y-68335060D01*
X83148500Y-68775500D01*
X83128815Y-68842539D01*
X83076011Y-68888294D01*
X83024500Y-68899500D01*
X81250096Y-68899500D01*
X81183057Y-68879815D01*
X81162415Y-68863181D01*
X80486817Y-68187583D01*
X80453332Y-68126260D01*
X80450498Y-68099902D01*
X80450498Y-67474998D01*
X80450497Y-67474981D01*
X80439998Y-67372203D01*
X80439997Y-67372200D01*
X80413680Y-67292781D01*
X80384813Y-67205666D01*
X80292711Y-67056344D01*
X80168655Y-66932288D01*
X80168651Y-66932285D01*
X80109403Y-66895740D01*
X80062678Y-66843792D01*
X80050500Y-66790202D01*
X80050500Y-66209795D01*
X80070185Y-66142756D01*
X80109402Y-66104257D01*
X80168655Y-66067711D01*
X80292711Y-65943655D01*
X80384813Y-65794333D01*
X80439998Y-65627796D01*
X80450499Y-65525008D01*
X80450498Y-64474991D01*
X80439998Y-64372202D01*
X80384813Y-64205665D01*
X80292711Y-64056343D01*
X80168655Y-63932287D01*
X80019333Y-63840185D01*
X79852796Y-63785000D01*
X79852794Y-63784999D01*
X79750009Y-63774499D01*
X79149997Y-63774499D01*
X79149979Y-63774500D01*
X79047202Y-63784999D01*
X79047199Y-63785000D01*
X78880667Y-63840184D01*
X78880662Y-63840186D01*
X78731341Y-63932288D01*
X78607287Y-64056342D01*
X78607283Y-64056347D01*
X78605240Y-64059660D01*
X78603246Y-64061452D01*
X78602806Y-64062010D01*
X78602710Y-64061934D01*
X78553289Y-64106381D01*
X78484326Y-64117598D01*
X78420246Y-64089751D01*
X78394169Y-64059655D01*
X78392320Y-64056658D01*
X78392317Y-64056654D01*
X78268346Y-63932683D01*
X78119125Y-63840642D01*
X78119120Y-63840640D01*
X77952698Y-63785493D01*
X77952691Y-63785492D01*
X77849987Y-63774999D01*
X77800001Y-63774999D01*
X77800001Y-66224998D01*
X77849973Y-66224998D01*
X77849987Y-66224997D01*
X77952698Y-66214504D01*
X78119120Y-66159357D01*
X78119125Y-66159355D01*
X78268346Y-66067314D01*
X78392317Y-65943343D01*
X78394163Y-65940351D01*
X78395967Y-65938727D01*
X78396799Y-65937676D01*
X78396978Y-65937818D01*
X78446107Y-65893622D01*
X78515069Y-65882395D01*
X78579153Y-65910234D01*
X78605246Y-65940346D01*
X78607287Y-65943655D01*
X78731343Y-66067711D01*
X78790598Y-66104259D01*
X78837321Y-66156204D01*
X78849500Y-66209796D01*
X78849500Y-66790200D01*
X78829815Y-66857239D01*
X78790598Y-66895738D01*
X78731343Y-66932287D01*
X78607287Y-67056343D01*
X78607283Y-67056348D01*
X78605240Y-67059661D01*
X78603246Y-67061453D01*
X78602806Y-67062011D01*
X78602710Y-67061935D01*
X78553289Y-67106382D01*
X78484326Y-67117599D01*
X78420246Y-67089752D01*
X78394169Y-67059656D01*
X78392320Y-67056659D01*
X78392317Y-67056655D01*
X78268346Y-66932684D01*
X78119125Y-66840643D01*
X78119120Y-66840641D01*
X77952698Y-66785494D01*
X77952691Y-66785493D01*
X77849987Y-66775000D01*
X77800001Y-66775000D01*
X77800001Y-69224999D01*
X77849973Y-69224999D01*
X77849987Y-69224998D01*
X77952698Y-69214505D01*
X78119120Y-69159358D01*
X78119125Y-69159356D01*
X78268346Y-69067315D01*
X78392317Y-68943344D01*
X78394163Y-68940352D01*
X78395967Y-68938728D01*
X78396799Y-68937677D01*
X78396978Y-68937819D01*
X78446107Y-68893623D01*
X78515069Y-68882396D01*
X78579153Y-68910235D01*
X78605246Y-68940347D01*
X78607287Y-68943656D01*
X78731343Y-69067712D01*
X78880665Y-69159814D01*
X78905122Y-69167918D01*
X78962565Y-69207687D01*
X78989390Y-69272203D01*
X78977076Y-69340979D01*
X78953799Y-69373304D01*
X69631286Y-78695818D01*
X69519481Y-78807622D01*
X69519479Y-78807625D01*
X69469361Y-78894434D01*
X69469359Y-78894436D01*
X69440425Y-78944549D01*
X69440424Y-78944550D01*
X69440423Y-78944555D01*
X69399499Y-79097283D01*
X69399499Y-79097285D01*
X69399499Y-79265386D01*
X69399500Y-79265399D01*
X69399500Y-80075500D01*
X69379815Y-80142539D01*
X69327011Y-80188294D01*
X69275500Y-80199500D01*
X68899998Y-80199500D01*
X68899980Y-80199501D01*
X68797203Y-80210000D01*
X68797200Y-80210001D01*
X68630668Y-80265185D01*
X68630663Y-80265187D01*
X68481342Y-80357289D01*
X68357289Y-80481342D01*
X68265187Y-80630663D01*
X68265185Y-80630668D01*
X68260962Y-80643412D01*
X68210001Y-80797203D01*
X68210001Y-80797204D01*
X68210000Y-80797204D01*
X68199500Y-80899983D01*
X67500500Y-80899983D01*
X67500500Y-68524986D01*
X76550002Y-68524986D01*
X76560495Y-68627697D01*
X76615642Y-68794119D01*
X76615644Y-68794124D01*
X76707685Y-68943345D01*
X76831655Y-69067315D01*
X76980876Y-69159356D01*
X76980881Y-69159358D01*
X77147303Y-69214505D01*
X77147310Y-69214506D01*
X77250020Y-69224999D01*
X77300000Y-69224998D01*
X77300001Y-69224998D01*
X77300001Y-68250000D01*
X76550002Y-68250000D01*
X76550002Y-68524986D01*
X67500500Y-68524986D01*
X67500500Y-67475013D01*
X76550001Y-67475013D01*
X76550001Y-67750000D01*
X77300001Y-67750000D01*
X77300001Y-66775000D01*
X77300000Y-66774999D01*
X77250030Y-66775000D01*
X77250012Y-66775001D01*
X77147303Y-66785494D01*
X76980881Y-66840641D01*
X76980876Y-66840643D01*
X76831655Y-66932684D01*
X76707685Y-67056654D01*
X76615644Y-67205875D01*
X76615642Y-67205880D01*
X76560495Y-67372302D01*
X76560494Y-67372309D01*
X76550001Y-67475013D01*
X67500500Y-67475013D01*
X67500500Y-65524985D01*
X76550002Y-65524985D01*
X76560495Y-65627696D01*
X76615642Y-65794118D01*
X76615644Y-65794123D01*
X76707685Y-65943344D01*
X76831655Y-66067314D01*
X76980876Y-66159355D01*
X76980881Y-66159357D01*
X77147303Y-66214504D01*
X77147310Y-66214505D01*
X77250020Y-66224998D01*
X77300000Y-66224997D01*
X77300001Y-66224997D01*
X77300001Y-65249999D01*
X76550002Y-65249999D01*
X76550002Y-65524985D01*
X67500500Y-65524985D01*
X67500500Y-64475012D01*
X76550001Y-64475012D01*
X76550001Y-64749999D01*
X77300001Y-64749999D01*
X77300001Y-63774999D01*
X77300000Y-63774998D01*
X77250030Y-63774999D01*
X77250012Y-63775000D01*
X77147303Y-63785493D01*
X76980881Y-63840640D01*
X76980876Y-63840642D01*
X76831655Y-63932683D01*
X76707685Y-64056653D01*
X76615644Y-64205874D01*
X76615642Y-64205879D01*
X76560495Y-64372301D01*
X76560494Y-64372308D01*
X76550001Y-64475012D01*
X67500500Y-64475012D01*
X67500500Y-62624500D01*
X67520185Y-62557461D01*
X67572989Y-62511706D01*
X67624500Y-62500500D01*
X97375500Y-62500500D01*
X97442539Y-62520185D01*
G37*
%TD.AperFunction*%
%TD*%
M02*
