%TF.GenerationSoftware,KiCad,Pcbnew,9.0.3*%
%TF.CreationDate,2026-03-26T18:51:58-05:00*%
%TF.ProjectId,IR_Sensor_Support,49525f53-656e-4736-9f72-5f537570706f,rev?*%
%TF.SameCoordinates,Original*%
%TF.FileFunction,Legend,Top*%
%TF.FilePolarity,Positive*%
%FSLAX46Y46*%
G04 Gerber Fmt 4.6, Leading zero omitted, Abs format (unit mm)*
G04 Created by KiCad (PCBNEW 9.0.3) date 2026-03-26 18:51:58*
%MOMM*%
%LPD*%
G01*
G04 APERTURE LIST*
%ADD10C,0.150000*%
%ADD11C,0.120000*%
G04 APERTURE END LIST*
D10*
X88104819Y-73754166D02*
X87628628Y-74087499D01*
X88104819Y-74325594D02*
X87104819Y-74325594D01*
X87104819Y-74325594D02*
X87104819Y-73944642D01*
X87104819Y-73944642D02*
X87152438Y-73849404D01*
X87152438Y-73849404D02*
X87200057Y-73801785D01*
X87200057Y-73801785D02*
X87295295Y-73754166D01*
X87295295Y-73754166D02*
X87438152Y-73754166D01*
X87438152Y-73754166D02*
X87533390Y-73801785D01*
X87533390Y-73801785D02*
X87581009Y-73849404D01*
X87581009Y-73849404D02*
X87628628Y-73944642D01*
X87628628Y-73944642D02*
X87628628Y-74325594D01*
X87104819Y-73420832D02*
X87104819Y-72754166D01*
X87104819Y-72754166D02*
X88104819Y-73182737D01*
X78333333Y-67039578D02*
X78285714Y-67087198D01*
X78285714Y-67087198D02*
X78142857Y-67134817D01*
X78142857Y-67134817D02*
X78047619Y-67134817D01*
X78047619Y-67134817D02*
X77904762Y-67087198D01*
X77904762Y-67087198D02*
X77809524Y-66991959D01*
X77809524Y-66991959D02*
X77761905Y-66896721D01*
X77761905Y-66896721D02*
X77714286Y-66706245D01*
X77714286Y-66706245D02*
X77714286Y-66563388D01*
X77714286Y-66563388D02*
X77761905Y-66372912D01*
X77761905Y-66372912D02*
X77809524Y-66277674D01*
X77809524Y-66277674D02*
X77904762Y-66182436D01*
X77904762Y-66182436D02*
X78047619Y-66134817D01*
X78047619Y-66134817D02*
X78142857Y-66134817D01*
X78142857Y-66134817D02*
X78285714Y-66182436D01*
X78285714Y-66182436D02*
X78333333Y-66230055D01*
X79190476Y-66468150D02*
X79190476Y-67134817D01*
X78952381Y-66087198D02*
X78714286Y-66801483D01*
X78714286Y-66801483D02*
X79333333Y-66801483D01*
X94604819Y-73666666D02*
X94128628Y-73999999D01*
X94604819Y-74238094D02*
X93604819Y-74238094D01*
X93604819Y-74238094D02*
X93604819Y-73857142D01*
X93604819Y-73857142D02*
X93652438Y-73761904D01*
X93652438Y-73761904D02*
X93700057Y-73714285D01*
X93700057Y-73714285D02*
X93795295Y-73666666D01*
X93795295Y-73666666D02*
X93938152Y-73666666D01*
X93938152Y-73666666D02*
X94033390Y-73714285D01*
X94033390Y-73714285D02*
X94081009Y-73761904D01*
X94081009Y-73761904D02*
X94128628Y-73857142D01*
X94128628Y-73857142D02*
X94128628Y-74238094D01*
X93604819Y-72761904D02*
X93604819Y-73238094D01*
X93604819Y-73238094D02*
X94081009Y-73285713D01*
X94081009Y-73285713D02*
X94033390Y-73238094D01*
X94033390Y-73238094D02*
X93985771Y-73142856D01*
X93985771Y-73142856D02*
X93985771Y-72904761D01*
X93985771Y-72904761D02*
X94033390Y-72809523D01*
X94033390Y-72809523D02*
X94081009Y-72761904D01*
X94081009Y-72761904D02*
X94176247Y-72714285D01*
X94176247Y-72714285D02*
X94414342Y-72714285D01*
X94414342Y-72714285D02*
X94509580Y-72761904D01*
X94509580Y-72761904D02*
X94557200Y-72809523D01*
X94557200Y-72809523D02*
X94604819Y-72904761D01*
X94604819Y-72904761D02*
X94604819Y-73142856D01*
X94604819Y-73142856D02*
X94557200Y-73238094D01*
X94557200Y-73238094D02*
X94509580Y-73285713D01*
X77304819Y-73254166D02*
X76828628Y-73587499D01*
X77304819Y-73825594D02*
X76304819Y-73825594D01*
X76304819Y-73825594D02*
X76304819Y-73444642D01*
X76304819Y-73444642D02*
X76352438Y-73349404D01*
X76352438Y-73349404D02*
X76400057Y-73301785D01*
X76400057Y-73301785D02*
X76495295Y-73254166D01*
X76495295Y-73254166D02*
X76638152Y-73254166D01*
X76638152Y-73254166D02*
X76733390Y-73301785D01*
X76733390Y-73301785D02*
X76781009Y-73349404D01*
X76781009Y-73349404D02*
X76828628Y-73444642D01*
X76828628Y-73444642D02*
X76828628Y-73825594D01*
X76304819Y-72397023D02*
X76304819Y-72587499D01*
X76304819Y-72587499D02*
X76352438Y-72682737D01*
X76352438Y-72682737D02*
X76400057Y-72730356D01*
X76400057Y-72730356D02*
X76542914Y-72825594D01*
X76542914Y-72825594D02*
X76733390Y-72873213D01*
X76733390Y-72873213D02*
X77114342Y-72873213D01*
X77114342Y-72873213D02*
X77209580Y-72825594D01*
X77209580Y-72825594D02*
X77257200Y-72777975D01*
X77257200Y-72777975D02*
X77304819Y-72682737D01*
X77304819Y-72682737D02*
X77304819Y-72492261D01*
X77304819Y-72492261D02*
X77257200Y-72397023D01*
X77257200Y-72397023D02*
X77209580Y-72349404D01*
X77209580Y-72349404D02*
X77114342Y-72301785D01*
X77114342Y-72301785D02*
X76876247Y-72301785D01*
X76876247Y-72301785D02*
X76781009Y-72349404D01*
X76781009Y-72349404D02*
X76733390Y-72397023D01*
X76733390Y-72397023D02*
X76685771Y-72492261D01*
X76685771Y-72492261D02*
X76685771Y-72682737D01*
X76685771Y-72682737D02*
X76733390Y-72777975D01*
X76733390Y-72777975D02*
X76781009Y-72825594D01*
X76781009Y-72825594D02*
X76876247Y-72873213D01*
X88304819Y-73666666D02*
X87828628Y-73999999D01*
X88304819Y-74238094D02*
X87304819Y-74238094D01*
X87304819Y-74238094D02*
X87304819Y-73857142D01*
X87304819Y-73857142D02*
X87352438Y-73761904D01*
X87352438Y-73761904D02*
X87400057Y-73714285D01*
X87400057Y-73714285D02*
X87495295Y-73666666D01*
X87495295Y-73666666D02*
X87638152Y-73666666D01*
X87638152Y-73666666D02*
X87733390Y-73714285D01*
X87733390Y-73714285D02*
X87781009Y-73761904D01*
X87781009Y-73761904D02*
X87828628Y-73857142D01*
X87828628Y-73857142D02*
X87828628Y-74238094D01*
X87733390Y-73095237D02*
X87685771Y-73190475D01*
X87685771Y-73190475D02*
X87638152Y-73238094D01*
X87638152Y-73238094D02*
X87542914Y-73285713D01*
X87542914Y-73285713D02*
X87495295Y-73285713D01*
X87495295Y-73285713D02*
X87400057Y-73238094D01*
X87400057Y-73238094D02*
X87352438Y-73190475D01*
X87352438Y-73190475D02*
X87304819Y-73095237D01*
X87304819Y-73095237D02*
X87304819Y-72904761D01*
X87304819Y-72904761D02*
X87352438Y-72809523D01*
X87352438Y-72809523D02*
X87400057Y-72761904D01*
X87400057Y-72761904D02*
X87495295Y-72714285D01*
X87495295Y-72714285D02*
X87542914Y-72714285D01*
X87542914Y-72714285D02*
X87638152Y-72761904D01*
X87638152Y-72761904D02*
X87685771Y-72809523D01*
X87685771Y-72809523D02*
X87733390Y-72904761D01*
X87733390Y-72904761D02*
X87733390Y-73095237D01*
X87733390Y-73095237D02*
X87781009Y-73190475D01*
X87781009Y-73190475D02*
X87828628Y-73238094D01*
X87828628Y-73238094D02*
X87923866Y-73285713D01*
X87923866Y-73285713D02*
X88114342Y-73285713D01*
X88114342Y-73285713D02*
X88209580Y-73238094D01*
X88209580Y-73238094D02*
X88257200Y-73190475D01*
X88257200Y-73190475D02*
X88304819Y-73095237D01*
X88304819Y-73095237D02*
X88304819Y-72904761D01*
X88304819Y-72904761D02*
X88257200Y-72809523D01*
X88257200Y-72809523D02*
X88209580Y-72761904D01*
X88209580Y-72761904D02*
X88114342Y-72714285D01*
X88114342Y-72714285D02*
X87923866Y-72714285D01*
X87923866Y-72714285D02*
X87828628Y-72761904D01*
X87828628Y-72761904D02*
X87781009Y-72809523D01*
X87781009Y-72809523D02*
X87733390Y-72904761D01*
X85138095Y-65954819D02*
X85138095Y-66764342D01*
X85138095Y-66764342D02*
X85185714Y-66859580D01*
X85185714Y-66859580D02*
X85233333Y-66907200D01*
X85233333Y-66907200D02*
X85328571Y-66954819D01*
X85328571Y-66954819D02*
X85519047Y-66954819D01*
X85519047Y-66954819D02*
X85614285Y-66907200D01*
X85614285Y-66907200D02*
X85661904Y-66859580D01*
X85661904Y-66859580D02*
X85709523Y-66764342D01*
X85709523Y-66764342D02*
X85709523Y-65954819D01*
X86138095Y-66050057D02*
X86185714Y-66002438D01*
X86185714Y-66002438D02*
X86280952Y-65954819D01*
X86280952Y-65954819D02*
X86519047Y-65954819D01*
X86519047Y-65954819D02*
X86614285Y-66002438D01*
X86614285Y-66002438D02*
X86661904Y-66050057D01*
X86661904Y-66050057D02*
X86709523Y-66145295D01*
X86709523Y-66145295D02*
X86709523Y-66240533D01*
X86709523Y-66240533D02*
X86661904Y-66383390D01*
X86661904Y-66383390D02*
X86090476Y-66954819D01*
X86090476Y-66954819D02*
X86709523Y-66954819D01*
X82166666Y-75134819D02*
X82166666Y-75849104D01*
X82166666Y-75849104D02*
X82119047Y-75991961D01*
X82119047Y-75991961D02*
X82023809Y-76087200D01*
X82023809Y-76087200D02*
X81880952Y-76134819D01*
X81880952Y-76134819D02*
X81785714Y-76134819D01*
X82595238Y-75230057D02*
X82642857Y-75182438D01*
X82642857Y-75182438D02*
X82738095Y-75134819D01*
X82738095Y-75134819D02*
X82976190Y-75134819D01*
X82976190Y-75134819D02*
X83071428Y-75182438D01*
X83071428Y-75182438D02*
X83119047Y-75230057D01*
X83119047Y-75230057D02*
X83166666Y-75325295D01*
X83166666Y-75325295D02*
X83166666Y-75420533D01*
X83166666Y-75420533D02*
X83119047Y-75563390D01*
X83119047Y-75563390D02*
X82547619Y-76134819D01*
X82547619Y-76134819D02*
X83166666Y-76134819D01*
X78333333Y-70039579D02*
X78285714Y-70087199D01*
X78285714Y-70087199D02*
X78142857Y-70134818D01*
X78142857Y-70134818D02*
X78047619Y-70134818D01*
X78047619Y-70134818D02*
X77904762Y-70087199D01*
X77904762Y-70087199D02*
X77809524Y-69991960D01*
X77809524Y-69991960D02*
X77761905Y-69896722D01*
X77761905Y-69896722D02*
X77714286Y-69706246D01*
X77714286Y-69706246D02*
X77714286Y-69563389D01*
X77714286Y-69563389D02*
X77761905Y-69372913D01*
X77761905Y-69372913D02*
X77809524Y-69277675D01*
X77809524Y-69277675D02*
X77904762Y-69182437D01*
X77904762Y-69182437D02*
X78047619Y-69134818D01*
X78047619Y-69134818D02*
X78142857Y-69134818D01*
X78142857Y-69134818D02*
X78285714Y-69182437D01*
X78285714Y-69182437D02*
X78333333Y-69230056D01*
X78666667Y-69134818D02*
X79285714Y-69134818D01*
X79285714Y-69134818D02*
X78952381Y-69515770D01*
X78952381Y-69515770D02*
X79095238Y-69515770D01*
X79095238Y-69515770D02*
X79190476Y-69563389D01*
X79190476Y-69563389D02*
X79238095Y-69611008D01*
X79238095Y-69611008D02*
X79285714Y-69706246D01*
X79285714Y-69706246D02*
X79285714Y-69944341D01*
X79285714Y-69944341D02*
X79238095Y-70039579D01*
X79238095Y-70039579D02*
X79190476Y-70087199D01*
X79190476Y-70087199D02*
X79095238Y-70134818D01*
X79095238Y-70134818D02*
X78809524Y-70134818D01*
X78809524Y-70134818D02*
X78714286Y-70087199D01*
X78714286Y-70087199D02*
X78666667Y-70039579D01*
D11*
%TO.C,R7*%
X85265000Y-73360436D02*
X85265000Y-73814564D01*
X86735000Y-73360436D02*
X86735000Y-73814564D01*
%TO.C,C4*%
X78761253Y-64264999D02*
X78238747Y-64264999D01*
X78761253Y-65734999D02*
X78238747Y-65734999D01*
%TO.C,R5*%
X91765000Y-73272936D02*
X91765000Y-73727064D01*
X93235000Y-73272936D02*
X93235000Y-73727064D01*
%TO.C,R6*%
X77765000Y-73314564D02*
X77765000Y-72860436D01*
X79235000Y-73314564D02*
X79235000Y-72860436D01*
%TO.C,R8*%
X88765000Y-73727064D02*
X88765000Y-73272936D01*
X90235000Y-73727064D02*
X90235000Y-73272936D01*
%TO.C,U2*%
X83350000Y-67650000D02*
X83350000Y-70050000D01*
X83350000Y-70050000D02*
X88450000Y-70050000D01*
X88450000Y-67350000D02*
X83650000Y-67350000D01*
X88450000Y-70050000D02*
X88450000Y-67350000D01*
X83350000Y-67350000D02*
X83070000Y-67350000D01*
X83350000Y-67070000D01*
X83350000Y-67350000D01*
G36*
X83350000Y-67350000D02*
G01*
X83070000Y-67350000D01*
X83350000Y-67070000D01*
X83350000Y-67350000D01*
G37*
%TO.C,J2*%
X67380000Y-76680000D02*
X97620000Y-76680000D01*
X67380000Y-79700000D02*
X97620000Y-79700000D01*
X67380000Y-84600000D02*
X97620000Y-84600000D01*
X67380000Y-86100000D02*
X97620000Y-86100000D01*
X67380000Y-86720000D02*
X67380000Y-76680000D01*
X69700000Y-86720000D02*
X67380000Y-86720000D01*
X97620000Y-76680000D02*
X97620000Y-86720000D01*
X97620000Y-86720000D02*
X70300000Y-86720000D01*
X70440000Y-87330000D02*
X69560000Y-87330000D01*
X70000000Y-86720000D01*
X70440000Y-87330000D01*
G36*
X70440000Y-87330000D02*
G01*
X69560000Y-87330000D01*
X70000000Y-86720000D01*
X70440000Y-87330000D01*
G37*
%TO.C,C3*%
X78761253Y-67265000D02*
X78238747Y-67265000D01*
X78761253Y-68735000D02*
X78238747Y-68735000D01*
%TD*%
M02*
