%TF.GenerationSoftware,KiCad,Pcbnew,9.0.3*%
%TF.CreationDate,2026-03-26T18:51:58-05:00*%
%TF.ProjectId,IR_Sensor_Support,49525f53-656e-4736-9f72-5f537570706f,rev?*%
%TF.SameCoordinates,Original*%
%TF.FileFunction,Copper,L2,Bot*%
%TF.FilePolarity,Positive*%
%FSLAX46Y46*%
G04 Gerber Fmt 4.6, Leading zero omitted, Abs format (unit mm)*
G04 Created by KiCad (PCBNEW 9.0.3) date 2026-03-26 18:51:58*
%MOMM*%
%LPD*%
G01*
G04 APERTURE LIST*
G04 Aperture macros list*
%AMRoundRect*
0 Rectangle with rounded corners*
0 $1 Rounding radius*
0 $2 $3 $4 $5 $6 $7 $8 $9 X,Y pos of 4 corners*
0 Add a 4 corners polygon primitive as box body*
4,1,4,$2,$3,$4,$5,$6,$7,$8,$9,$2,$3,0*
0 Add four circle primitives for the rounded corners*
1,1,$1+$1,$2,$3*
1,1,$1+$1,$4,$5*
1,1,$1+$1,$6,$7*
1,1,$1+$1,$8,$9*
0 Add four rect primitives between the rounded corners*
20,1,$1+$1,$2,$3,$4,$5,0*
20,1,$1+$1,$4,$5,$6,$7,0*
20,1,$1+$1,$6,$7,$8,$9,0*
20,1,$1+$1,$8,$9,$2,$3,0*%
G04 Aperture macros list end*
%TA.AperFunction,ComponentPad*%
%ADD10RoundRect,0.250000X-1.050000X-1.050000X1.050000X-1.050000X1.050000X1.050000X-1.050000X1.050000X0*%
%TD*%
%TA.AperFunction,ComponentPad*%
%ADD11C,2.600000*%
%TD*%
%TA.AperFunction,ViaPad*%
%ADD12C,0.600000*%
%TD*%
%TA.AperFunction,Conductor*%
%ADD13C,0.200000*%
%TD*%
G04 APERTURE END LIST*
D10*
%TO.P,J2,1,Pin_1*%
%TO.N,+3.3V*%
X70000000Y-82000000D03*
D11*
%TO.P,J2,2,Pin_2*%
%TO.N,/SCL*%
X75000000Y-82000000D03*
%TO.P,J2,3,Pin_3*%
%TO.N,/SDA*%
X80000000Y-82000000D03*
%TO.P,J2,4,Pin_4*%
%TO.N,/GPIO1_2*%
X85000000Y-82000000D03*
%TO.P,J2,5,Pin_5*%
%TO.N,/XSHUT2*%
X90000000Y-82000000D03*
%TO.P,J2,6,Pin_6*%
%TO.N,GND*%
X95000000Y-82000000D03*
%TD*%
D12*
%TO.N,GND*%
X83000000Y-74500000D03*
X82500000Y-70500000D03*
X86000000Y-66500000D03*
X89000000Y-71000000D03*
X84500000Y-73000000D03*
X81000000Y-72000000D03*
X86000000Y-71000000D03*
X80000000Y-70500000D03*
X76500000Y-74500000D03*
%TO.N,+3.3V*%
X89500000Y-75500000D03*
X94000000Y-73000000D03*
%TD*%
D13*
%TO.N,+3.3V*%
X91500000Y-75500000D02*
X89500000Y-75500000D01*
X76500000Y-75500000D02*
X70000000Y-82000000D01*
X89500000Y-75500000D02*
X76500000Y-75500000D01*
X94000000Y-73000000D02*
X91500000Y-75500000D01*
%TD*%
%TA.AperFunction,Conductor*%
%TO.N,GND*%
G36*
X97442539Y-62520185D02*
G01*
X97488294Y-62572989D01*
X97499500Y-62624500D01*
X97499500Y-86375500D01*
X97479815Y-86442539D01*
X97427011Y-86488294D01*
X97375500Y-86499500D01*
X67624500Y-86499500D01*
X67557461Y-86479815D01*
X67511706Y-86427011D01*
X67500500Y-86375500D01*
X67500500Y-80899983D01*
X68199500Y-80899983D01*
X68199500Y-83100001D01*
X68199501Y-83100018D01*
X68210000Y-83202796D01*
X68210001Y-83202799D01*
X68260962Y-83356587D01*
X68265186Y-83369334D01*
X68357288Y-83518656D01*
X68481344Y-83642712D01*
X68630666Y-83734814D01*
X68797203Y-83789999D01*
X68899991Y-83800500D01*
X71100008Y-83800499D01*
X71202797Y-83789999D01*
X71369334Y-83734814D01*
X71518656Y-83642712D01*
X71642712Y-83518656D01*
X71734814Y-83369334D01*
X71789999Y-83202797D01*
X71800500Y-83100009D01*
X71800499Y-81881995D01*
X73199500Y-81881995D01*
X73199500Y-82118004D01*
X73199501Y-82118020D01*
X73230306Y-82352010D01*
X73291394Y-82579993D01*
X73381714Y-82798045D01*
X73381719Y-82798056D01*
X73452677Y-82920957D01*
X73499727Y-83002450D01*
X73499729Y-83002453D01*
X73499730Y-83002454D01*
X73643406Y-83189697D01*
X73643412Y-83189704D01*
X73810295Y-83356587D01*
X73810302Y-83356593D01*
X73920306Y-83441001D01*
X73997550Y-83500273D01*
X74128918Y-83576118D01*
X74201943Y-83618280D01*
X74201948Y-83618282D01*
X74201951Y-83618284D01*
X74420007Y-83708606D01*
X74647986Y-83769693D01*
X74881989Y-83800500D01*
X74881996Y-83800500D01*
X75118004Y-83800500D01*
X75118011Y-83800500D01*
X75352014Y-83769693D01*
X75579993Y-83708606D01*
X75798049Y-83618284D01*
X76002450Y-83500273D01*
X76189699Y-83356592D01*
X76356592Y-83189699D01*
X76500273Y-83002450D01*
X76618284Y-82798049D01*
X76708606Y-82579993D01*
X76769693Y-82352014D01*
X76800500Y-82118011D01*
X76800500Y-81881995D01*
X78199500Y-81881995D01*
X78199500Y-82118004D01*
X78199501Y-82118020D01*
X78230306Y-82352010D01*
X78291394Y-82579993D01*
X78381714Y-82798045D01*
X78381719Y-82798056D01*
X78452677Y-82920957D01*
X78499727Y-83002450D01*
X78499729Y-83002453D01*
X78499730Y-83002454D01*
X78643406Y-83189697D01*
X78643412Y-83189704D01*
X78810295Y-83356587D01*
X78810302Y-83356593D01*
X78920306Y-83441001D01*
X78997550Y-83500273D01*
X79128918Y-83576118D01*
X79201943Y-83618280D01*
X79201948Y-83618282D01*
X79201951Y-83618284D01*
X79420007Y-83708606D01*
X79647986Y-83769693D01*
X79881989Y-83800500D01*
X79881996Y-83800500D01*
X80118004Y-83800500D01*
X80118011Y-83800500D01*
X80352014Y-83769693D01*
X80579993Y-83708606D01*
X80798049Y-83618284D01*
X81002450Y-83500273D01*
X81189699Y-83356592D01*
X81356592Y-83189699D01*
X81500273Y-83002450D01*
X81618284Y-82798049D01*
X81708606Y-82579993D01*
X81769693Y-82352014D01*
X81800500Y-82118011D01*
X81800500Y-81881995D01*
X83199500Y-81881995D01*
X83199500Y-82118004D01*
X83199501Y-82118020D01*
X83230306Y-82352010D01*
X83291394Y-82579993D01*
X83381714Y-82798045D01*
X83381719Y-82798056D01*
X83452677Y-82920957D01*
X83499727Y-83002450D01*
X83499729Y-83002453D01*
X83499730Y-83002454D01*
X83643406Y-83189697D01*
X83643412Y-83189704D01*
X83810295Y-83356587D01*
X83810302Y-83356593D01*
X83920306Y-83441001D01*
X83997550Y-83500273D01*
X84128918Y-83576118D01*
X84201943Y-83618280D01*
X84201948Y-83618282D01*
X84201951Y-83618284D01*
X84420007Y-83708606D01*
X84647986Y-83769693D01*
X84881989Y-83800500D01*
X84881996Y-83800500D01*
X85118004Y-83800500D01*
X85118011Y-83800500D01*
X85352014Y-83769693D01*
X85579993Y-83708606D01*
X85798049Y-83618284D01*
X86002450Y-83500273D01*
X86189699Y-83356592D01*
X86356592Y-83189699D01*
X86500273Y-83002450D01*
X86618284Y-82798049D01*
X86708606Y-82579993D01*
X86769693Y-82352014D01*
X86800500Y-82118011D01*
X86800500Y-81881995D01*
X88199500Y-81881995D01*
X88199500Y-82118004D01*
X88199501Y-82118020D01*
X88230306Y-82352010D01*
X88291394Y-82579993D01*
X88381714Y-82798045D01*
X88381719Y-82798056D01*
X88452677Y-82920957D01*
X88499727Y-83002450D01*
X88499729Y-83002453D01*
X88499730Y-83002454D01*
X88643406Y-83189697D01*
X88643412Y-83189704D01*
X88810295Y-83356587D01*
X88810302Y-83356593D01*
X88920306Y-83441001D01*
X88997550Y-83500273D01*
X89128918Y-83576118D01*
X89201943Y-83618280D01*
X89201948Y-83618282D01*
X89201951Y-83618284D01*
X89420007Y-83708606D01*
X89647986Y-83769693D01*
X89881989Y-83800500D01*
X89881996Y-83800500D01*
X90118004Y-83800500D01*
X90118011Y-83800500D01*
X90352014Y-83769693D01*
X90579993Y-83708606D01*
X90798049Y-83618284D01*
X91002450Y-83500273D01*
X91189699Y-83356592D01*
X91189704Y-83356587D01*
X91244648Y-83301644D01*
X91356587Y-83189704D01*
X91356592Y-83189699D01*
X91500273Y-83002450D01*
X91618284Y-82798049D01*
X91708606Y-82579993D01*
X91769693Y-82352014D01*
X91800500Y-82118011D01*
X91800500Y-81882014D01*
X93200000Y-81882014D01*
X93200000Y-82117985D01*
X93230799Y-82351914D01*
X93291870Y-82579837D01*
X93382160Y-82797819D01*
X93382165Y-82797828D01*
X93500144Y-83002171D01*
X93500145Y-83002172D01*
X93562721Y-83083723D01*
X94398958Y-82247487D01*
X94423978Y-82307890D01*
X94495112Y-82414351D01*
X94585649Y-82504888D01*
X94692110Y-82576022D01*
X94752511Y-82601041D01*
X93916275Y-83437277D01*
X93997827Y-83499854D01*
X93997828Y-83499855D01*
X94202171Y-83617834D01*
X94202180Y-83617839D01*
X94420163Y-83708129D01*
X94420161Y-83708129D01*
X94648085Y-83769200D01*
X94882014Y-83799999D01*
X94882029Y-83800000D01*
X95117971Y-83800000D01*
X95117985Y-83799999D01*
X95351914Y-83769200D01*
X95579837Y-83708129D01*
X95797819Y-83617839D01*
X95797828Y-83617834D01*
X96002181Y-83499850D01*
X96083723Y-83437279D01*
X96083723Y-83437276D01*
X95247487Y-82601041D01*
X95307890Y-82576022D01*
X95414351Y-82504888D01*
X95504888Y-82414351D01*
X95576022Y-82307890D01*
X95601041Y-82247487D01*
X96437276Y-83083723D01*
X96437279Y-83083723D01*
X96499850Y-83002181D01*
X96617834Y-82797828D01*
X96617839Y-82797819D01*
X96708129Y-82579837D01*
X96769200Y-82351914D01*
X96799999Y-82117985D01*
X96800000Y-82117971D01*
X96800000Y-81882028D01*
X96799999Y-81882014D01*
X96769200Y-81648085D01*
X96708129Y-81420162D01*
X96617839Y-81202180D01*
X96617834Y-81202171D01*
X96499855Y-80997828D01*
X96499854Y-80997827D01*
X96437277Y-80916275D01*
X95601041Y-81752511D01*
X95576022Y-81692110D01*
X95504888Y-81585649D01*
X95414351Y-81495112D01*
X95307890Y-81423978D01*
X95247488Y-81398958D01*
X96083723Y-80562721D01*
X96002172Y-80500145D01*
X96002171Y-80500144D01*
X95797828Y-80382165D01*
X95797819Y-80382160D01*
X95579836Y-80291870D01*
X95579838Y-80291870D01*
X95351914Y-80230799D01*
X95117985Y-80200000D01*
X94882014Y-80200000D01*
X94648085Y-80230799D01*
X94420162Y-80291870D01*
X94202180Y-80382160D01*
X94202171Y-80382165D01*
X93997828Y-80500144D01*
X93997818Y-80500150D01*
X93916275Y-80562720D01*
X93916275Y-80562721D01*
X94752512Y-81398958D01*
X94692110Y-81423978D01*
X94585649Y-81495112D01*
X94495112Y-81585649D01*
X94423978Y-81692110D01*
X94398958Y-81752511D01*
X93562721Y-80916275D01*
X93562720Y-80916275D01*
X93500150Y-80997818D01*
X93500144Y-80997828D01*
X93382165Y-81202171D01*
X93382160Y-81202180D01*
X93291870Y-81420162D01*
X93230799Y-81648085D01*
X93200000Y-81882014D01*
X91800500Y-81882014D01*
X91800500Y-81881989D01*
X91769693Y-81647986D01*
X91708606Y-81420007D01*
X91618284Y-81201951D01*
X91618282Y-81201948D01*
X91618280Y-81201943D01*
X91559478Y-81100096D01*
X91500273Y-80997550D01*
X91356592Y-80810301D01*
X91356587Y-80810295D01*
X91189704Y-80643412D01*
X91189697Y-80643406D01*
X91002454Y-80499730D01*
X91002453Y-80499729D01*
X91002450Y-80499727D01*
X90920957Y-80452677D01*
X90798056Y-80381719D01*
X90798045Y-80381714D01*
X90579993Y-80291394D01*
X90352010Y-80230306D01*
X90118020Y-80199501D01*
X90118017Y-80199500D01*
X90118011Y-80199500D01*
X89881989Y-80199500D01*
X89881983Y-80199500D01*
X89881979Y-80199501D01*
X89647989Y-80230306D01*
X89420006Y-80291394D01*
X89201954Y-80381714D01*
X89201943Y-80381719D01*
X88997545Y-80499730D01*
X88810302Y-80643406D01*
X88810295Y-80643412D01*
X88643412Y-80810295D01*
X88643406Y-80810302D01*
X88499730Y-80997545D01*
X88499727Y-80997549D01*
X88499727Y-80997550D01*
X88492014Y-81010909D01*
X88381719Y-81201943D01*
X88381714Y-81201954D01*
X88291394Y-81420006D01*
X88230306Y-81647989D01*
X88199501Y-81881979D01*
X88199500Y-81881995D01*
X86800500Y-81881995D01*
X86800500Y-81881989D01*
X86769693Y-81647986D01*
X86708606Y-81420007D01*
X86618284Y-81201951D01*
X86618282Y-81201948D01*
X86618280Y-81201943D01*
X86559478Y-81100096D01*
X86500273Y-80997550D01*
X86356592Y-80810301D01*
X86356587Y-80810295D01*
X86189704Y-80643412D01*
X86189697Y-80643406D01*
X86002454Y-80499730D01*
X86002453Y-80499729D01*
X86002450Y-80499727D01*
X85920957Y-80452677D01*
X85798056Y-80381719D01*
X85798045Y-80381714D01*
X85579993Y-80291394D01*
X85352010Y-80230306D01*
X85118020Y-80199501D01*
X85118017Y-80199500D01*
X85118011Y-80199500D01*
X84881989Y-80199500D01*
X84881983Y-80199500D01*
X84881979Y-80199501D01*
X84647989Y-80230306D01*
X84420006Y-80291394D01*
X84201954Y-80381714D01*
X84201943Y-80381719D01*
X83997545Y-80499730D01*
X83810302Y-80643406D01*
X83810295Y-80643412D01*
X83643412Y-80810295D01*
X83643406Y-80810302D01*
X83499730Y-80997545D01*
X83499727Y-80997549D01*
X83499727Y-80997550D01*
X83492014Y-81010909D01*
X83381719Y-81201943D01*
X83381714Y-81201954D01*
X83291394Y-81420006D01*
X83230306Y-81647989D01*
X83199501Y-81881979D01*
X83199500Y-81881995D01*
X81800500Y-81881995D01*
X81800500Y-81881989D01*
X81769693Y-81647986D01*
X81708606Y-81420007D01*
X81618284Y-81201951D01*
X81618282Y-81201948D01*
X81618280Y-81201943D01*
X81559478Y-81100096D01*
X81500273Y-80997550D01*
X81356592Y-80810301D01*
X81356587Y-80810295D01*
X81189704Y-80643412D01*
X81189697Y-80643406D01*
X81002454Y-80499730D01*
X81002453Y-80499729D01*
X81002450Y-80499727D01*
X80920957Y-80452677D01*
X80798056Y-80381719D01*
X80798045Y-80381714D01*
X80579993Y-80291394D01*
X80352010Y-80230306D01*
X80118020Y-80199501D01*
X80118017Y-80199500D01*
X80118011Y-80199500D01*
X79881989Y-80199500D01*
X79881983Y-80199500D01*
X79881979Y-80199501D01*
X79647989Y-80230306D01*
X79420006Y-80291394D01*
X79201954Y-80381714D01*
X79201943Y-80381719D01*
X78997545Y-80499730D01*
X78810302Y-80643406D01*
X78810295Y-80643412D01*
X78643412Y-80810295D01*
X78643406Y-80810302D01*
X78499730Y-80997545D01*
X78499727Y-80997549D01*
X78499727Y-80997550D01*
X78492014Y-81010909D01*
X78381719Y-81201943D01*
X78381714Y-81201954D01*
X78291394Y-81420006D01*
X78230306Y-81647989D01*
X78199501Y-81881979D01*
X78199500Y-81881995D01*
X76800500Y-81881995D01*
X76800500Y-81881989D01*
X76769693Y-81647986D01*
X76708606Y-81420007D01*
X76618284Y-81201951D01*
X76618282Y-81201948D01*
X76618280Y-81201943D01*
X76559478Y-81100096D01*
X76500273Y-80997550D01*
X76356592Y-80810301D01*
X76356587Y-80810295D01*
X76189704Y-80643412D01*
X76189697Y-80643406D01*
X76002454Y-80499730D01*
X76002453Y-80499729D01*
X76002450Y-80499727D01*
X75920957Y-80452677D01*
X75798056Y-80381719D01*
X75798045Y-80381714D01*
X75579993Y-80291394D01*
X75352010Y-80230306D01*
X75118020Y-80199501D01*
X75118017Y-80199500D01*
X75118011Y-80199500D01*
X74881989Y-80199500D01*
X74881983Y-80199500D01*
X74881979Y-80199501D01*
X74647989Y-80230306D01*
X74420006Y-80291394D01*
X74201954Y-80381714D01*
X74201943Y-80381719D01*
X73997545Y-80499730D01*
X73810302Y-80643406D01*
X73810295Y-80643412D01*
X73643412Y-80810295D01*
X73643406Y-80810302D01*
X73499730Y-80997545D01*
X73499727Y-80997549D01*
X73499727Y-80997550D01*
X73492014Y-81010909D01*
X73381719Y-81201943D01*
X73381714Y-81201954D01*
X73291394Y-81420006D01*
X73230306Y-81647989D01*
X73199501Y-81881979D01*
X73199500Y-81881995D01*
X71800499Y-81881995D01*
X71800499Y-81100095D01*
X71820184Y-81033057D01*
X71836813Y-81012420D01*
X76712416Y-76136819D01*
X76773739Y-76103334D01*
X76800097Y-76100500D01*
X88920234Y-76100500D01*
X88987273Y-76120185D01*
X88989125Y-76121398D01*
X89120814Y-76209390D01*
X89120827Y-76209397D01*
X89266498Y-76269735D01*
X89266503Y-76269737D01*
X89421153Y-76300499D01*
X89421156Y-76300500D01*
X89421158Y-76300500D01*
X89578844Y-76300500D01*
X89578845Y-76300499D01*
X89733497Y-76269737D01*
X89879179Y-76209394D01*
X89879185Y-76209390D01*
X90010875Y-76121398D01*
X90077553Y-76100520D01*
X90079766Y-76100500D01*
X91413331Y-76100500D01*
X91413347Y-76100501D01*
X91420943Y-76100501D01*
X91579054Y-76100501D01*
X91579057Y-76100501D01*
X91731785Y-76059577D01*
X91781904Y-76030639D01*
X91868716Y-75980520D01*
X91980520Y-75868716D01*
X91980520Y-75868714D01*
X91990728Y-75858507D01*
X91990729Y-75858504D01*
X94014662Y-73834572D01*
X94075983Y-73801089D01*
X94078150Y-73800638D01*
X94136085Y-73789113D01*
X94233497Y-73769737D01*
X94379179Y-73709394D01*
X94510289Y-73621789D01*
X94621789Y-73510289D01*
X94709394Y-73379179D01*
X94769737Y-73233497D01*
X94800500Y-73078842D01*
X94800500Y-72921158D01*
X94800500Y-72921155D01*
X94800499Y-72921153D01*
X94769738Y-72766510D01*
X94769738Y-72766508D01*
X94769737Y-72766503D01*
X94769735Y-72766498D01*
X94709397Y-72620827D01*
X94709390Y-72620814D01*
X94621789Y-72489711D01*
X94621786Y-72489707D01*
X94510292Y-72378213D01*
X94510288Y-72378210D01*
X94379185Y-72290609D01*
X94379172Y-72290602D01*
X94233501Y-72230264D01*
X94233489Y-72230261D01*
X94078845Y-72199500D01*
X94078842Y-72199500D01*
X93921158Y-72199500D01*
X93921155Y-72199500D01*
X93766510Y-72230261D01*
X93766498Y-72230264D01*
X93620827Y-72290602D01*
X93620814Y-72290609D01*
X93489711Y-72378210D01*
X93489707Y-72378213D01*
X93378213Y-72489707D01*
X93378210Y-72489711D01*
X93290609Y-72620814D01*
X93290602Y-72620827D01*
X93230264Y-72766498D01*
X93230261Y-72766508D01*
X93199361Y-72921850D01*
X93166976Y-72983761D01*
X93165425Y-72985339D01*
X91287584Y-74863181D01*
X91226261Y-74896666D01*
X91199903Y-74899500D01*
X90079766Y-74899500D01*
X90012727Y-74879815D01*
X90010875Y-74878602D01*
X89879185Y-74790609D01*
X89879172Y-74790602D01*
X89733501Y-74730264D01*
X89733489Y-74730261D01*
X89578845Y-74699500D01*
X89578842Y-74699500D01*
X89421158Y-74699500D01*
X89421155Y-74699500D01*
X89266510Y-74730261D01*
X89266498Y-74730264D01*
X89120827Y-74790602D01*
X89120814Y-74790609D01*
X88989125Y-74878602D01*
X88922447Y-74899480D01*
X88920234Y-74899500D01*
X76579057Y-74899500D01*
X76420943Y-74899500D01*
X76268215Y-74940423D01*
X76268214Y-74940423D01*
X76268212Y-74940424D01*
X76268209Y-74940425D01*
X76218096Y-74969359D01*
X76218095Y-74969360D01*
X76174689Y-74994420D01*
X76131285Y-75019479D01*
X76131282Y-75019481D01*
X76019478Y-75131286D01*
X70987582Y-80163181D01*
X70926259Y-80196666D01*
X70899901Y-80199500D01*
X68899998Y-80199500D01*
X68899981Y-80199501D01*
X68797203Y-80210000D01*
X68797200Y-80210001D01*
X68630668Y-80265185D01*
X68630663Y-80265187D01*
X68481342Y-80357289D01*
X68357289Y-80481342D01*
X68265187Y-80630663D01*
X68265185Y-80630668D01*
X68260962Y-80643412D01*
X68210001Y-80797203D01*
X68210001Y-80797204D01*
X68210000Y-80797204D01*
X68199500Y-80899983D01*
X67500500Y-80899983D01*
X67500500Y-62624500D01*
X67520185Y-62557461D01*
X67572989Y-62511706D01*
X67624500Y-62500500D01*
X97375500Y-62500500D01*
X97442539Y-62520185D01*
G37*
%TD.AperFunction*%
%TD*%
M02*
