%TF.GenerationSoftware,KiCad,Pcbnew,9.0.3*%
%TF.CreationDate,2026-03-05T18:51:17-06:00*%
%TF.ProjectId,Food_Dispenser_Control,466f6f64-5f44-4697-9370-656e7365725f,rev?*%
%TF.SameCoordinates,Original*%
%TF.FileFunction,Soldermask,Top*%
%TF.FilePolarity,Negative*%
%FSLAX46Y46*%
G04 Gerber Fmt 4.6, Leading zero omitted, Abs format (unit mm)*
G04 Created by KiCad (PCBNEW 9.0.3) date 2026-03-05 18:51:17*
%MOMM*%
%LPD*%
G01*
G04 APERTURE LIST*
G04 Aperture macros list*
%AMRoundRect*
0 Rectangle with rounded corners*
0 $1 Rounding radius*
0 $2 $3 $4 $5 $6 $7 $8 $9 X,Y pos of 4 corners*
0 Add a 4 corners polygon primitive as box body*
4,1,4,$2,$3,$4,$5,$6,$7,$8,$9,$2,$3,0*
0 Add four circle primitives for the rounded corners*
1,1,$1+$1,$2,$3*
1,1,$1+$1,$4,$5*
1,1,$1+$1,$6,$7*
1,1,$1+$1,$8,$9*
0 Add four rect primitives between the rounded corners*
20,1,$1+$1,$2,$3,$4,$5,0*
20,1,$1+$1,$4,$5,$6,$7,0*
20,1,$1+$1,$6,$7,$8,$9,0*
20,1,$1+$1,$8,$9,$2,$3,0*%
G04 Aperture macros list end*
%ADD10C,0.650000*%
%ADD11RoundRect,0.150000X-0.150000X-0.425000X0.150000X-0.425000X0.150000X0.425000X-0.150000X0.425000X0*%
%ADD12RoundRect,0.075000X-0.075000X-0.500000X0.075000X-0.500000X0.075000X0.500000X-0.075000X0.500000X0*%
%ADD13O,1.000000X2.100000*%
%ADD14O,1.000000X1.800000*%
%ADD15C,3.200000*%
%ADD16RoundRect,0.250000X0.450000X-0.350000X0.450000X0.350000X-0.450000X0.350000X-0.450000X-0.350000X0*%
%ADD17RoundRect,0.100000X0.637500X0.100000X-0.637500X0.100000X-0.637500X-0.100000X0.637500X-0.100000X0*%
%ADD18RoundRect,0.250000X-0.450000X0.350000X-0.450000X-0.350000X0.450000X-0.350000X0.450000X0.350000X0*%
%ADD19RoundRect,0.250000X-0.325000X-0.450000X0.325000X-0.450000X0.325000X0.450000X-0.325000X0.450000X0*%
%ADD20RoundRect,0.250000X0.337500X0.475000X-0.337500X0.475000X-0.337500X-0.475000X0.337500X-0.475000X0*%
%ADD21C,2.000000*%
%ADD22R,0.900000X1.500000*%
%ADD23R,1.500000X0.900000*%
%ADD24R,0.900000X0.900000*%
%ADD25C,1.500000*%
%ADD26RoundRect,0.250000X0.777817X0.000000X0.000000X0.777817X-0.777817X0.000000X0.000000X-0.777817X0*%
%ADD27C,1.600000*%
%ADD28RoundRect,0.150000X-0.512500X-0.150000X0.512500X-0.150000X0.512500X0.150000X-0.512500X0.150000X0*%
%ADD29RoundRect,0.250000X-0.350000X-0.450000X0.350000X-0.450000X0.350000X0.450000X-0.350000X0.450000X0*%
%ADD30RoundRect,0.250000X0.475000X-0.337500X0.475000X0.337500X-0.475000X0.337500X-0.475000X-0.337500X0*%
%ADD31RoundRect,0.150000X-0.850000X-0.150000X0.850000X-0.150000X0.850000X0.150000X-0.850000X0.150000X0*%
%ADD32RoundRect,0.250000X0.350000X0.450000X-0.350000X0.450000X-0.350000X-0.450000X0.350000X-0.450000X0*%
%ADD33RoundRect,0.250000X1.050000X1.050000X-1.050000X1.050000X-1.050000X-1.050000X1.050000X-1.050000X0*%
%ADD34C,2.600000*%
%ADD35RoundRect,0.250000X1.050000X-1.050000X1.050000X1.050000X-1.050000X1.050000X-1.050000X-1.050000X0*%
%ADD36RoundRect,0.250000X-1.050000X1.050000X-1.050000X-1.050000X1.050000X-1.050000X1.050000X1.050000X0*%
%ADD37RoundRect,0.250000X-1.050000X-1.050000X1.050000X-1.050000X1.050000X1.050000X-1.050000X1.050000X0*%
%ADD38RoundRect,0.250000X0.325000X0.450000X-0.325000X0.450000X-0.325000X-0.450000X0.325000X-0.450000X0*%
%ADD39RoundRect,0.250000X-0.337500X-0.475000X0.337500X-0.475000X0.337500X0.475000X-0.337500X0.475000X0*%
G04 APERTURE END LIST*
D10*
%TO.C,J2*%
X153110000Y-151390000D03*
X158890000Y-151390000D03*
D11*
X152800000Y-150315000D03*
X153600000Y-150315000D03*
D12*
X154750000Y-150315000D03*
X155750000Y-150315000D03*
X156250000Y-150315000D03*
X157250000Y-150315000D03*
D11*
X158400000Y-150315000D03*
X159200000Y-150315000D03*
X158400000Y-150315000D03*
D12*
X157750000Y-150315000D03*
X156750000Y-150315000D03*
X155250000Y-150315000D03*
X154250000Y-150315000D03*
D11*
X153600000Y-150315000D03*
D13*
X151680000Y-150890000D03*
D14*
X151680000Y-155070000D03*
D13*
X160320000Y-150890000D03*
D14*
X160320000Y-155070000D03*
%TD*%
D15*
%TO.C,H4*%
X175000000Y-153500000D03*
%TD*%
%TO.C,H3*%
X106000000Y-153000000D03*
%TD*%
%TO.C,H2*%
X106000000Y-63000000D03*
%TD*%
%TO.C,H1*%
X196000000Y-63000000D03*
%TD*%
D16*
%TO.C,R29*%
X172250000Y-97250000D03*
X172250000Y-95250000D03*
%TD*%
%TO.C,R24*%
X185000000Y-96462500D03*
X185000000Y-98462500D03*
%TD*%
D17*
%TO.C,U5*%
X175637500Y-142775000D03*
X175637500Y-142125000D03*
X175637500Y-141475000D03*
X175637500Y-140825000D03*
X175637500Y-140175000D03*
X175637500Y-139525000D03*
X175637500Y-138875000D03*
X175637500Y-138225000D03*
X181362500Y-138225000D03*
X181362500Y-138875000D03*
X181362500Y-139525000D03*
X181362500Y-140175000D03*
X181362500Y-140825000D03*
X181362500Y-141475000D03*
X181362500Y-142125000D03*
X181362500Y-142775000D03*
%TD*%
%TO.C,U6*%
X176637500Y-124275000D03*
X176637500Y-123625000D03*
X176637500Y-122975000D03*
X176637500Y-122325000D03*
X176637500Y-121675000D03*
X176637500Y-121025000D03*
X176637500Y-120375000D03*
X176637500Y-119725000D03*
X182362500Y-119725000D03*
X182362500Y-120375000D03*
X182362500Y-121025000D03*
X182362500Y-121675000D03*
X182362500Y-122325000D03*
X182362500Y-122975000D03*
X182362500Y-123625000D03*
X182362500Y-124275000D03*
%TD*%
D18*
%TO.C,R27*%
X161500000Y-124500000D03*
X161500000Y-122500000D03*
%TD*%
D19*
%TO.C,D3*%
X149025000Y-134000000D03*
X146975000Y-134000000D03*
%TD*%
D20*
%TO.C,C26*%
X146712500Y-127500000D03*
X148787500Y-127500000D03*
%TD*%
%TO.C,C25*%
X146712500Y-125000000D03*
X148787500Y-125000000D03*
%TD*%
D21*
%TO.C,SW1*%
X169000000Y-96500000D03*
X162500000Y-96500000D03*
X169000000Y-92000000D03*
X162500000Y-92000000D03*
%TD*%
D22*
%TO.C,U9*%
X144740000Y-120345000D03*
X146010000Y-120345000D03*
X147280000Y-120345000D03*
X148550000Y-120345000D03*
X149820000Y-120345000D03*
X151090000Y-120345000D03*
X152360000Y-120345000D03*
X153630000Y-120345000D03*
X154900000Y-120345000D03*
X156170000Y-120345000D03*
X157440000Y-120345000D03*
X158710000Y-120345000D03*
X159980000Y-120345000D03*
X161250000Y-120345000D03*
D23*
X162500000Y-118579999D03*
X162500000Y-117310000D03*
X162500000Y-116040000D03*
X162499999Y-114770000D03*
X162500000Y-113500000D03*
X162500000Y-112230000D03*
X162500000Y-110960000D03*
X162500000Y-109690000D03*
X162499999Y-108420000D03*
X162500000Y-107150000D03*
X162500000Y-105880000D03*
X162500000Y-104610001D03*
D22*
X161250000Y-102845000D03*
X159980000Y-102845000D03*
X158710000Y-102845000D03*
X157440000Y-102845000D03*
X156170000Y-102845000D03*
X154900000Y-102845000D03*
X153630000Y-102845000D03*
X152360000Y-102845000D03*
X151090000Y-102845000D03*
X149820000Y-102845000D03*
X148550000Y-102845000D03*
X147280000Y-102845000D03*
X146010000Y-102845000D03*
X144740000Y-102845000D03*
D24*
X151060000Y-114495000D03*
X152460000Y-114495000D03*
X153860000Y-114495000D03*
X153860000Y-114495000D03*
X151060000Y-113095000D03*
X151060000Y-113095000D03*
X152460000Y-113095000D03*
X153860000Y-113095000D03*
X151060000Y-111695000D03*
X152460000Y-111695000D03*
X153860000Y-111695000D03*
%TD*%
D21*
%TO.C,SW2*%
X128209999Y-121995000D03*
X134710000Y-121994999D03*
X128210000Y-126495000D03*
X134710000Y-126495000D03*
%TD*%
D25*
%TO.C,J5*%
X144210000Y-145495000D03*
%TD*%
D26*
%TO.C,SW3*%
X145210000Y-140685542D03*
D27*
X139821846Y-135297388D03*
%TD*%
D28*
%TO.C,U1*%
X151572500Y-136045000D03*
X151572500Y-136995000D03*
X151572500Y-137945000D03*
X153847500Y-137945000D03*
X153847500Y-136045000D03*
%TD*%
D29*
%TO.C,R3*%
X147210000Y-131500000D03*
X149210000Y-131500000D03*
%TD*%
%TO.C,R1*%
X146000000Y-136000000D03*
X148000000Y-136000000D03*
%TD*%
D30*
%TO.C,C3*%
X155000000Y-143537500D03*
X155000000Y-141462500D03*
%TD*%
D17*
%TO.C,U8*%
X182362500Y-106275000D03*
X182362500Y-105625000D03*
X182362500Y-104975000D03*
X182362500Y-104325000D03*
X182362500Y-103675000D03*
X182362500Y-103025000D03*
X182362500Y-102375000D03*
X182362500Y-101725000D03*
X176637500Y-101725000D03*
X176637500Y-102375000D03*
X176637500Y-103025000D03*
X176637500Y-103675000D03*
X176637500Y-104325000D03*
X176637500Y-104975000D03*
X176637500Y-105625000D03*
X176637500Y-106275000D03*
%TD*%
D31*
%TO.C,U7*%
X128000000Y-86555000D03*
X128000000Y-87825000D03*
X128000000Y-89095000D03*
X128000000Y-90365000D03*
X128000000Y-91635000D03*
X128000000Y-92905000D03*
X128000000Y-94175000D03*
X128000000Y-95445000D03*
X133000000Y-95445000D03*
X133000000Y-94175000D03*
X133000000Y-92905000D03*
X133000000Y-91635000D03*
X133000000Y-90365000D03*
X133000000Y-89095000D03*
X133000000Y-87825000D03*
X133000000Y-86555000D03*
%TD*%
D28*
%TO.C,U2*%
X135935000Y-130595000D03*
X135935000Y-131545000D03*
X135935000Y-132495000D03*
X138210000Y-132495000D03*
X138210000Y-130595000D03*
%TD*%
D21*
%TO.C,SW6*%
X128000000Y-100000000D03*
X134500000Y-100000000D03*
X128000000Y-104500001D03*
X134500001Y-104500000D03*
%TD*%
D32*
%TO.C,R30*%
X124000000Y-100000000D03*
X122000000Y-100000000D03*
%TD*%
D16*
%TO.C,R28*%
X159500000Y-124500000D03*
X159500000Y-122500000D03*
%TD*%
%TO.C,R26*%
X138210000Y-125495000D03*
X138210000Y-123495000D03*
%TD*%
%TO.C,R25*%
X184000000Y-110500000D03*
X184000000Y-108500000D03*
%TD*%
D18*
%TO.C,R23*%
X146710000Y-143495000D03*
X146710000Y-145495000D03*
%TD*%
D16*
%TO.C,R22*%
X183500000Y-128500000D03*
X183500000Y-126500000D03*
%TD*%
%TO.C,R21*%
X185000000Y-115000000D03*
X185000000Y-113000000D03*
%TD*%
%TO.C,R20*%
X162750000Y-151995000D03*
X162750000Y-149995000D03*
%TD*%
D18*
%TO.C,R19*%
X155000000Y-145500000D03*
X155000000Y-147500000D03*
%TD*%
D16*
%TO.C,R15*%
X183500000Y-148000000D03*
X183500000Y-146000000D03*
%TD*%
D29*
%TO.C,R14*%
X184500000Y-133000000D03*
X186500000Y-133000000D03*
%TD*%
D32*
%TO.C,R10*%
X168500000Y-120000000D03*
X166500000Y-120000000D03*
%TD*%
D29*
%TO.C,R6*%
X166500000Y-117050000D03*
X168500000Y-117050000D03*
%TD*%
D32*
%TO.C,R2*%
X168500000Y-122500000D03*
X166500000Y-122500000D03*
%TD*%
D33*
%TO.C,J10*%
X131000000Y-62500000D03*
D34*
X126000000Y-62500000D03*
X121000000Y-62500000D03*
%TD*%
D35*
%TO.C,J9*%
X196000000Y-111000000D03*
D34*
X196000000Y-106000000D03*
X196000000Y-101000000D03*
X196000000Y-96000000D03*
%TD*%
D35*
%TO.C,J8*%
X196000000Y-133000000D03*
D34*
X196000000Y-128000000D03*
X196000000Y-123000000D03*
X196000000Y-118000000D03*
%TD*%
D36*
%TO.C,J7*%
X106000000Y-80000000D03*
D34*
X106000000Y-85000000D03*
X106000000Y-90000000D03*
X106000000Y-95000000D03*
%TD*%
D25*
%TO.C,J6*%
X149210000Y-145495000D03*
%TD*%
D33*
%TO.C,J4*%
X169000000Y-63000000D03*
D34*
X164000000Y-63000000D03*
X159000000Y-63000000D03*
X154000000Y-63000000D03*
X148999999Y-63000000D03*
X143999999Y-63000000D03*
X139000001Y-63000000D03*
%TD*%
D37*
%TO.C,J3*%
X141710000Y-152667500D03*
D34*
X146710000Y-152667500D03*
%TD*%
D35*
%TO.C,J1*%
X196000000Y-155000000D03*
D34*
X196000000Y-150000000D03*
X196000000Y-145000000D03*
X196000000Y-140000000D03*
%TD*%
D38*
%TO.C,D1*%
X168524999Y-125500000D03*
X166475001Y-125500000D03*
%TD*%
D39*
%TO.C,C24*%
X175962500Y-97000000D03*
X178037500Y-97000000D03*
%TD*%
%TO.C,C23*%
X175962500Y-94500000D03*
X178037500Y-94500000D03*
%TD*%
D30*
%TO.C,C22*%
X185000000Y-94500000D03*
X185000000Y-92425000D03*
%TD*%
D39*
%TO.C,C21*%
X121925000Y-89000000D03*
X124000000Y-89000000D03*
%TD*%
%TO.C,C20*%
X121962500Y-86500000D03*
X124037500Y-86500000D03*
%TD*%
D20*
%TO.C,C19*%
X124037500Y-91500000D03*
X121962500Y-91500000D03*
%TD*%
%TO.C,C18*%
X178075000Y-99500000D03*
X176000000Y-99500000D03*
%TD*%
D39*
%TO.C,C17*%
X175462500Y-111000000D03*
X177537500Y-111000000D03*
%TD*%
%TO.C,C16*%
X175462500Y-113250000D03*
X177537500Y-113250000D03*
%TD*%
D30*
%TO.C,C15*%
X182500000Y-115037500D03*
X182500000Y-112962500D03*
%TD*%
D39*
%TO.C,C14*%
X139172500Y-145495000D03*
X141247500Y-145495000D03*
%TD*%
D20*
%TO.C,C13*%
X177537500Y-115500000D03*
X175462500Y-115500000D03*
%TD*%
D39*
%TO.C,C12*%
X176962500Y-130500000D03*
X179037500Y-130500000D03*
%TD*%
%TO.C,C11*%
X176962500Y-133000000D03*
X179037500Y-133000000D03*
%TD*%
%TO.C,C10*%
X184462500Y-135500000D03*
X186537500Y-135500000D03*
%TD*%
D20*
%TO.C,C8*%
X179037500Y-135500000D03*
X176962500Y-135500000D03*
%TD*%
%TO.C,C5*%
X144500000Y-129500000D03*
X142425000Y-129500000D03*
%TD*%
D39*
%TO.C,C1*%
X131172500Y-130995000D03*
X133247500Y-130995000D03*
%TD*%
M02*
