M48
; DRILL file {KiCad 9.0.3} date 2026-03-05T18:52:11-0600
; FORMAT={-:-/ absolute / inch / decimal}
; #@! TF.CreationDate,2026-03-05T18:52:11-06:00
; #@! TF.GenerationSoftware,Kicad,Pcbnew,9.0.3
; #@! TF.FileFunction,Plated,1,2,PTH
FMAT,2
INCH
; #@! TA.AperFunction,Plated,PTH,ViaDrill
T1C0.0118
; #@! TA.AperFunction,Plated,PTH,ViaDrill
T2C0.0236
; #@! TA.AperFunction,Plated,PTH,ComponentDrill
T3C0.0236
; #@! TA.AperFunction,Plated,PTH,ComponentDrill
T4C0.0315
; #@! TA.AperFunction,Plated,PTH,ComponentDrill
T5C0.0433
; #@! TA.AperFunction,Plated,PTH,ComponentDrill
T6C0.0512
%
G90
G05
T1
X4.4291Y-3.7008
X4.4685Y-3.3661
X4.4685Y-3.4449
X4.4685Y-3.5236
X4.5669Y-3.4646
X4.5669Y-3.5433
X4.5669Y-3.622
X4.6654Y-3.6417
X4.6654Y-3.8386
X4.7244Y-3.9173
X4.7441Y-3.4843
X4.7441Y-3.563
X4.7441Y-3.6417
X4.7638Y-3.8386
X4.8425Y-3.3465
X4.8425Y-3.6614
X4.8819Y-3.8386
X4.9606Y-3.4449
X4.9606Y-3.5039
X4.9606Y-3.5827
X5.0Y-3.8386
X5.1378Y-3.8386
X5.1969Y-2.7953
X5.2953Y-2.6969
X5.2953Y-3.8386
X5.2953Y-5.2165
X5.3937Y-3.7598
X5.3937Y-4.8031
X5.4331Y-2.8346
X5.4331Y-5.0197
X5.4528Y-5.2756
X5.4724Y-3.0709
X5.4921Y-3.878
X5.4921Y-5.1575
X5.5118Y-4.8031
X5.5512Y-4.9213
X5.5709Y-5.2165
X5.6102Y-2.7559
X5.6102Y-3.9567
X5.6102Y-5.1772
X5.6299Y-4.8425
X5.6693Y-3.0709
X5.6693Y-3.2677
X5.6693Y-5.0197
X5.689Y-5.315
X5.7087Y-2.8543
X5.7087Y-5.1772
X5.7283Y-2.7559
X5.7874Y-2.9528
X5.8071Y-5.0984
X5.8268Y-2.8543
X5.8465Y-5.4528
X5.8465Y-5.6102
X5.8661Y-2.7559
X5.8661Y-3.0512
X5.8661Y-3.2677
X5.8661Y-3.4646
X5.9055Y-2.9528
X5.9055Y-5.0984
X5.9055Y-5.5512
X5.9252Y-5.315
X5.9252Y-5.6102
X5.9449Y-2.8543
X5.9449Y-4.9213
X5.9449Y-5.0197
X5.9646Y-5.4921
X5.9843Y-3.0512
X5.9843Y-5.8465
X6.0039Y-3.1496
X6.0039Y-5.5512
X6.0236Y-2.9528
X6.1024Y-5.689
X6.122Y-5.5118
X6.2008Y-5.4724
X6.2205Y-5.0984
X6.2205Y-5.2953
X6.2402Y-5.4134
X6.2992Y-5.0197
X6.2992Y-5.1575
X6.3386Y-5.2953
X6.3583Y-5.9449
X6.378Y-4.9606
X6.3976Y-5.0787
X6.4173Y-3.9173
X6.4567Y-4.9213
X6.4567Y-5.1575
X6.4764Y-3.9764
X6.4764Y-5.0197
X6.4961Y-4.0748
X6.5354Y-4.5276
X6.5551Y-3.9173
X6.5551Y-4.1142
X6.5748Y-4.4685
X6.5748Y-5.0787
X6.5945Y-4.6654
X6.6339Y-3.9764
X6.6339Y-4.5276
X6.6339Y-4.6654
X6.6535Y-4.2126
X6.6929Y-3.9173
X6.6929Y-4.3701
X6.7323Y-4.2126
X6.7323Y-4.8819
X6.7323Y-5.0197
X6.7323Y-5.1378
X6.7323Y-5.2953
X6.7323Y-5.3937
X6.752Y-4.1142
X6.752Y-4.2949
X6.752Y-4.3504
X6.7717Y-4.1929
X6.7717Y-4.8228
X6.7717Y-4.9409
X6.7874Y-4.3504
X6.7913Y-4.0315
X6.811Y-4.0945
X6.811Y-4.7835
X6.811Y-4.9409
X6.813Y-4.7225
X6.8189Y-4.3504
X6.8504Y-4.3504
X6.8504Y-4.7047
X6.8504Y-4.9409
X6.8504Y-5.4921
X6.8898Y-3.9764
X6.8898Y-4.0945
X6.8898Y-4.1929
X6.8898Y-4.6654
X6.8898Y-4.9409
X6.9094Y-4.4094
X6.9291Y-3.6417
X6.9291Y-4.2717
X6.9488Y-4.626
X7.0079Y-4.252
X7.0079Y-4.6063
X7.0079Y-5.3937
X7.0472Y-4.4094
X7.0472Y-4.5079
X7.0669Y-3.8583
X7.126Y-3.8189
X7.126Y-4.311
X7.126Y-4.4094
X7.126Y-4.5079
X7.1654Y-4.252
X7.2244Y-5.4921
X7.2244Y-5.6693
X7.2441Y-4.9213
X7.2441Y-5.5709
X7.2638Y-4.0551
X7.2638Y-4.1339
X7.2638Y-4.8425
X7.2835Y-4.7638
X7.3425Y-5.6496
X7.3622Y-3.7992
X7.3819Y-4.0551
X7.3819Y-4.1339
X7.4016Y-4.7638
X7.4016Y-4.8425
X7.4016Y-5.2362
X7.4016Y-5.3346
X7.4016Y-5.4921
X7.4409Y-5.748
X7.4606Y-5.5709
T2
X5.6693Y-5.2362
X6.1811Y-4.8425
X6.4567Y-4.8228
X6.8307Y-3.937
X7.0472Y-5.0197
X7.0866Y-4.6063
T4
X5.5048Y-5.3267
X5.7169Y-5.5388
T5
X5.0394Y-3.937
X5.0394Y-4.1142
X5.0476Y-4.803
X5.0476Y-4.9801
X5.2953Y-3.937
X5.2953Y-4.1142
X5.3035Y-4.803
X5.3035Y-4.9801
X6.3976Y-3.622
X6.3976Y-3.7992
X6.6535Y-3.622
X6.6535Y-3.7992
T6
X4.1732Y-3.1496
X4.1732Y-3.3465
X4.1732Y-3.5433
X4.1732Y-3.7402
X4.7638Y-2.4606
X4.9606Y-2.4606
X5.1575Y-2.4606
X5.4724Y-2.4803
X5.5791Y-6.0105
X5.6693Y-2.4803
X5.776Y-6.0105
X5.8661Y-2.4803
X6.063Y-2.4803
X6.2598Y-2.4803
X6.4567Y-2.4803
X6.6535Y-2.4803
X7.7165Y-3.7795
X7.7165Y-3.9764
X7.7165Y-4.1732
X7.7165Y-4.3701
X7.7165Y-4.6457
X7.7165Y-4.8425
X7.7165Y-5.0394
X7.7165Y-5.2362
X7.7165Y-5.5118
X7.7165Y-5.7087
X7.7165Y-5.9055
X7.7165Y-6.1024
T3
G00X5.9717Y-5.9189
M15
G01X5.9717Y-5.9622
M16
G05
G00X5.9717Y-6.0894
M15
G01X5.9717Y-6.1209
M16
G05
G00X6.3118Y-5.9189
M15
G01X6.3118Y-5.9622
M16
G05
G00X6.3118Y-6.0894
M15
G01X6.3118Y-6.1209
M16
G05
M30
