M48
; DRILL file {KiCad 9.0.3} date 2026-03-26T18:49:48-0500
; FORMAT={-:-/ absolute / inch / decimal}
; #@! TF.CreationDate,2026-03-26T18:49:48-05:00
; #@! TF.GenerationSoftware,Kicad,Pcbnew,9.0.3
; #@! TF.FileFunction,Plated,1,2,PTH
FMAT,2
INCH
; #@! TA.AperFunction,Plated,PTH,ViaDrill
T1C0.0118
; #@! TA.AperFunction,Plated,PTH,ComponentDrill
T2C0.0512
%
G90
G05
T1
X3.4646Y-4.252
X3.5236Y-4.3307
X3.5433Y-4.1142
X3.622Y-4.0945
X3.6688Y-4.4414
X3.6811Y-4.1142
X3.6811Y-4.1929
X3.7992Y-4.2323
X3.7992Y-4.4291
X3.8386Y-4.1929
X3.8386Y-4.3307
X3.8386Y-4.8425
X3.878Y-4.5866
X3.8976Y-4.7835
X3.937Y-4.1732
X3.937Y-4.252
X3.937Y-4.3307
X3.9764Y-4.8425
X3.9961Y-4.4488
X4.0551Y-4.4488
X4.0551Y-4.6063
X4.0945Y-4.5669
X4.0945Y-4.8425
X4.2126Y-4.8425
T2
X3.0512Y-3.622
X3.1299Y-3.9764
X3.1299Y-4.1732
X3.1299Y-4.4291
X3.1299Y-4.626
X3.1299Y-4.8228
X3.248Y-3.622
X3.4449Y-3.622
X3.5236Y-5.0984
X3.6417Y-3.622
X3.7205Y-5.0984
X3.8386Y-3.622
X3.9173Y-5.0984
X4.1142Y-5.0984
X4.2323Y-3.5433
X4.2323Y-3.7402
X4.2323Y-3.937
X4.2323Y-4.1339
X4.2323Y-4.3307
X4.2323Y-4.5276
X4.2323Y-4.7244
X4.311Y-5.0984
M30
